<mxfile host="65bd71144e">
    <diagram name="PÃ¡gina-1" id="-Zctzb-CanJ-6wD0uNSQ">
        <mxGraphModel dx="709" dy="480" grid="0" gridSize="5" guides="1" tooltips="1" connect="1" arrows="1" fold="1" page="1" pageScale="1" pageWidth="827" pageHeight="1169" background="#ffffff" math="0" shadow="0">
            <root>
                <mxCell id="0"/>
                <mxCell id="1" parent="0"/>
                <mxCell id="7" value="" style="rounded=0;whiteSpace=wrap;html=1;fillColor=#f5f5f5;fontColor=#333333;strokeColor=#666666;" vertex="1" parent="1">
                    <mxGeometry x="220" y="92.5" width="355" height="235" as="geometry"/>
                </mxCell>
                <mxCell id="5" style="edgeStyle=none;html=1;entryX=0;entryY=0.5;entryDx=0;entryDy=0;entryPerimeter=0;strokeColor=#000000;" edge="1" parent="1" source="me_X3TQdLvSyZ-2hOkaQ-3" target="2">
                    <mxGeometry relative="1" as="geometry"/>
                </mxCell>
                <mxCell id="me_X3TQdLvSyZ-2hOkaQ-14" style="edgeStyle=orthogonalEdgeStyle;rounded=0;orthogonalLoop=1;jettySize=auto;html=1;entryX=0;entryY=0.5;entryDx=0;entryDy=0;entryPerimeter=0;strokeColor=#080808;" parent="1" source="me_X3TQdLvSyZ-2hOkaQ-6" target="me_X3TQdLvSyZ-2hOkaQ-3" edge="1">
                    <mxGeometry relative="1" as="geometry"/>
                </mxCell>
                <mxCell id="me_X3TQdLvSyZ-2hOkaQ-3" value="raw" style="sketch=0;points=[[0,0,0],[0.25,0,0],[0.5,0,0],[0.75,0,0],[1,0,0],[0,1,0],[0.25,1,0],[0.5,1,0],[0.75,1,0],[1,1,0],[0,0.25,0],[0,0.5,0],[0,0.75,0],[1,0.25,0],[1,0.5,0],[1,0.75,0]];outlineConnect=0;fontColor=#232F3E;gradientColor=#60A337;gradientDirection=north;fillColor=#277116;strokeColor=#ffffff;dashed=0;verticalLabelPosition=bottom;verticalAlign=top;align=center;html=1;fontSize=12;fontStyle=0;aspect=fixed;shape=mxgraph.aws4.resourceIcon;resIcon=mxgraph.aws4.s3;" parent="1" vertex="1">
                    <mxGeometry x="300" y="185" width="50" height="50" as="geometry"/>
                </mxCell>
                <mxCell id="me_X3TQdLvSyZ-2hOkaQ-6" value="" style="shape=image;imageAspect=0;aspect=fixed;verticalLabelPosition=bottom;verticalAlign=top;image=data:image/png,iVBORw0KGgoAAAANSUhEUgAADwAAAAhwBAMAAABikNZBAAAABGdBTUEAALGPC/xhBQAAAAFzUkdCAK7OHOkAAAASUExURUdwTAAzOwAzOwAzOwAzOwAzO2URewIAAAAFdFJOUwBSmNMjWB3PfgAAIABJREFUeNrswQEBAAAAgJD+r+4ICgAAAAAAAAAAAAAAAAAAAAAAAAAAAAAAAAAAAAAAAAAAAAAAAAAAAAAAAAAAAAAAAAAAAAAAAAAAAAAAAAAAAAAAAAAAAAAAAAAAAAAAAAAAAAAAAAAAAAAAAAAAAAAAAAAAAAAAAAAAAAAAAAAAAAAAAAAAAAAAAAAAAAAAAAAAAAAAAAAAAAAAAAAAAAAAAAAAAAAAAAAAAAAAAAAAAAAAAAAAAAAAAAAAAAAAAAAAAAAAAAAAAAAAAAAAAAAAAAAAAAAAAAAAAAAAAAAAAAAAAAAAAAAAAAAAAAAAAAAAAAAAAAAAAAAAAAAAAAAAAAAAAAAAAAAAAAAAAAAAAAAAAAAAAAAAAAAAAAAAAAAAAAAAAAAAAAAAAAAAAAAAAAAAAAAAAAAAAAAAAAAAAAAAAAAAAAAAAAAAAAAAAAAAAAAAAAAAAAAAAAAAAAAAAAAAAAAAAAAAAAAAAAAAAAAAAAAAAAAAAAAAAAAAAAAAAAAAAAAAAAAAAAAAAAAAAAAAAAAAAAAAAAAAAAAAAAAAAAAAAAAAAAAAAAAAAAAAAAAAAAAAAAAAAAAAAAAAAAAAAAAAAAAAAAAAAAAAAAAAAAAAAAAAAAAAAAAAAAAAAAAAAAAAAAAAAAAAAAAAAAAAAAAAAAAAAAAAAAAAAAAAAAAAAAAAAAAAAAAAAIDZgwMBAAAAACD/10ZQVVVVVVVVVVVVVVVVVVVVVVVVVVVVVVVVVVVVVVVVVVVVVVVVVVVVVVVVVVVVVVVVVVVVVVVVVVVVVVVVVVVVVVVVVVVVVVVVVVVVVVVVVVVVVVVVVVVVVVVVVVVVVVVVVVVVVVVVVVVVVVVVVVVVVVVVVVVVVVVVVVVVVVVVVVVVVVVVVVVVVVVVVVVVVVVVVVVVVVVVVVVVVVVVVVVVVVVVVVVVVVVVVVVVVVVVVVVVVVVVVVVVVVVVVVVVVVVVVVVVVVVVVVVVVVVVVVVVVVVVVVVVVVVVVVVVVVVVVVVVVVVVVVVVVVVVVVVVVVVVVVVVVVVVVVVVVVVVVVVVVVVVVVVVVVVVVVVVVVVVVVVVVVVVVVVVVVVVVVVVVVVVVVVVVVVVVVVVVVVVVVVVVVVVVVVVVVVVVVVVVVVVVVVVVVVVVVVVVVVVVVVVVVVVVVVVVVVVVVVVVVVVVVVVVVVVVVVVVVVVVVVVVVVVVVVVVVVVVVVVVVVVVVVVVVVVVVVVVVVVVVVVVVVVVVVVVVVVVVVVVVVVVVVVVVVVVVVVVVVVVVVVVVVVVVVVVVVVVVVVVVVVVVVVVVVVVVVVVVVVVVVVVVVVVVVVVVVVVVVVVVVVVVVVVVVVVVVVVVVVVVVVVVVVVVVVVVVVVVVVVVVVVVVVVVVVVVVVVVVVVWHvjnUbt4IAisJeuycQbE8EUU8kUs8AUS+R2v//lXRBimDhSHpPb2bO+QMSHFyLHNIAAAAAAAAAAAAAAAAAAAAAAAAAAAAAAAAAAAAAAAAAAAAAAAAAAAAAAAAAAAAAAAAAAAAAAAAAAAAAAAAAAAAAAAAAAAAAAAAAAAAAAAAAAAAAAAAAAAAAAAAAAAAAAAAAAAAAAAAAAAAAAAAAAAAAAAAAAAAAAAAAAAAAAAAAAAAAAD29/VrMb07Lf1sNA0DXAP8o5uq0PHBeABBgAX6q2SwACLAAd7cbBQABFuD+jkYBQIAFuL/VKAAIcFM3p8UKFoAAC7AVLAABFuCqp2UzCAC9fQiwAP9YDAKAADd2EWArWAACLMBWsAAEWICLBngyBwD9CXD5AFvBYrxfBn99nbOFAKfaN3pzSuCF/s8EOlsIsAAHta+mAAGGFzgJcPEA3wwBAgwC3N4swFawEGAQYAG2ggUCTFEHAa4d4NkMIMAgwALcfwXLCCDAIMDjPPGsE2ArWAgwvMh3AS4d4MkIIMAgwD2sAvxvPgONAIMAC7AVLBBgCjkXC/Dzx98KFggw3OFTgAsH+GgAEGAQ4JF+8lUJ8GoAEGB4lW+1Arw9f/ytYIEAwx3eBbhugGfXPwIMAizAo54MEGAQ4F43XWsEeHH5I8AQ40JP4OasWMFCgGEIHwJcNcBWsBBgEOBuLgL8j8nVjwDDK9UK8CLAVrAQYBjDqVSAZwG2goUAwxgOAlwywPvq2keAQYBHe+5ZIMA3lz4CTBy//PFFv0c6qu+lArw+f/ytYIEAM0yqQq23nAW4YoCtYCHACPCrfVbq795g/FM/DAcBRoCb+SbABQO8G2cEGAEW4AFvvKYPsBUsBBgBfrlS/43h2mD8Mz8LBwFGgMe40sv88HvzhwgIMALcWKmPQV8E2AoWAowAj6JSgBcBtoKFACPAozgVCvDcYPwDOhpmBBgBHsBBgKsFeDXMCDACHOmwEpgE2AoWAowAj+JcKMAtxt8KFggwAnyXzzr93VuMfzg+A40AI8BjKPQprK3F+KddBQcBRoDbKvQprGuL8beCBQKMADe/1IO7OSc+A40AI8DDKPQprIsAf30THAQYAW7tVCbAiwBbwUKAEeBxHMoEeBZgK1gIMAIc8Ljq3H3NG+B9NcgIMAI8inOZADcZfytYIMAI8H0+q/R3bzL+VrBAgBHg+5R5EXhrMv5WsECAEWAB/qlrk/HPuYYGAowAt1fmReBL+QDvphgBRoBHUiXAS/kAH00xAowAj+RQJMBzk/G3ggUCjAC3PrDg1uoBvhpiBBgBHsq5SIDbjL8VLBBgBPhORf4j8NZm/K1ggQAjwHcq8h7Stc34W8ECAUaAO1zsgd2qn5HVDCPACPBgvIVUIcBWsBBgBHg4Nd5DmosHeDbCCDACHPbIqtyBzRhgn4FGgBHg8ZR4D2lvNP4J78CDACPAnZR4D2lrNP5WsECAEeAeV3uJHaSEJ+RmgBFgBHg8Jf4f0qV2gCcDjAAjwAM6WYJOHmArWAgwAjykCu8hTY3G3woWCDACfLcKa9Ctxj/GCvhqfhFgBHhEBdagt1bjbwULBBgB7nK5F1iCznc+JuOLACPAQyqwBn2pHGArWAgwAjyq/GvQc+UAz6YXAUaAox9bWGvhAO+GFwFGgEf1mb2/e7PxD+BoeBFgBHhU75agEwd4MrwIMAKc4Xov8B5OrtNxNbsIMAI8ruxbWEvhAM9mFwFGgMd1SB7gqW6ArWAhwAjwyM7JA9xu/JP9+AcBRoD7Sv4xyq3d+Od6AQsEGAEe+IJPv4OV6mxYwUKAEeCx2cFKGuDZ5CLACPDQcm9hTWUD7DPQCDACPLjcW1gNx98KFggwAvyI1N/C2hqO/+DvIK0GFwFGgPNc8dl3sBKdDCtYCDACPLxT4gDPZQM8mVsEGAFOc3gFMpQmwFawEGAEeHyJt7D2luNvBQsEGAF+SOItrGvL8U/1lwcIMALc30feAC8txz/T8hkIMAL8Cgc7WNkCPJlaBBgBDiDvQ+Cm428FCwQYAX5M2n+ItDUd/0y//EGAEeDRr/nkT0JznAorWAgwAhzEySPgVAE+mlkEGAFOdoDBrEUDvJpZBBgBjiHpQ+Ct7fgPy2egEWAEOONFn/tl2BRnYjayCDACHEXOh8Bz2/G3ggUCjAB3O8Lsj0IzBHgxsQgwAhxGyofAW+Pxt4IFAowA97zqMz8CznAirGAhwAhwJBkfAs81AzwZWAQYAc54iMlvxcYPsM9AI8AIcCgJHwJvrcffChYIMAL8sIT/E/hSMsD7al4RYAQ4lINHwCkCfDOuCDACHMs5W3/35uNvBQsEGAF+3Hu2AF+bj78VLBBgBPhx6R4CLyUDvJhWBBgBTnuQqe/FBg+wz0AjwAhwPMleRNraj78VLBBgBLjzhZ83RcHPwmRYEWAEOJ6Tl5CiB9hnoBFgBDiiVC8i7R3GP81fHSDACPBLpXoR6dph/K1ggQAjwE+R6R70UjHAR6OKACPAuQ8zgLVigFejigAjwCEluge99Rh/K1ggwAjwUyT6GNZSMcCzSUWAEeDsx5n3fdjAAfYZaAQYAQ4rzcewti7jn+VXPwgwAvxqae5B37qMvxUsEGAE+EkO1e9ABw6wFSwEGAEOLMk96K3P+Gf5owMEGAEOdfGnvAMd9wxYwUKAEeDQctyDnvqMvxUsEGAE+FlS3IPeOo3/SPbVmCLACHBkKfagb53GP8sxgwAjwAPIcA96KhjgyZQiwAhwbAnuQW+9xt8KFggwAvw0Ce5BLwUDPBtSBBgBLnOsOe/GxgzwbkYRYAQ4vPD/k3DrNv5WsECAEeDn+ThVvgMdNMCTGUWAEeD4zsEDvNYLsM9AI8AIcIYA/xm7v9d+428FCwQYAX6m2Peg537jbwULBBgBfqbQrwLvHcd/FEcTigAjwFu1CUi3Dxzx4FcTigAjwFutw024DxwwwFawEGAEOEuAA78KvPUcfytYIMAI8N/snVti2toOhkPiAdgE3rmUdwPm3VwyAOww/6mcdnf3dPcSgu0l6Zf8awBt5CXpk7S0RFrxO4a10HT/IDkHhUIAUwhgGHH7FLhVdX8MKemfFAKYQgCHAbDbX2R4V3V/jmBRKAQwhQC2UjjYCJZDAHMEi0IAUwjgSAB2OoZ11XX/IDkHhUIAUwhgIPE5hrUYH4A5gkUhgCkEcKxw6HIbVqvs/hzBolAIYAoBnFpcjmFVyu6PkHPU9E4KAUwhgGM1BD2+RKqV3T/E2DeFQgBTCGC/bhAJRs70zumcFAKYQgBHG4nx9xIp13Z/jmBRKAQwhQBOL+5eIl3V3T/E2DeFQgBTCGA02YzvDZI3ALd0TQoBTCGAAwLY2UukRt/9OYJFoRDAFAJYQg4jLIB9ATina1IIYAoBHBHA5zF2Yz0BmGugKQQwhQCOCeDMUwlcjhDAC3omhQCmEMAxn4U4KoGTbYSajK/op1AIYAoBDFcC+4FRZeH+UXSmUAhgCgGMJm+jK4A9AbimY1IIYAoBHBXA2fiKQT8A5ggWhQCmEMBxAeylBE74m0B+ALygX1IIYAoBHBfA2dgKYD8A5hpoCgFMIYBDR8XzyApgPwAu6ZYUAphCAEcGsIu3wJWR+3MEi0IhgCkE8JhL4JQFsBsAcw00hQDm1yKAgwPYQQlcWrm/peT0SpdyubB1ERfAWXb5esA1j5gAHk8J3Jq5P0ewKA+Dt1it9/8ks+1+v1utlsWMYToMgLPj/4/3R1T6dsrL4sLzJIAHCnoJvBgjgEs6pR85Ttd/PcT9ajnj1/EO4KxY7e/8ifsVKUwAD5HnUdWCPgCc9NqbIinF+m4G264KnqVfAB+n+0fclYdMAPeXzZj2UfgAMEewnNS+qwf6R+2OdbBLAGfTx7uD7Y4MJoADlsBXQ/fnCBblnnzQef5beF4yOnsD8HHd0WnbFRMtAlhU/QAocgFgjmB5wG+n4Yl2SwR7AvCp12hMU/B8CeBIUKpGpKtY251ijd9/hFWwGwBPD31dt13yhAngrgL7FCn9MJIHALf0SHA59pubIIJdAPh0GOS9ThCcXYpiuZquVqv1/rvsVlYT3WMHMOw2jnJM1T5HsLy4y7p3cP7Cr4cO4J7JladT/vZo/cOQvzN4Ozd2AKPOYTW27m8lIeqk7HIsvstsdglV+Q0qkHa14wP9fqLHYceJDeD+ydUvp5zjHmPx+eS++kj36AEM+hRJwIwdAPjq3Jay43S1/83J2/0uyMKCoRHaYRGcFX8c6LcdI7W8BzrrPuPfNhSPWq/uSDcBDMml7VgUDTSCdby3NqjduV8NdRweoX0VwXf2QPU7TWAApyl//7V1vCL4su5kvIoj3QQw4hyWyDoofAA7HsE6PuDh7c7zU41p0Nj8Uen7GZH23Ss9XAAnK3/l6odBzok7T0YAP2V4TWiRShAfwJVTC7qsHo1fbldDJauQXLShj48daNfDRAVw9pp8hAUo0eo5WqZ0YUIAA85hyVyF4gO4dmk+HfNrl6uhJukqpC28ssXjB9oNwaAAnghUIDD3/ZP+maPKPBkB/FVesTgk9HsE8AB2OYJVdI9e/hB8PCQ85gZb+47d2GYm44GK9cdBxJshEq2Btb3CDjcC+AnuMbBQ8ggP4IU/y+n7ctIXgk+J+5PAyvdINR4vlCABPJVyZ4CJu8FX2634jREBDNeElvrS6AD2Z2ED2lue9vadUp807ChWz2bsUsADfZSI0BfBSeYWpAt5AhitCS32g7joAC699U2G1Q5uXsWeBGwcksD9YfSgPngAlh1AtT3mRHMLwmkEAaxgiBiNWHAAiyUeOM1KvB6dVYsSkcCD+pXL1B6IXPE/LnkAu5XNlAlgMDpd46sYYQQrSevOQxF8Ekq30Ag8tF/5SKGEBuCEs+3K8yw67WeNNjQB/K+ArOMQrAPBAZx7spZUoQu+CD6JGTrWeQ/vZzyQTYEBWIG/VgROXNoLuikB/EM20TGEDWBX9jWNyiE1/oJpnuRAlyk9MAh/bQicXDW5wX0CWNke74vkLihsAJeO2s8p21s35HFoUZPBeY2U6kC3CT9nmHhncM8i8LJZLF0kgH8eW/AyEBrAjkawUk+ubGFVF47RTbgD/SSnQAKwXr3RLiK0baQITAD/lNfYFIIG8LufPC155EJdTCG+nwZj7i7lmq/7RwkEYNV+n+5lg6+xQQL4P2J9DSybKkIDOPdiIyc/vo3vDlW4A71LYBwA6+7+U7VvZ2ODBLCZWWqHI2QAu7GuV/8RCqkhtDDXcqp4lDAA1l57oHjB9OwsjyCAlU7PviGHDOCFEwN5Hc8HOKlE5jzcgd6pgWEArN7qa0JEcAlrJYD1o47RTSAwgFsnHRLBohBtJ8ckiNXrJ1Qfl3soADYYdlG67he+2hYgMAFsbptatQAwgN9pHGBbsdRuY67xDvTDpAIEwCY7h6oQVps+XySArbszalNIwACuXZjGWvYjQHWh52pnb5h4SCVUDTSAje7ZFiGCd2PmaGMBsNHPMiiEIVwA+1gDLd4cyXF01byKyeMd6BUYwFYLhxQGseYOYxUBDGGgGg0aXAAvPNjFa2AUmfqAVWSR7MRuYQFs99Kj8XygYqGaAEYA1fZpzABuyV+tOQDIexib18CyRf4XVABv7Px8GyO+LQhgYVG/JNFpwcICuHJgEzo9WZCdWNpTOnlAJ88xAWz6o2+inS610j5tmkwAG9+A6X1aWADXtAgoL1M3lCagjn+78rQHsO2+e9Fr4LmeudYEcCQCa5U9qAB2MIKl9+m2ANrqdynVeyAKl9wNIICNV/1JuvrJqRr2AL50ljoUgVPwN6sdA3iBz1/FuGX/HNiiS6nchFZ56lDhAXhj7etimZZucPsSCMAvmBH77Im/Ty+5XwDjt1Z0X6bl1toe4huBTrtygQbgs7mzi40ZbryqYQ7g7l9OZ2j25Ii/TxvHAC7hATzXde56TNqaNKHPRidpDGCEANC4PlEBNawB/AwbsU9++Du5+QWwNW8iO7eSQ3ozAzUVr1gA3iD4u8gVi/7uhioKgOe4rqpA4Gud6CP6BTD8CJb+ZzN9lrUJbweKPfYKCcBnCH8XCd8GXZs8BoB7RDe9xf3imXKikdfs5hjAOTh/La5EDb/JS3xDUEwxfrsrNAUwivtfHQZqsd6lOYDfumuu2KsS7mxs0wVNtwCGH8GyqAjt2vKG71S0LOFsp5QpgDcoLr+IYbRVBABn4C1LUQJ/SehabgFcgvPXpm+3HZe6QoEZoVr6ggLgM4zLt0FUywMA+Gyl9sMZglje2M5ShhSvAEYfwZqEhlGKhBg4MCNUS78YuCGAkZy/iqFaEwDAByOtO4jQEv4mXSIxdwzgd2z+Gv02pVliMjc1hjKihlcMAG+AnD7xY2Azo63cAxh0CcevIjIMvUsXYLObYwDn2AB+NfswJk1oYwtRyDoMxnUWCAB+gfL6axCjrb0DuHtaZjGzI3ARnPIx3NkxgMFHsCxX11ukJnNjcxB/f2UxrtMCANh6B7SkcRsa7dU5gHGXcPxmvokLoSZpcD04BvACmr+mYSviLwSZl8AmwbqyB/AczO8bU4hAxS9LAHc3C6ufbj+lDMVpu4vPN78AbqH52+eNnKdyEDBMC+tsE6x/XnlaARjP89Nl3qaX241rAE88BKUfxdA6mTvOJKKmTwBX0Py1/e1Uub31wPYhWwJbdTSu1gDewHl+E8RJK88A7pFw13bhOFERvK1FoqZPAOfI/M2sw5b2kk6EPqVoSvZqbedGAH6+4UkZI7cYnjHaATjDD0nJb4J3yZHz9nhmAgdg7DXQ9psLdG/IIcxDsgS2U7AxBTDaBFbKgzY32sovgOGXcPx52gP70K3AL4EcHFfAC2T+Anwt3TmsOYRNlHIKbswt3QbA5xuiVEGMNncL4O55mX3FdBzgxO1S8J7SI4CxR7DmsWmUoiHlyygsn8I2hgCGLIATlcAAIe3qFcAulnD8KcWmL35FmmsbxwAukfn7HCZIdbvLCGsVthwq7QA8v2FKFUS33CmAu4MMZGvDcQ2D358e7RHANTKAD2GClLM6qQmZYLRmAJ6A8jdFdgnRtbn6BLCXJRx/R3C3aLWbPUlHFYcAhh7BOocJUg4atBp9LmvjL60AjFoAp4jnGF6auwRwd7tAujLMpg+XwVLF769lS+0PwAtg/sLUg2o/VrGBsQuZxMyaQ60RgGEL4BQB/RDAYI0A7GkJxwAG75czyb/hpVMWhuWL0GugccoGpRIY6aloHlK/0gbAuAXw8BL4OYLBGgF4DhuKujC4WO3vJHirQvpP3jgGcAnMX6Av9T62jEMm07Yv8FsTAAMXwMORgmK0V38AzmAjUWdNjtPV+jcMt/vVsqhVOeEOwEY/eOsPR/nIMg6RuyaEWqm0ADByATz0FmoSwkdtAOxvCccncrnMiu9yuVhwwh2A34EPE2p1n8rNy1vw5gjCDXdjAGDoAngoU3AWjFzdAfigfNMdUrKbYwAj51MbqCil0So4BIrLd2clbOs9dQBjF8ADo8AhhB4mAHa6hANMXjpG6UnkGBu1AFbpFTxHisuwobpRBzB4ATysrEIy2soZgDehAjZCoeatAi6dfNdxlMBohVLinAPljXOuDWD0AniQbb/F0MMCwD1yFxbA97+iMwC3Xr7rKG6BMzSNE5sHSq/yqgxg+AJ4SKqFteK6cgXgeaiAbSVzxwBGHsHaBMfRn4L3czlJ822cJV+FLoDf8AHc37afg+hhAOAeICjJ2/tlizMA57jfFfDXy8uxpRxpRy5xSqWdKoCzmwNZiIMrih7pANyjAK4J3Ptliy8AI4+049FIegACsVOZ0OGfby4lYmMjpW1H0UMfwHGWcJjKoXPAwgm0wDf6kOFa9nshdioTFv2bsQL44ELPPIif5m4AHG4JBwIoXFXAyDf6kOFatmOAGKgbKUcZD4BffOj5LswtdB9VB3CP6TUu4fj03FwBuML9rKDhOh+dynnojEoDwE4U75mN42WNtRMAv2CFH6cyuTkGMPCN/hwzSknewbxBalwKOcpoAOym8i+DaFc6AXD3xIxLOD6Pmp4ADNzQQA3XklOImFeFTeyMSh7AbhS/poh/fi1WG8BcwiESNT0BGPg8YaNWKaYyaqWUh86oxAHsSPE+J43YX1+4AHD3L8clHA/08Ws/Pgl8nrgvJ+W6QG+gGpehtRMHsCPFqyDpxbsHAHMJh0wa46gCBj5P4JeTYnMQB1CFk8Sb7HDzKkGPNU1GDjnh3e+eSBnAcyW1YsukV3wGATDweQJHLakxLNxZnRQpx8vNrUQ91iQnneqqaL83Ly10AcwlHEKNNT8ABh7BQo5arZopRepBb25uZUSKdw/xAzPldrcqLj8Kgctxuk6TeTf4AO7h7iyAH2ms+QFwjvtdoaNWOTadm9gZlSiAfc2etarqtcvZn//icXUwim2qAOYSjiTycvMLYOA3ZdhRqxmdzsNT7/lYASzQ12j3+93+q+x267SN21v3+eEBNwu72Uf/6HQ4gkt0AHMJh1TVUnsJtiXuZwUP1yKtIORL0sGmkt3GCuBDWvb+p2H7o29brBL+H1ctT21m9/7Z01CV/sfeuXQ3biNRWHxoT7vDPds29rLb3Kut4V4irf//VzKZPsnpSZwWUXWrcEEDCy9FAqi6Xz1AeGYH8Ogypa2PShinMACY+Egdu1ybhC7MVffLlqMLUwAjS+8fVmx/6Mk9isGLT3yxfL0lAff+NWhPAJdLOMwytVwATHykjl2uZ96g4+Xr3X9+nGf5fnf38PA4JpHlvHr6lgDG1XJefpky7u5BSxwn80Ihm1cE/1XwljdPAAcK0cl9tNeMAUzcUaCXa4O1qyH0/aewfb9/TNAaNMwDswIwrJbz64otpmwrKHbIQuXndWv3RTOPV2oAl0s47DK1TABcjmBxVQ8muxSp1RcolRPuPyuAQbWc5WnV0+4Rj7K32qe1v/7m2zRxBHC8Q5RLONY2QDIBMHFHYaKX5MXJlmJe6Zcp0p3y53WSk/EtWEoAY2o5z2vFtwrOwhAs+fvf+Yye9uoHYEFh5LXgdmVh7ZgFgJmvgc5AruE1aK1F3DrUov20QxV/Z30ESwNgiJ8vv0U88Yv6cRdbkMTwV0zg+cgN4MnZATc6erE2pwfwpzmC9e3bwx/j5Y8/j99ol0836WWF0bWqXrCqYBI+K4ARtZyXOOl9U/PetrcfmcmJonFhudYNwOUSDkymds0YwB3vuuLk+uWv7zb+9Mj2+z0EwvACgqpLujLg12jzBe8onwDAAFN+jn2muGwriLUaezsSTGfpdtwALpdwQMYpYwATB1QouX65+xcsQT6aRDvE6KHRCm1e8I6yfQAD3PxJ4EBK8343QJaiNhxvtFLfdANwSYAtNTMLAA+8y4qpQP/yq8n0x4KRBhGRI7UhRcQRPiuApxT8Ve1yZKwVPKyo8tI2LwCXSzggo77mC2DiI1gQuX65tQnqi3bAK7h3qlHKtfmQMg/MFMDaMG8R6q7yMPRqSkYXq14dgPW0YwdtzXnpAAAgAElEQVRw/O6USzgituuYgSYRn2kHLM2qY6PaLzY6F2PC9wil05YXwSYDA/72v0N1D4/fRmIAq01ZnPfo+sAHqwlKo9aTj7Q5AbhcwmELihwy4CPvuurleu1Xk7okGFuDFgtmtBZIc2B5yg+uQC8Pdz8HWO3dwyMpgLWm/KRQJw2BV9tU4xVQrI9Pn3f0AO4dfW/DY8oYwMwtfXXZbr1svbmolGmuJDjUIj2j03nP7WP6/vZhQ+GREcBjMv4qL/9ca1R7L5dZbbOXHT2ABf5QLuGI8a4MADzwLqt2ZaI+QVCVoZFVhMZjtsollhoNsAI9f/3XRf/+SAdgpSkrVffNQR8iczlF16Z2IKMTgKe0UrOV0VzzBTBzS18p15EZoea8KLIv07tGUjJtltbcYV3aG/+PoH0kA7DOlNVVKsWdWGu3OvjN6GTg/UkALChAvRfcxtgeP4APxOuqk+sXxwblJf2sX62VBqA6KFNfvrY3H/VIBWBV71sfJCuCy7U9R8e625rZSC/gcAVwuYTDulJ6dFSlzR3B0i3Ms6tM4ZaxdRZpWRtYNl9QBXrdyTrMf+TDAFhlygtAdBUHsTqDGc7WyqBeMxcAx29KuYQjTlboM+BLnutqNDE5gQfYrGtLmYQ9UDbfgDDZ1f+PoP1CA2DVhTIQ25K3gQ8GVqStu93a2UW9Zh4ALpdwYFKWMWMAM1c0NBnMjN9Lp9aMLOx49dCan8Y5WQU65v8RvLEAWBN5PGPsSnq0YGUo2zis4no/ffJbLgWAg5esbXs013wBzLyhmnURn8CQlupwX+cF932URB0XtKesHV9dthOMjjaFKaNiy3VTnsytJyJ51PPXA8ACgSsJcKRisgP4QLyuigr0cjTybIdSQoKnN04BB6ACHSutbWAAsOZDXJhhicsBAxRYII4E45qBA4B7H6/b+qiu+QJYAaq0gY2haJ3ShjIia7j4L7VgifX/2kpytOaRAMC9/Hmv6R3qjP7xxdZPIDV7ewCXSzgceitHK8nFDOaPyhTLMiTQKdRptiZFHOVzGqRJwV/VN7AoAMsL4TOBR83oKV5MdfdiL+uQHZr8/XyLo1XnCQkB3BEvrFyulRGwrFmGqg5JCu/6wDh4xG59Ev6CCZxVLIkp7qyas3u1qLLtmZsDuFzC4cEJbgBTn6nrk82qThnMhCTsrzxWeUzDXyyBvYIqbF1FE1quigKi2guWiESdWTMHcLmEAzPGjAE8EK+rvGHY+TlfdKcMm0kAE4pgT/06FX+hBPZrauBQpa0qnbEiBor7K7SV+AJ4TByNbWTU13wBvGS8sKYHFUSZwmynKg7bWNvHOZPOWjXKCjwL7RpLwg/dyFLgGWs/qEpqb8hfcwDXvh6w2dFnDGDqloJUruc0OEKFM4Ic5QB5cDSiBvMnAKs1OAJ7xpL4CLm2eo/G3WA/FM7BS9jVghPSKNvWxq3g9iizo3IES9ww7NLgCOX8UyqVjj6gcwa7im0uKL+GQg/gKU3QAYyCbjvVPoXu/AOST7iFMgZwuYXSR7aYM2DqlkKVSKgVjz+7+j06n4gm1MVecpC2WqUDsJT9FimP7DaO2zY22S7huj1FVuyNARzv5+USDolvMQOYOqJqEmvWlCigiRZr2LeBk7Eg9ApTRRxtfUsF4IrKQUeb+KdPElf8fz7/jFwnWwBXFkHQJxw3o3piAHNHVH1izZKULB1aGoaN/GgzPDooP/JoTZ8IwNIP2m16fo2NVvRImsv095JGgETbJOg0HXdlxO8SMYC5rzVLXlUXXFrQgRXFuZEfTJ+ssXJMaw/TBvYDv1GFSrQKHdB4zri5/Lyls7O0a55bLuHwShqIAUwdUbn/U1yEjwCKRE3CkKMxna7iHsqLm7uaAFjIfatDryeTYCCkCSwmaJfCDcCnjcl1qjFBli0NgC+Zr6x5lNikWNIJrox25e93G0EzLL6dUgBY6t5GCbDsNPrNvR7TTKwyq9CaAnjcmFwnGiuSJN4MeKBe2iCaE9YJ489D+c97SaI5Ek0YGSw1JACwMPW3O6IhCW5n4PZ2BkKxdOhVsgRwuYTDLUeiBTD3V92yb0bBbZJTAi8ZU065MUSE3MiRU6wSAFiY+h/MnKuymLbvWcW/swzPX1MAh43JNXGaRgvgA/XKilrA6CpUfBdYnau1SQPj1pBF4hYwdldP/gAOVwZj1r7RLUNLldr/cFKDcp4hgMslHH6RJC2Aj9RLK2oBw88JntzfoEobGPd29Be3gMHSE7wBLLwAzPLQqyQYOsBmueBt9slgkQwBHO8LJQGWUoIVwOQ9/UARU7TuflJjZdFYmWPYOJIYau0N4PTn+QGlnZv70CaDSW30QaUdgMslHI5mfLTZEPXouJeWJGfordX572OfNuaItMSzqegYGWrvDGBRMcc45enhL5QOwLvxOe0azfYWUS7hEKcLpBkweUmjJokpKu936BNvY1zl4WK8o1eL5KZ1BrCs5j3Q+dcR5SnomsZd4iBltjdA7juTqMukpAAmL2nsBVO6JNtj4LqGxNs4WfFflgeahP4nXwDL5m3sYCM6vq0SO2pGAC6XcHhGkZwAZi9pSLIGk5yhcY4CxsSOWVthIvAEisobKa2LKOZHsITx0KEAGAPgePMrl3DIN4gTwOz3igok0qaoHivWyrdok8/ZKAAQ1n2J/h2BFMCyh3XGDlahNaMA2NAgul0ZUknhBDD5jkoW5JDYDSE5aZV8zr2NHQlbwIPNpgZHAPc8gYcuxJ0LgCGbFW98JQFWBDJHvOxu/giWKGswKqpXrsiok8dRk81sGyo7fXMEsKjefTB3sQk88Wo76mML4HIJh28ISZkBD1uxfYcocfSUzjhOWZzUqW1m21PZaRvcACyrvdtXqCrwSxUAm3lCuYRDI1SMAF7YF3ckiikmz0Ag7mEmnXybNxDlgXbK07gBuOaauGZHDgXA+vmUSzict4cRwOxHsFomyao8X6RPH3QEi3BDlgcaFmqCF4D3nBVoSSb2DnKTZVsKH+fy8aX/TJaLlRGMAO7IF1eQNbzSaLXjs47JM/7ZbkdtM6WTF4B7VgeN35ILSsOOWUi8CYDLJRzeDkwIYPpDdXsqyZoc32RMD6jaIjrnywNHJwCPZJGHAgUL6ue6LCTeBMDlEg5v/12zfM4AHjZj+i6S5flpUNSTzgTTNcwDbUtvJx8Ai2rvZxcvC1AUtCyRFTeA4+Ox910ZmjSBLwPm7ymAz4f4vo7GYSqGQCpqup3VjlqX3lofALNcag6pSgyg9cyDKRYALpdwuEePfACm7ykItNG0TBNXg9Yk47UdCYzqD4PVjpqX3iYXADe8EXKFDXPZSuyUAI6vOpRLOJS2ywdg+p5CfNYwE73P4vUkq0nv8QCW5IHvPD6sAHBPOHNxWeId1T35rAAul3D4R890AOYPqfbY0Fw/3AKchkGno1TibJYHmpfeggeAJQ8Z2AizSjo2RxUDAHMdbsl3xNzQTwfgYTuW7yXWvdcCTwwbWeGjAEEeaK88tQeAmUtU0WHRgsqns2gC4wFcbVGtU4wG7E2eAM4gpBrZ5hSnVAcHnzfVaXw9RZAHHgjtLB7AFbOH1tDQYESRfLsAjo9DyyUcaj1hy4AP9Ksbf2KHq1347mNYC4V5rxMfzoNIkz2AGZvfim3pUEFWDokdHMDlEo4UeswG4CP98saLlrk7R+VKigwmRsTsevkTerIVJ4UqewDvBb/vB6eAjN6jfiyHs71wAMd/er4cd2UoKwlkAM6g+4JtTfnvuOJ1OPpoDXqygjyw87C0YA7g3vj3nUsAZ9hUjxuS+dnAuzPqlZOXSMkA3PGvb7Qs2IfTjZO4cCRKNRoX8XmgTx+0MQewAPGOhzRqpKfFATiD2ioawOUSjiRuywXgHE61QwtjKYqVYrdpOXKICv0a8Xmgjz635gDmrlFVSPmIi5szKK6iARwfjJVLOAALebRwhA0fwRJUajqydzp4CKJl3R29+IE19O+NASxx7IHY1RZc4Yq/ugoGMGsfJrtR4xfRDcA5NPWjF2NhU+p3D9OyrGUEMC9oCzW1MYAlv+/poj3w5Zqt0QUM4J7WCzIbfcYAzqGpD21Mocbe5YVqkq3ssQAGXzqMrEGPtgAWHIJ2Vd3o4xYDDsDzZoTe6kuAYVfGBz57zRjAOdQ0Gka19rmkuSGZ9YR9D+yFD8lr0LY/f8nV16J3mf0cFhbA8aZQLuH4cJwyBnAWNY2JMaporSRanDANJLp8NsgD/ey0tgWw4BD0wdPXooXnDPythTwdgAK4JbeEfMaYMYCzqGkEykAxeIQEMbGHZZIILoVPvNIjqUEbioV7kQqYn8eLGPmJFCiAyyUcqULmNcvoBOA8ahojThNS1Sqlgc5EspcVdvkDMYR6SwBLPnPijnZnIMzZK3JIAAsCvXIJB8ZhiTLgLC4WjRats8trRXXLDvbGNbPswQoAj8S63FgisqJnUg+M4QXp/vNnAbDAzEoCjHEpIgB3m1xhn7p67RETBCj3fCqTt9WnZY79W0sACzrMzncvTEAsCBre1ARGAjiwG0IuY8oYwHlsacMZKbYeKx3sGQ9/kRlv3a6BYjAE8D7eSQ/k3tZBq/nUBAYCuFzCgRpjxgAesljhWNGaCXd+tn+GrVBHUGmBq4/vUYXGEMATvZMi603TdVsEBgI4Psorl3B4RjIuAM7ks7LYONorrw8OSz2yCHWPnOuedEelvmeZXXt3/qIr8Adovk9dmMMBuFzCka5exXMK+nWbS+xVs5scZJSmQrVH8mji1p6RCcDuUTKwP18LhWk+cioRDsDxxfmSAMNA+Tt7d7LkNnKEAZjEcodmBnfKEu6QonGH3IE7sfD9X8UeL+MJu02xCrnXX6GzmiwU8svMAopmKuDZxxxPRsN1/eDn0czVrCk/SW97ofZ8AD/sB97UHGFliGJGT+QgAxiHcKhUQcYAdvJUXWM1r6j4s4KE777b+bIzcYyXNqhmA7hxcJf2dBlCkx+cPocGOJ0NHMLx8QqbHAPsZFMhdSp2kx8sL4FtzChVUS5wuianjZSPJ2eTeLidAAfiF4H/Pb4bFIcK4Aw2nGwXSo/64RdgL5sKldnvxY9IwjJgrpSuhAu8sZ4pDoYAFv/yLWH6MZyIT/vXsADjEA6tO9USwF42FVIDgly9lJLH5vloB+CG0Iyr9eCzcAHc8kQL3aJipmtnGy+CqQBOL4BxCAchkzPb/xwyp1rMJhYp6VdeXV7ZyTsIAU6sA+VbNRUXwIuD27QiTBHacyHKWhFMBDAO4RC/IAYr4CPqJN9MfrKdOxhy5x0T3RWora/Uhgvg9IAh/64+5Ukc1dko9b1zGYo24r4pCmCS+9QUwG5yqtTlKlcytCxBOj7Ai9WMKrdHyLaWNcp/ypM4CMLYZ0OdOhqAcQiH2m6JIYD9vNedumFi9PpnJTyVnXt0oMsFeqsZVe4nZFvLKrUP5XPaBJFqt/NGEg3AfeBgbbs2swTw6GWSG7uLtWIHuGb+/3lMGknvG43oUzMB7GKnaCLMEQaKWLX9FglgHMKhEn+NAeznve4rYTjQ/Gg3ZgjCArzaX3Rs3d3n5aWRumKl2234v1vBNggmATh9SvYLBk0rwc5T0G4ewUpOcwS/WcOexda0q+rMWOjQmOyn/zwA+9j9SwV4o2slGH8aiwJgHMKh1Rs1VQF3bqY59RYejYbpg/nLcwPckgHcOFiqAwvAlQuAUwuLXSaOGSCYAmAcwkE13h0D7GhXvzUcsVKS2ZX5yxu6DneV/q5WvZ/wEWsXmXJyZ4+jSjFJMAXA6QWwn26l7JgcA3zzM82L4Yg1cOc8r6vHvk9Uk0WMq4NcsWIBuE2/U2f7d9zTzziQxi3lvWACgHEIh84tagtgT7v6veGIBYBzAK4c5P9XFoAzHklykPI+DWgLcehSJZgA4PSEBIdwEDVqDAHsaVd/MByxeu6kp+X1nSnhPCgbsaOD/hZfzNBIlZPr9BtLnWKQ4PMA4xAOnRTZ2FPQnpoak+GItVBf9vw/4Ajg1sNaHWwA7OAl6Oc5UsMQvtTeCz4PsI8V4GEsvPyxAuyqqTEZXq8LtyQhAV4e3HmL9KXl6uYEAPjMTwI/SbN1Tsc6DTAKYC0XTAHs6Zo2lpOLtiCAr2QA99YFSlaIL2hsf5EfyWnCnalSeU6wQmZ2GuD0ycAhHPRbG9oAu7qmqRNxmI3SOWmPT4BXQoBXD+tOIGu3PA6uSPl8yBN8FmAcwqGzRWQMYFfXNHUi7mYBHlkBXg1diJXw3rkrrbuGA+CY/j6/3g3jH5Ym+CzA6e+B+zky2DYLpgB2dU1TE+jR7IfLocQQwA0ZwEllgNp2yUQPcBMUYOpfv00Y30SD2VmA0wtgHMLBsLHxypphBNjXe2V1GIAP1nVmCeCDEOBOa+EN9ABfiwR44f3jklXwSYBxCAdZMDq1maNcAd9cTXVt+dtV3IlPyAo46Xq6yLELB3gn7WEl/3W5KvgkwOm9ABzCQdXLtwOws/fK2tTb8TEJ/isI4AvVN218rNaaHuAqKMAPwo5HFsGfXQB85aGixDE4Bnj0NdVLmCi1AeD0pa1XAlQAmGhTref/APtXBwD3IiGjhHFSR1WAvT1W14eJUjsrwFtMgA8XN7lI48zw6PTzDpFfSjoFMA7hsIKCKsDrBQBHBJj/uk5EnyUpHiv2a+gBbssE+NwTMy8Pga3gUwAvIhGjhHH2bYJZE2BvuwpDnDDlvAJ+PYwedAAr1gATACa6SkJJNH8f+gzAGWnICGtZOkmaFbC7XYVAAM+lALzS3T6K+WJPDvBSKMBie9/fZ7sA4xAOMyZoAuwuqZrihKkOACdHogsAdjBGKzcxcxF8BuD0OcAhHEz5nCLA/nYVHgC4YIA112tLDnBfKsCCmQdrEXwC4Aw1UAAz3UaKAB8A2Gyj7lzk2t0AnLITqrljUgHgV8ddqZ/34Y3wm0mA09umOITj43H+QFdFgLvyZhsAGwN4cRKE6AEeogJ8mPrmnw0CjFMoycb76QUyqwHs78XuSKf3jaUAfJABfPhYegCYPWiaaEPnA9wXEKuFxvkHCvQq4BsANtyoK6QC7nmnTGP3o3SAf9qoEG5k7Z0xgHEIh0ZjyhzADl/sBsBFA6wahSYATLZTsAh/oq+2AF5KiNUyo3cM8FuR+Y6fRh0ANgXwQA3wFBXgTSeeiW8E5wKMQzhMVWRqAM8A2HadAIAzbhUA7ABg+SfAvxkCOH0LHIdwMLZStAD2+Fw7AA4HcEojVjUM9QCYbvHJ38gMj2LlApx+4d9ALd89NCsB7HFbP9IPyGylAHyQAewk2QbAFjfA6QXOBBiHcNgqyJQqYJfb+gC45ApYd8m21AA/wg6bvaxttgFweu6BQzg40zglgEcADIB9Abw5WXsA2GQJTC5wHsA4hINs0LCoBLDLrkYbKErtANgVwBUApowtGo9zEAucB3Cf/rFB7dl4aA9gn10NABwO4MnLmgXAtMm9Qgn8+K4PMA7hIBsZr3PZAbgDwB4adaiA/zR0fzvkSnxhm8IBVjlUZ1UHOKNqww8Rsm5IzhqL1WlXAwA7BPigqoBjARy4Au5o/aIc35QBzkm7cAwWaw9FpQIeS276e6oT0IL+z7jrNrxQAdMCrDMBX3UBfuebz9LG9eEXYK8nqwDgkgFWzhoBMDEY7yof7qYKcNa2JXrQnB0UDYC9XtGlwDAFgAGws3EjX0OUxUenCHDetiV60Jz3jwbAHQAGwO4AvukuvgkAE18onZNlyV5GygB44J3QkkbtGGC3L5YBYAAMgMMArPMcFtmj0OkA52Yc6EEztk9meYBHr5PeFxmmnAN8BAF4AMDUF6qZVD7fVy2Ac+MXetCM3RP5Ctjv5QTAJVfAXSiAA7+GNCqEUYVt4GSAr4KxIvroHQN8YNYBMABGBawPsNKT0JsOwH2BIZtpEN498gB3ABgAA2BUwAYAbgaVT/imAfAJNNCD5kvcxAF2/ONWfaFhKjDAgxuAe1qAUQH/M7TpbAN3CgCfQQM96Oy83RzANwAMgD0CPIcCGBWw5jbwpgDwGTTwk8Bsi2YWBthzN2MBwP4APgBwYQDftbqJsk3oRIDrUqO28UpMugJ+A8AA2E4F3APgwgHW6WsRnMabCPC53W70oLk6wtIAzwDYZZgCwAA45srWeRBrFQa40v64gcbiGOAVEw+AATAANrSydc7j6GQBPlvnz3A3I/jYA/gGgAEwAAbAjCP5rVWVR6E3UYCvRQdu2lE//AK8XQAwAAbABgCewgKcvrJVBL5JAnx6oxs96D8G7ZbFLArwCIDd1gkhn4IGwKiAf98hVZiNTRDgRgaKIgbxLyPIVsAzAAbAqIABsDGALz8UpuMmBzDBu1Yj6GVRQBTgFVMPgAEwADYHsIbAmxzAU/Gxm2xQP7InCnDne+5bAFwwwB0ADgywxj7wTQpgkseG0IP+x6gffgHeLgAYAANgEwAPAPi/opz4jGxSAJN8M/SgWe4bSYBHAAyAATAANgmwwokcNxmAaY4u3oDvhfwRLNGnoAmOXwPAADgR4CMIwAMAZgb4cvlV+JOuMgD3clSEHz31GhCsgN3/rHMogNdCAF4BMAB+dfwi/FE7CQp2NDDJRvNwDHDnffZrAFwwwLdYAPcA+IMh/DD0IQGwjS3rGKN2DPCG2QfAABgAW1ZNeCP4zK6c/AXsAPDkGOAbAMYesDWAFzfrdwLAMltdom3o0RPA6EFXD78A75h+VMCeAR5jAbwAYANt6M0TwOhBM8z5LAXwAYABsALARxCAHwBYKtI0gk9Dd44ALr4H3SjN6RUXDwDHrIDb1yfsHgvgFgBbKILfPAH8VjjA744BjnCUaFV2mALALpLv4gGmuFBiRfDuCeDSe9CTY4BvAeb/GilMoQJOZOhwsvZe/A/rsADTXCipkyk7RwAX3oOuHn4B3i8AGBWwPYATGFoBcDkV8O/jr5PN+1AR4KNogHvHAL8BYADsG2Dd/ltFDXAFgH/ah5Z4I2n3BPBesr884X+W+ctzhCvQAGB/AB8AGABn3/Ff7LZ1NQAuuge9qM3oeYCD/JozAI5WAScwpJv919QAXwHwS9P0xd6NqAhwyT3oyTHANwAMgAHwidEC4FfHSNx5ZCZ48wRwwT1opocmRACO8vj6BIDLBVh3G2WhBrgBwEYI7hwBHKWUyhiDY4BHAAyATQJ85Q+UNKOnBvgCgI0QPHoCuNgeNFfHSATgOchFGAKFqTsA9gTwQA7wBIBT4u8vbPO1egK42B70wjShswDA6wUAA2AlgA+yRqxq920yAPD626cfDv4xpfsNF8G7J4BL7UE3XPmXRAXcRbkKPQAOVgGnAKy6kfIgBzg9myz7GIa/j09f1GKwmWBU6CJgO7dGAOA4J4gC4GgAX1hnjDABpwc4fTGvl+LHD44m2OgpGBXagx4cAzyGuQpLIIBHxm/vCODJhz9XCwDj92B5CM5bWFrVQJE9aL6X9vgB3ucwl6FN/OrfPtkd6X2v0gHW9KeiBzg9myz6IEJGgvPmVQvgIvsgvWOAA20a1MnJ4txY/cdZ/zsCePDhT00PcAuArRDc2TIBq+DEDlDqeCUQX+VXVwyAx1CrMOJT0ElhzMfmB9difsR5nfB0PL78IH0oNitOqD2QUmAP+p1vNtkr4EgbR6kH2N8BsPUKuPfhT08PcFV0Ln16UP5Y4cq8JNCDFgs39gCOlC+lTkSsR/ZDArz4WMqDCYALrH2eDLr3grOKFDqAv6ERQn6rmAE41I7BtehcMSTAKTuho97cT/QAZ9zV4wXjz51ost8LziGNDuC5Rx6m1mzgBjhUEdhIZLYAWBLglJ3Qu4uFx7WYw22pUGTkX+SiMJsKR+rjAKX1oFl/t4Qb4C7UpSj6gcHiAdYLPFcGgDN+jQEncfzPoHkgOqe10NMRkCpMYT3od06AZ+LbP/Ytm7rrA4DVL8RPWjAp2zt6DY2KY82lb2HiJI4PBsVWcE6fkArgNf3/Gsu6whMnwMwV8C3WpRgYZhcAa1bAKWtbr6HRcgCcXrvhReAPO5Tn+9A5mQ0VwLdL8lNGZXVCOB/B4gY42h07lJx/hAQ4qfum1nrrOQDOiOCF9R5fHadfSdqZ18TP7EcPmjRRtQPwW7Br0QPgYABfXFzOgQPghSdaoAiWeQyaCOBbzn9WUg/6+nAMcLRMKTVm3QGwdYAnD3Fn4gC4zY3WGORFcMbE0gC8Z7VZS3oYYHEMcLi9grrkCYgJcEpxqfVOXdINyLaY8R7S0yL4VKcyI7WjAfhffzj19+YL6kFPvADP1Pd/6IQ5NWaFyhRDPgWdBLDW5axYAK6QUZOOX2UfgyYB+I+fqkMPmi5NNVMBx2tUpMasUA+hxayAeweXs2UB+Io7mjg65BdLGZkNCcBHZmQrZyEMjgGOlyYlz0SkVk1MgFvqu4Vh9CwAZ5zE8bhgPAsP2QJvzIvib+ydzXajPhLFAeO9E4c9Sf/Z04nZEzvet7/e/1VmuufMmenTnZj6uCWpJD2AMVLp/qquCrivT5M+N7JU/JgAPLtbjhYxvQXAIQFMspj6BLJwxCSWNuiF+sCul8IA+MT+uVw86CMawEsgWYtX182gataYZSymBGCS9/YjgbQP6q71VRkQAtOLlU63/Coe9F/Xc0IDGFgBe8yWqfvL07cofAK4jj+nbEAAZkj4tSpDPavhZTYKAD4Laos8vBB0CxYSwOeyvXy5AD67oEnBfUlABaD2WunCAhE4CIB7QTTsymJGDuDR44IcMxYsnxUwrRVpDjHxHQjAjPS+vA0aJNojOCrui1PxoKXeU1xnwJfZ44qsEfNbABwSwBO2UDFXdKy85OE8igbr3JDu7csBPAo2Qh6R0OEBDKuAfZ4WrTIWLKcAHmKPamLr/fIf5uzrvirj7rwyCEw/qxLD4SJz9zJoB2hvCQPYZ4LUCLPMAuDoAEwSsnP8MUf45aq8/HUAACAASURBVJJXY8be4nBdDOCdTOYz8KAPCQPY6fLUGQuWUwCvUXjTGmsYgKeyrzFjmwKAZ2E4+PegJwMAz8WqIo2MBctnFzTxVCGA6gwwAHPahQpdl3iX5JmlbxkpgK+CDZ6HGWLQggWrgN12S075CpbTCpi2zcboQw6yoqULizbe8YlNp678ddF4XY8hIIDdZkdDvoLlFMC06LZ/sLvGKfmaIRhjVQZCvGf4Fe4HcvGgf7MxbgkD2O3aHPMVLKcAriJP+1c4ADdKwl3Gn+o9oRVTCOBenpA596APJgBeknjVZZfyiwY/U+EVwEPcqWWHAzCnuaO8igMj38YAPivEg/NQmEwAjKmAe7er0qhEegFwRACmKdkYuw5QfhulGGWQS2CyZMoA3Cvkor4fCjdpwQIB2HFqRE9GZi+37rQLmniqcIpdByg/zmmDHqsyACWwLYAvKv/ZtQc9JAxgxy/qbpVyzQLgaCrgVdTJ5QoJYI6Il0NgiFKQ8xoRgEcVpffsQdc2/MWcAc+OF4Z8MuAmTfQK4CbqhGpAApjzHFJ5EhhCSFMAf/qi/uJBi7ZGJBWw6xyZLIjn/EIyLQDXMSdULZSPrM+d9lUZSwYtsfthCeCrUkD4VXrWFzViAbDrHUrPjObs7jwtABNNjXPEKk4FcPnMSjRmGXlWJQCelQLCrwe9uqULYN+vi11lWzG4BfAQcUJ1hAKY9a6B8jpoBCItAXxS2wtua63BCsBL1IQI4LEYSy4rBq9d0FQpM43vCQpg3rOOm6oM9VzdEsAbtfrCqwdt1YIFqYBn17uKvjRefBq3FfA6XtFhCAFexX1n2HqjhUYVH8BnPU/k4lTsu4QB7P2IKNuKwS2AqabGHOOc8wB81BbwMpj+giGAe0Xv1acH3d4SBrB3g2rItWJwC+CImwwHMIB5r/uZqzK0GWkH4LOeb+7Vg17ZAXjJXqpLeiwKfCdB6hbAVbTryTmKgl+geNBLxzpKAI+qxZ/LZGywA7B6BTyWXeU0SP0CmLjf7A71V2gAs94GXV6GBfAXyIULF8AX3d8dM1+32ADs9VRetDq9ixt32wVN1jKz9RzgAObl+sWDVvcXzAB87z3BxYM2bMHSB/C17CqvQeq3Al5Fup4sgxi1qI7Lnga0oG2MAJ4V/7TPZMywBUv/DHhTuR8TeZJ9PIjkF8BUU8PK5lnhAcxrN/HV6FFPqICNEMBX7R/250EfLAGsXAHn8IQCw7Vz4UH7BXAb6XoOeADXONlIh7+w+5niA/D9O21yTsZ4FVY8AO4r/+OISDsLgAMCmLzlbDxoHhxN7DZHHxz9yV9UGRcfgE/6IeHNg7ZswdIGsOcPREpcOxfz4hjAZDGb45pwPoCZXVh+yp7/fPYGdD8DMKfjAbjX/2VvHnRnCuAlSrIcwFl8KKUGxX0BMALAV91bsxSdyQLAPMq7sbraAZlRDcCUpoMlTnl70LUpf5UrYG9uxN8HxvkpAA5XATcQIQtjheH9nAAB/QDmLyijiq4CXpQ3Ub+Fu6k8jWPCAM7kAX2OazfnFJnJAbjGKFkQK8wo4TcN6Bol8gNWumID8AXy07486ClhAPdVFoMT+g6C1DGA6bsOn2tyyWgkODvbHQeZ77YDJxSxAXihCuXsQdu2YOmeAWfRgsV07cyCFCeMngFMVjP8o8AHIwDzurBMN3sD8jm36Ax5igvAi4M2Yw96MAawZgXs6NkE/drEKEgPODJ4BvA6PktjMgLwmnmd3lYUASXwFm5pENaQ3L/KAPAV9Ntj5toeC4DnKo/BenbSpkG8nXC7wXEXNMN4Qt8j2wqzupCd8XjAqMsWr163uAA8g2LCkQd9TBjA+XwjhWNT2Ly+8AAkg+cKmJFT9fHFGAvALVI6lJJKRAZ7MCjjCLP5Aw/gE2J/+fKgqQ3gUZ0B91Uug5UmWfg0LXIdPAOYYfhi036+FWaGequEu4NksHuD9WzjAvAGpnBu3v+wsuavYgWcw2ugJa7d2UqrUBdyDeDuhtQzNnUsAHxEaofiZlNtMdlb3E6NzM87pADl6kEPCQN4rLIZvPKkt/pfoAu5BjAj9T1FF2E8ALOz/pOtJmqWwI1JGdcg1aGD6k+eHrR5C5YigK0+0RbFmOLUqwF6IdcArkF7Bz7XcgDXUPGQjgMixa9tonYVE4DPyAB04kF39gCetXZoPi1Y7IVC69UKeyHPXdCRvV9U8klwo3TSaM/XiLCqJxuLao0UB6oGjex5j2LHW4zWnr96FbATEwLp2oH16n8dfJgLua6AWac/sJg/mgK4g6qHkgGtWAJ/wl/9k8wuIgBfYDvMj/yvEgZwRi1YVaSfMe/AxwG+AbxmrOf3GDNxS92Bl8AHgMh8/qiJ9v6kJHUzf7svGjvYbvfjQQ8JA3isshoR6lWD3g6+AdxElFEdbQEsaD3psctcAy7XDmYUmZDLRgTwjA0KDx50E4C/WmfAWbVg8XMlYAn8W14PWQ7fAK7iyahkvZhgUFgaX3/UqgqXawfNMlTNyKBvGRqAr2iJ69MX9S4EgJUqYDdPYgMNS2wJvIUbEs4BPESTUXXWABZU3KOtIsplftD0afUqqjM4SjbooEifACFasNQAvKnyGg1wujX+EAKBvrugeTkVogIUPoxo670hra89IIMdDAN3BU3NO3Dmn50HfUgYwHm1YHENS+BE/WHWARwh5xUwj0KAeR7MASzJ/XGVTw3IYLeWBX0HncYOHaa5edBTEADP3J3g7QDASCVBM9UZkN45gHk5lf6tSltBrJmPMnX+3qwsK4G3pstJUfQfUACz1IBYEab+IoggLVhKFbCPx7BJg3kIDCqB9xak9w5gHoW0P4It/h4LdmntTJ1Bn/fb+3ejWAKTfAX6dSkAZolBZh50lzCAd1V2g31QtzP6M/oJqXcAM3OqWffOxCdR5tk/Zvdv9S3vg23okh6v7pHAYN5UVh50fUsYwJsqu8EuVC4bo/+ifh3vAGZuwVNkOgB3S022/0E/4dkbt3UfsXNIADDznlYhN4L1OAYC8KwgClm9BlrsWJyM/so1XIgm2QXNppBq5j+EAbDIfwOY0Hv9gnu/MHZn+xi9YV8gyr0lqgc9p6znUyAAa1TAaXsPFgYTdLq2Nt6o+wqYSyFN4VF4FMI4mn8O9Vdy1vrTvdhl3xncg8aO6RA5aLYedKAWLBUAZ9iCJfIKlTPFvdXZnHsAcyl0iiCohAAWvoRAWXrrSZ2Qjfn2JLUUMEyE5QBm31BGHvSQMIDHKsvB9yxUA7U2s4TcA5hNoX9ikoEQV9ZtbPiav6zoqifz7TmAJaEDwp25IdL1oEO1YKmcASdt/VvwCFmbfqUsY6gbThTAbApp8UflXTzm0fxL5GebkGbGNYW/Sk1lNEn/ESWA8/Ggj8EALK+As2zBEp4abEzE6hIqSFMFMHsbnoNHlBTA0hJA0Yaf1MOLxl+d1Tyi0WUB4Fw8aPHD9yEBnG7aI1y0CAqGO4GjuzTuu6AFBPwejwqYn6joNmItgSUxrluqs7EzjVBmRm4B4Fw86NUtXQDn9xpo8g6A5Yr3lEV3bfxXwAIKKRwDK/WBhDLhdA7CG32kkPmrcaTQwMllAWCqxo2JSvkQDsBLVr4uLVjqaZNGkn1fWTaa95sBgPk5lVyzt7egAJb73xoEXviwbq+6SxCZKy2SLsgrnO00LlEPOlwLlrwCTvvp62AetIZcLTDrVDdEBgAO+F0+tY+h2XimmJDeApjCqm52tpLO2acmAM7Dg+4SBnD632EOZVxIS6ZFnSWaJXAGAA53rq/3IgD88qIITKhVF8f1zBNXqaFBvOoVeYmz4Y0k6Ye2t4QBvKnyHetbQAI3E2pnZwxgUU4lETrFF/GE/AsiAr8TavDFq7oNkk5RPU0Ot2wA3NjtgWBjFRLAsyyc8m3Bkh8diLLsR3tPKE0AX+324ivWzQADWOVtuM/4iKZlr+w9Kjq9oZbdG+Q1RBqdgwc9hASwsAJO0nIIgAFtAn+zbPbKqAKWuVFc0dbk781gfb8Y3KeR6gE01eypFVTztcWa2QA4Aw+6uaUL4DxfA60mWVwCE9TqEuJu0wWwMBvm4UeVv7fAQnTmxHT7SL7ODN+jvVlJxUKkEYD9e9BdwgDOuQWr0mhfZ6XZj2FS0iwALDwP4hwdKmfgwQyd/y4+Pab3jCtf4bPLNqgOqHsJAWDq62E2qYl40BYs6Rnwpsp7yCWLXjMRzTq9lDQLAEtzKjqB97dYAHxU+gevtDl4H2DKJdNX5pNldEODlSQbAdi9B30IC2BRBZx1C5aSZBEVm27W9fY3mzCAxR0Z1Lppe4sGwGrvI6AUwQ/fmBfZYQAi9TM4EbSBglGo0t496ClhAPdV5qM2VqvqkR4uajsiTQBT7T35MwmU9WyHWzwAVmwHPT8tTCf58re0PpUsKIfAjIyKxXkrAFMJlZgrGrYFSwbgzFuw1CRrqWXX7ifUEpcKWPFI6PtiQX2fbjEBWPOByNf7CGYXvySzU7SgJicKPEKaAZho8+3SUvAuMICXBFjtY6oj9aB/Aut5wTKwq4WT+b2mDGCNnOqysP7bIna0YFZ1+1G+jOr3x2/i37dYUCqBOZ7YNW4Au/ag68D8FVXAcwFwbSFWP6VRUi1sCoCty8AlpgbPz0ACWL0ceHt++m0i2rb9eH94fHlT+fXRYkFpj1Wxnijr4wawaw/6mDCAT4W/isdml5cnVLWwKwA2LwPvmhrv30A7OrYDsbfXl+fn58fHFyXskskiXNCFdgafv0xi2QGYCKmknk2dEgZwX/Cre2x2eXn4P9VuPz4+HnSqhbkA2L4M/NqB/Qbb0WnrEaJ0lCbJi9+v2bCmj7lb7ADcmNxPkNEEj2H+GXBpwdI/Nvv3rL69/BpvmlK4yxjA14Cb8hNTo30cgDs6bUcOUQKLk+SFXZKPvF8/xQ5gxx70EDyG+RXwWOiLODZDjEvGAD7B9Wa5qaFxnoAFcJ0UgBeWwPIkecmjgi13XcfoAezWg44g3PkAngt84zAxcHs8UwArl4FvLy8PDw8fT7/OE/Aeb+olAaB4VEiS7z7YzG+p20QPYCKn0vFGjwkDuLRgJXRsdi4A9lsGqgK4SetmN3Y39frVtQRn+tzNYghgqsb1iUh3G4F2s8+ANwW9CR2b9QXAbstAVQAn1oZ1shTaT98tInqjyCkBADv1oFcRRDC3Aj4X8qZUL50LgBPbmKEAfEjrbje6sLoX2H+21bXvLzK8jwkA2KkHPSQM4LGQV3t3RyBUDgHMycbbjAGc2L0vW15NY/315eHp4+PnQ4I6rxT5F3tns5g6rgRhk/gBIIn3Bg57ws/eCWF/wfD+rzIkd2bOmZnkxAK1ukqqWmQbZEv9qatbckcA4FBUcXjQozMvgPtO4KUqmx1KBfDBNLjlB2C2sXeR5wuNN5UUwPvk0aaUzOnKGvBJ3CUrm3UCcGZlBSMAk419WCS6J//93gDO0YPG8HquzIDHwi5Z2ewkAJNVh5wATDb2YV4crrHeUgA4Rw/6nhjAasGiK5vdXjQoCcD3BQOY7CTSJi6uUi/LigPAgQuCwYPeEgO4FXXpymZLAThgT7UtF8BsKTD1ruJAAuBQD7qDD9ogM+KqGrCugSYsm/VlAvhkPdj8AEx2EmkZecZwONCJAZyfBw2SNV2VAasFizFnWBYJ4CtTjFHBACa7jKNn3lV0LADOzYNGqRteBeCxkEtYNjsKwLmVFYwATJYCt0wBNxqnEgM49Pmhe9A7YgDrGmjOFLgVgDPbUxkBmKwCvuTdUS1pAJybB40yxa+pAbcCLmXOcBKAc9tT2QCYKwUeCBjIokLHA+C8PGiY/fUVGbBasEjLZsqAS0iBo/iNTClwy7ujuoVSqQGclwfdEAN4I9xS5gxl1oBPCf6H/atLDGCmFHjwtAY8270kAnAos5bI4RrHDrkCwJ1wS5kztEUC+PokAyhgL1MDmCgFbhl3VBFCaXIA5+RB76mmwIjJ3FcKbLUOSwMwUMDuUgOYJwU+Uu6oIoTS5ADOyYPGWdrhGXAr2FLmDK0AzAqhQ5UcwDQpcEs8ppYKwBl50EBbsWAA6xpozpzh9vdWHIBhAvY4PYBZbsM+2MzgJOorLgDfp444ZloQA3gp1FLmDK0AzLqnukSy9AAmuQ5rHLREsX77iQzAVeD4YD1opBNpwTXgTqhlTIEjrEJOAN8S5UD2VK0LgCmOYR2spjDc5gEBwLl40HuySTCK1TegFJh0sReaAWPsqfrKBcAMN5GEfnQHKgU+VmwAvks6wDICdSiAxwItY9ksxr6pQABDLNWNE4AJvkexMaMWflHIAcChy2GsOB0bwGrB4swZxgIwawr8keV5ABj/exQ986air+gAnIkHDRWmA2vAS1GWsWwW5fKyEgEM0Ir0UcR2AXCNDuCWeVOxIQRwFh40lrMTlgGH1lyUAlOWygRgILuqcwMw+sm6A/WmoiMEcBYedEMM4JMYy1g2i+NbcAL41im7gKCMD4DBjyKNbWcx3u7BHcCh8PofYIyuz8QAHouxhGWzSCuwyAzYvaww9gQw9FGk6zxclBbYMSWAM/CgwVplg2rAasFiWd63lsoEYJA91Z8/3wnAyH1Y1wajHfWvdwZwqCcCmLGBReigDLgVYQnLZrGObhcK4BHC+vQCMPDZ9pZ6SC0pgAMdfLyaJZqpEwLgPtEzql8ms9l8vV6ft+fL39VqNpm8sRB4gRaoojXOFQpg1yzwr1/vBWDcPizuz0xGgKIPgAP51cPF54YYwCm2My8P8/Xnr3I9m3QEAIbrw9pUAjBtFjj2BnCOjf0AQ2pZAczuQcMdrQupAVs/zPph/s3rXc+e4AkMtsWKt/w4ARxh1+iXMv394/0ADGpC30KwuywWpROAyT1oOEcnIAM+WNN3WHCHZ/CW7gUrA8ZMmX6meX4AxjShD2nYBZwAewE40OHrFZyjAbg1fC4v85CXOoX2oqHK/JtKAKYtK/x8eY4ARjShb+xr8M7qoyDRCcChCGsVmyMB2C6q1g/BC2KFnAYDmdAxF1+5AHbKAn/BjCeAAU3olvJ9xoWSF4CpPegGbioPrwFvcPALjmCgiDUWgHnf6LKCAHD1iha0nrmz+kPFDGBmDxrwpsLhGXBnhN/rsztYBMMYHVE3TQUD2OWN/ho4XQGcYV/hHXrMxQUwswe9JwbwwQa/N6UWqzEogZtsIhU9gE+0b7SFATBYGTjGqnc0oVPPyKMvxYA8aMSO/sEAttjIvN78QFYdJIDrRTaRShmw09r9xw93BjCUdfeDOxbHuhjHDcC8HvQ9Hn8H14ANroEezWNM5ykkgUfZRCoB2Me0/GecdgYwUhn4wPk+o5eF3AAc6ofgeNALQAAPzYCX0Z/GQ6QRHCF96F02kUoA/r8ePeO0N4BTj/43y71LDTDQspAfgHe+cSgPHycUwLGt3lHE3QhkEuxeBu47ATjm8k9bVvhX1HQHMEhR5dyPHeYQZFnID8CsHvSeGMCxdzEPcaMVYCXYveA/rgTgqPvvkePbcwcwSgNLW3G+z7/0XPEDmNSDxrxUdWANOG40r+eRR9H/wCOws+ER/9g2J4AjNmHu/N6eP4AxDLznmCNyKBNFtKUcARzYzATiQSO2YA3NgCNfJ7oFX5lx5HrW0GDSl54BJywr/Ge9AQAYoREr8qxOb6u3VQ4ADt2LYRiUC2IAL/EXMqAN7di4YvE0BOBkhdAxIoD9G7Fiz+rkpmTMNMERwJQe9N2ZF8Ax+3lqq2UcsT2DLmNK8iwE4FQ27H/LBxAA9iZw/Fl9R7yB8AQwowfdYAJ4UA04Yh3NMomAKwS7tY6abDkF4EQR+5OfjAFg31Zoi11l2jLwuMoEwLUBZaxjMSZ/h2XA8SaORfn3p+DOIzk13tnsRATgNEngZ34TBoB962gmu8qUedGmygXAofNg6R+K74kBXJPwF7AVa+RBYKOnwAngEx2CPgMNCoAdc+Af7AOKvBV0BTCfB70lBjCRgXdAI/BL+ldq9QyUASeJ2J/mSSgAjnqBjmP66LBFjt1B5gpgOg8atAUr7ZN5JZzmfG/+WAnAltsR44j9+euDAbBXVeWZfYFGr2C7AjjUunf3oBtUAI/z4q8IbDd+ATgBgb84cIADYB8CP9PHpbbKCsCBHvTROQijtmClBPArPYHAB249egHYvqzwVZ4EBGCPOrBtb0eKVuj4FWxfAJN50DsB+DUHBsET2HLsArC9qfFVnoQE4PQEtu6tfGQcgS+AyTzoLSyAu/wgVDCBTUfOCeAT0wv9Mk+CAnBqAtufbXgkHIEzgKk8aNgWrGQZcNonsAIDcHW3zWDnoQzYmsBfx2ksAKe9EyvB/Tr1I188cgZwhQmaz7UoHcCpdyBwBE5y2ME48xeAjQn8XNEAOCGB09xvN7dcl74esBGAiTzo0blwAKe/jgLvRo4FO38FYGMCH+KkG3mVVVJ9aNQwB145A9AIwHcIu5DYkSvPGrDHdVCbCkzmdbNnnGlcAoCjE+gQye/LytRJ+IWVR7J16Q3g0ONofh6009F1mMfic30d3JcZjF07+5xfALYk0CpWwS2fLWXidspHrnXpDeBQD9ovJbo/lw3gRbYjA3LtEuw3OAF8svsRMQn8TZxGBHBVPeRVSLJYn3bfh3EHMI0HvSgbwF4fEQX8PrCZa9c/QVVSysiAY+aA36EGE8DVi6m5l9zEin9YwXAI7gAOPVzrFY+RW7AS1ID97iCBOw58idg2zZbHJHNbADbbXX6b6oEC2GpCe22gI7dKmg7BH8CBHvTJKejuoQFsPcs9j0DDfRrp3eYyyBme0SZyOQCOY1t+nyehAthmQn9Mapftc9Rm6JXpEPwBHBjbe5+IC92CZQ7gkevo4Vqh359I7Jwh1UENAdhohg/Jk3ABbJME9249lPHq2lPbH+oPYA4PGroFy/yhONe/W0ACR84ZbLfZArB50jSoUgIMYItKcLpJbWZDm5eFAAAcaO76eNALbADbzvRH59EBNmLF9blSZgqcAE6w6m/aUQ2rH0AD+JI2RkVw73yEMEYSPDX/lQAAZvCg77D5a5sBv7oPz/s7lMY+dNJMQRlwfBd2aPs6OICrOuKJpGnnvjxvzZpWCTb+AAAO9aA9DMmmYAD7FoCTNiiF23YRnJHjU9KfLABHd2EHdxqth8vJ1YlVCk7BLmNTI826RAAwvgddnwsGMIT73laQqm8uBffTxD9ZAI7swvZPVU4aRciCVyiP5PqUfp1oCAgADjxi6+BB79ABbGj3PEIMsO9gI9bL/Bb8Jh+XAPxNyN5ib6DwHgEsfq8fTLohIAAY34PeogPYLgNGqX4fgSPWtQjuPepkAnDEkN37nHM112SeB36vQnA/TeifQwAY3YNGb8EyBDDO+ecNcsCqH8Ij1mri8lM5AXxCDNm9f6OR4TNYs2wpo+4n+sQbCAgAo3vQTbkAxhk65lmkXyZxUMTqp16JgjLgYabGt7/tmDF+/5zRgbvKGW41fNgOeZ1+VUIAOLTPJ7EHPYLnr1kNGCn3P8JHrHoyH4SU3jNSCcAxXmY/y6v16suHMBu4rcR/IL8dS7+eTZ88NlQYAA70oA+oISu3DBjrAs4NQ8h6uyzz7W8trumb6w8UgAPy4IfPIHx5hUXQ929wPcx/T+ELvN5IxvIymc3W64/hrNer2Ww6m04nkzc/LwMDwNge9LZYADdFjNKAwu/rfL5eb/vzz8lzWe/Tib9ruQM6iwpaA/7Xjurh41Ve3uTlkVxe4VtVot4fwzu61r/M6EveuJpNnrpKIgcwtAeN34JlhSa0kR8pl1j9dlGtUPNZVB8sBXkkdR+vRO8k5RKwfdr1W5CSvvoFAYBNHgjeF6A2WrCSJEnliKAFyygDbgrZaEiSJEmQ2pcKYMSdx0HzUZIkqRTh+bCpAAxpvbeakZIkSYXonoG/FtYs5v3XwHdCS5IkSfnngQkyYNTMX31YkiRJZYiiBcsCwE05Q5UkSZIA1RQKYNzDz+rDkiRJKkE1B3/j14CBnfdW01KSJCl/3Z/LzICRx33UtJQkScpfizIBjH32aql5KUmSlLvuzmUCeAc9WB1FkiRJyl4NC4DjIgm98q2jSJIkSZmLpQUrdgbclLXfkCRJktC0KxPA+GefT5qbkiRJWWtbJoCb0jJ+SZIkCUs0LVhxPVmGy790G4ckSVLOas5FZsBNcSm/JEmSBKXRuUgAcwxbKbAkSVK+2pcJ4EV5Ob8kSZIEpS0RgLtoo2YpfCsFliRJylVELVgx88GmwKRfkiRJQtKiSADzFL6VAkuSJOUpphasiAAutPNbkiRJgtGeCsBdgdsOpcCSJEk5CvuDfGbZYFNk2i9JkiTh6P5cIoC5fHd9FEmSJClDLYoEMJfvro8iSZIk5SeuVDAWimqyUSsFliRJyk7NucQMeEc26l4TVZIkKTOxpYKRALxlG/ZSU1WSJCkv3RcJYLpRn4+aqpIkSXlpwUairshRn8+t5qokSVJOujuXmAHzjVqXcUiSJGWmpkgAN4QA1mUckiRJOakukkM1I3/PJ01XSZKkfLTj41B3+6j3lADuO81XSZKkbLQtMgPeUgJYJ5EkSZLyEWMz0rjIUeskkiRJUlZqigTwghTAasOSJEnKRSNGCnVFjlonkSRJknLSvsg0cE8LYLVhSZIkZaJtkQDe0gJYbViSJEl5iLMZaVzkqNWGJUmSlJE4m5G6G0fdEANYbViSJEk5aFQkg0bM/NVtWJIkSTloXySAd9QA7jVt/2DvbnbjtqEAjFo/3k+BaD8b7WdR7hUMtHea6v1fpUgKpEnjheTEI/Lec+AXkMDBZ1IiBdC8saQM8Nx0gH2UEKB9Q6MJWn7pqttegbYVGCCAVqeCvzYDXhsP8O/4FgUAZ2p2KvhrAS6tB/hm6AK0bUoZ4L71/toKDNC4Meca7NR8gG0FBmjbkDJAY/v9tQYN0LY5ZYD7AAG2uwzjPgAAC/hJREFUBg3Qsj7nEmyAFWhr0ABNa7hEy9uvOsIKtOMoAVo25pwADiECbA0aoF33nAEOsQJtDRqgYSVlfmKsQG/bnwYwQKOafhl4efNlD0ECbA0aoFVTzgXYICvQ1qABWtXlrE+UFWhncQC0as0Z4D5MgK1BA7SpNF2f5a2XHWYF2jcJAdrU+LtIb54BlzgBvhnFAA2acwY4zgr0tn0yigHa0205A7wGCrA1aIAGrUnbUyIF+GocA7RmLDlnwF2k/vogA0B7mj8O6pL0un/w2UAGaM2cNMBzqAA7DAugNe2vxC5vuu4xVn+3F0MZoC1T0rlfHyzADsMCaMuYdfF1DRZgG5EA2jJkDXCJFuCrwQzQkpJ06tdF66/DsACaEuFJ6JtmwEO4ANuIBNCSKWuAp3ABthEJoCFj2vCUeAG+Gc8Azbhnff23j9dfD4EBGlKyzoCHgAH2EBigGTHmgW8J8BwwwB4CAzRjStudiP31EBigFUH2wi5Zp/4eAgM0ak278vocMsAeAgM0oqQNcMhHwB4CAzRiyJudmP31EBigDVGmgcvhK++DBthDYIAWdHkXXoegAfYQGKAFa94AT0ED7CEwQAPGkrc6JWqAb8Y1QPXiLMMuRy+9i9pfD4EBGhBnJ87hGfAQNsB/GdcAtQs0Czwc4LCPgN/2ZSgAHmlKHOA5boCvRjZA3cbEs74xbn+3vw1tgLrdE++96QMH2ENggMqVxAF+DhxgR3EA1C3UJPBogAO/g+UoDoDKhWrQknj27ygOgKaMmSd9XeT+egsLoGr3zAHuQwfYW1gANSuZA7yGDvBmdAPUK9gccDl29XPsAF+Mb4BqzamTU2IH+GZ8A9SqSz3ni/0OlrewACq2pg5wHzzA3sICqFa0Ndgl9b8f3sICaEW4r+EemwFP0QN8McQB6jTnLk6JHuCrIQ5QpS73lG+M3t/txRgHqFK8Z6DLkcvvwwf4kzEOUKOx5J4BD+ED7IuEAFUKGKBDAQ7/EvTxr0MB8Ahz8gDP8QN8NcoB6tNnn/GV+AG+GeYA9Ym4C/bIDLiL31+HUQJUKOQmnCMB7hME2GGUAPW5Zw/wkCDAXoMGqE/IJ6DLgRswJQiw16ABqhNzAfbIDHjOEOCLkQ5QmSl9b0qGAN+MdIC6jOknfGOG/noNGqA295i9WfbfgT5FgJ0GDVCZkn4GPKQIsH1IAHWJOv07EOA1RYA3Yx2gKrMATzkCfDHYASoS9hTGxf8g/3M12gEqsprvPeXor31IADUZiwCPSQJsHxJAReK+ALw/wH2SANuHBFCRuI8/F/+E2IcEUK3AH8LdPwN+ThJg+5AA6jEJcJpdSL6HBFCPyK8f7Q/wnCXAFyMeoBKD6d5Tkm8h2YcEUJPZdO8pzTbgbXsx4gHqEHr/ze4Ad2kCbCMwQCUmAX7Ksw3YRmCAWsQ+AWrZexuGNAG2ERigDnev/H6RZhvw9tmYB6hCEeAv0mwDthEYoA7Bn30KsI3AAHWazPa+mvME+GrUA5yvM9v7V8kT4JthD3C+VYC/GvP0d3sx7AHOVwQ4xUqAkzgA6hL++InFjXASB0CFwr96tHcGnCnATuIAOF38hde9AR4SBdhJHACnWwU4zZ34joEPcLIx/t6bZeetmDIFeDH0Ac6VYN117ww4VYAvhj7AuWatSXQr/nM19AFO1ZnsfVMEGIBHybDsuuy8F5n66yxKgHOlOH3x4l787MXgBzjTIMDfdKkC7CxKgFPNApw0wM6iBDhTjsMXFzfjZ86iBDhTjp2vO2fAgwAD8BhJXjsS4Fc4DBrgRHcB/s5zqgA7DBrgRElOnlj23Y1VgAF4iCxvHe2cAU+5Arz4AQCcZRLgxAG++AEAnKSTmh/MuQJ89QsAOEmaZ56LAAswQEWKGXDO+yHAAKfKc/CTAL/m5icAcI5ZgH+Uq7/bi58AwCkSfXpg2XVDRgEG4AESHTuxbwbcJQuw7xECnGIsAizAADxcpi8PCPBrfBAY4BSZNr0uu+5IL8AAvLtU0719M+BsAfZBYIAzTAIswAA8XK4tN/sCPAgwAO8tV2wW9+QVn/0MAB5vNgMWYD8DgIdL9rhzX4CfBRiAdzYJsABvfgcAj5bt1ONl111ZBRiA93XfzIAFWIABHq4IsADvXRgA4LfJduLEzgBPAgzAu1Iat0WAAR4v21d/zIAFGKAKqwAL8P7bAsDvUjZTPQEWYIBHGz98+ONjrr99Af6Y7K7svC0AAAAAAAAAAAAAAAAAAAAAAAAAAAAAAAAAAAAAAAAAAAAAAAAAAAAAAAAAAAAAAAAAAAAAAAAAAAAAAAAAAAAAAAAAAAAAAAAAAAAAAAAAAAAAAAAAAAAAAAAAAAAAAAAAAAAAAAAAAAAAAAAAAAAAAAAAAAAAAAAAAAAAAAAAAAAAAADAP+zBgQAAAAAAkP9rI6iqqqqqqqqqqqqqqqqqqqqqqqqqqqqqqqqqqqqqqqqqqqqqqqqqqqqqqqqqqqqqqqqqqqqqqqqqqqqqqqqqqqqqqqqqqqqqqqqqqqqqqqqqqqqqqqqqqqqqqqqqqqqqqqqqqqqqqqqqqqqqqqqqqqqqqqqqqqqqqqqqqqqqqqqqqqqqqqqqqqqqqqqqqqqqqqqqqqqqqqqqqqqqqqqqqqqqqqqqqqqqqqqqqqqqqqqqqqqqqqqqqqqqqqqqqqqqqqqqqqqqqqqqqqqqqqqqqqqqqqqqqqqqqqqqqqqqqqqqqqqqqqqqqqqqqqqqqqqqqqqqqqqqqqqqqqqqqqqqqqqqqqqqqqqqqqqqqqqqqqqqqqqqqqqqqqqqqqqqqqqqqqqqqqqqqqqqqqqqqqqqqqqqqqqqqqqqqqqqqqqqqqqqqqqqqqqqqqqqqqqqqqqqqqqqqqqqqqqqqqqqqqqqqqqqqqqqqqqqqqqqqqqqqqqqqqqqqqqqqqqqqqqqqqqqqqqqqqqqqqqqqqqqqqqqqqqqqqqqqqqqqqqqqqqqqqqqqqqqqqqqqqqqqqqqqqqqqqqqqqqqqqqqqqqqqqqqqqqqqqqqqqqqqqqqqqqqqqqqqqqqqqqqqqqqqqqqqqqqqqqqqqqqqqqqqqqqqqqqqqqqqqqqqqqqqqqqqqqqqqqqsAcHAgAAAABA/q+NoKqqqqqqqqqqqqqqqqqqqqqqqqqqqqqqqqqqqqqqqqqqqqqqqqqqqqqqqqqqqqqqqqqqqqqqqqqqqqqqqqqqqqqqqqqqqqqqqqqqqqqqqqqqqqqqqqqqqqqqqqqqqqqqqqqqqqqqqqqqqqqqqqqqqqqqqqqqqqqqqqqqqqqqqqqqqqqqqqqqqqqqqqqqqqqqqqqqqqqqqqqqqqqqqqqqqqqqqqqqqqqqqqqqqqqqqqqqqqqqqqqqqqqqqqqqqqqqqqqqqqqqqqqqqqqqqqqqqqqqqqqqqqqqqqqqqqqqqqqqqqqqqqqqqqqqqqqqqqqqqqqqqqqqqqqqqqqqqqqqqqqqqqqqqqqqqqqqqqqqqqqqqqqqqqqqqqqqqqqqqqqqqqqqqqqqqqqqqqqqqqqqqqqqqqqqqqqqqqqqqqqqqqqqqqqqqqqqqqqqqqqqqqqqqqqqqqqqqqqqqqqqqqqqqqqqqqqqqqqqqqqqqqqqqqqqqqqqqqqqqqqqqqqqqqqqqqqqqqqqqqqqqqqqqqqqqqqqqqqqqqqqqqqqqqqqqqqqqqqqqqqqqqqqqqqqqqqqqqqqqqqqqqqqqqqqqqqqqqqqqqqqqqqqqqqqqqqqqqqqqqqqqqqqqqqqqqqqqqqqqqqqqqqqqqqqqqqqqqqqqqqqqqqqqqqqqqqqqqqqqqrSHhwSAAAAAAj6/9oVNgAAAAAAAAAAAAAAAAAAAAAAAAAAAAAAAAAAAAAAAAAAAAAAAAAAAAAAAAAAAAAAAAAAAAAAAAAAAAAAAAAAAAAAAAAAAAAAAAAAAAAAAAAAAAAAAAAAAAAAAAAAAAAAAAAAAAAAAAAAAAAAAAAAAAAAAAAAAAAAAAAAAAAAAAAAAAAAAAAAAAAAAAAAAAAAAAAAAAAAAAAAAAAAAAAAAAAAAAAAAAAAAAAAAAAAAAAAAAAAAAAAAAAAAAAAAAAAAAAAAF4BG7DWjKHH1GkAAAAASUVORK5CYII=;" parent="1" vertex="1">
                    <mxGeometry x="110" y="270" width="88.74" height="50" as="geometry"/>
                </mxCell>
                <mxCell id="me_X3TQdLvSyZ-2hOkaQ-13" style="edgeStyle=orthogonalEdgeStyle;rounded=0;orthogonalLoop=1;jettySize=auto;html=1;entryX=0;entryY=0.5;entryDx=0;entryDy=0;entryPerimeter=0;strokeColor=#080808;" parent="1" source="me_X3TQdLvSyZ-2hOkaQ-7" target="me_X3TQdLvSyZ-2hOkaQ-3" edge="1">
                    <mxGeometry relative="1" as="geometry"/>
                </mxCell>
                <mxCell id="me_X3TQdLvSyZ-2hOkaQ-7" value="" style="shape=image;imageAspect=0;aspect=fixed;verticalLabelPosition=bottom;verticalAlign=top;image=data:image/png,iVBORw0KGgoAAAANSUhEUgAAC7gAAAfQCAMAAABlzOIIAAAABGdBTUEAALGPC/xhBQAAAAFzUkdCAK7OHOkAAAGJUExURUdwTABgiuSOAABeigBhigBgigBgiuGHAOSNAABfigBwjwBgieSOAABgigBiigBhiOaLAABgigBgiQBhiQBhiuOOAOSOAOWNAABhheSOAOSOAOONAABgigBgigBhiuONAOKNAABgigBgieSOAABhiQBgigAA/wBgiQBgigBgiQBhiwBgiQBhigBgiuSOAABeiwBgiQBhigBgiQBhiOSOAABgigBhigBhigBgigBhiuONAABgigBgiQBhigBgieSNAN+LAABgigBhiuSNAOSOAOSNAABgigBgieSOAP+aAOiOAOKLAABgiuOOAABfigBgigBfiQBhiQBgiQBgieSOAOONAABgigBgiQBgigBhiQBhieSNAOSOAABhigBhiuSOAOKMAABgigBgiQBhigBgiuWNAOSOAOOOAABhiuSOAOaPAOSOAABgigBhiuSOAOOOAOSOAOOOAOSNAOSOAOOOAOWOAOSNAOSOAOOOAOONAOSNAOSNAOSOAOSNAOOOAOOOAOSNAABhiuSOAEDpv90AAACBdFJOUwDYRC5Ey5kRmTsC/ufdBiIfsfxziGZUMwrMt6nr7/llIvN4qvZuAZHkZw7nqKH7EVEXgBTyjDQbVkz+rZbEu9UF4IXPvHhbtu4CDRnIlia/H30sSPcr0WJAzl+A3Nspwwid1HYxOpFuueIUpNc4sy6GP2nIi2JLWUfrXa8mTxyedNsrkeEAACAASURBVHja7MEBAQAAAICQ/q/uCAoAAAAAAAAAAAAAAAAAAAAAAAAAAAAAAAAAAAAAAAAAAAAAAAAAAAAAAAAAAAAAAAAAAAAAAAAAAAAAAAAAAAAAAAAAAAAAAAAAAAAAAAAAAAAAAAAAAAAAAAAAAAAAAAAAAAAAAAAAAAAAAAAAAAAAAAAAAAAAAAAAAAAAAAAAAAAAAAAAAAAAAAAAAAAAAAAAAAAAAAAAAAAAAAAAAAAAAAAAAAAAAAAAAAAAAAAAAAAAAAAAAAAAAAAAAAAAAAAAAAAAAAAAAAAAAAAAAAAAAAAAAAAAAAAAAAAAAAAAAAAAAAAAAAAAAAAAAAAAAAAAAAAAAAAAAAAAAAAAAAAAAAAAAAAAAAAAAAAAAAAAAAAAAAAAAAAAAAAAAAAAAAAAAAAAAAAAAAAAAAAAAAAAAAAAAAAAAAAAAAAAAAAAAAAAAAAAAAAAAAAAAAAAAAAAAAAAAAAAAAAAAAAAAAAAAAAAAAAAAAAAAAAAAAAAAAAAAAAAAAAAAAAAAAAAAAAAAAAAAAAAAAAAAAAAAAAAAAAAAAAAAAAAAAAAAAAAAAAAAAAAAAAAAAAAAAAAAAAAAAAAAAAAAAAAAAAAAAAAAAAAAAAAAAAAAAAAAAAAAAAAAAAAAAAAAAAAAAAAAAAAAAAAAAAAAAAAAAAAAAAAAAAAAAAAAAAAAAAAAACA2YMDAQAAAAAg/9dGUFVVVVVVVVVVVVVVVVVVVVVVVVVVVVVVVVVVVVVVVVVVVVVVVVVVVVVVVVVVVVVVVVVVVVVVVVVVVVVVVVVVVVVVVVVVVVVVVVVVVVVVVVVVVVVVVVVVVVVVVVVVVVVVVVVVVVVVVVVVVVVVVVVVVVVVVVVVVVVVVVVVVVVVVVVVVVVVVVVVVVVVVVVVVVVVVVVVVVVVVVVVVVVVVVVVVVVVVVVVVVVVVVVVVVVVVVVVVVVVVVVVVVVVVVVVVVVVVVVVVVVVVVVVVVVVVVVVVVVVVVVVVVVVVVVVVVVVVVVVVVVVVVVVVVVVVVVVVVVVVVVVVVVVVVVVVVVVVVVVVVVVVVVVVVVVVVVVVVVVVVVVVVVVVVVVVVVVVVVVVVVVVVVVVVVVVVVVVVVVVVVVVVVVVVVVVVVVVVVVVVVVVVVVVVVVVVVVVVVVVVVVVVVVVVVVVVVVVVVVVVVVVVVVVVVVVVVVVVVVVVVVVVVVVVVVVVVVVVVVVVVVVVVVVVVVVVVVVVVVVVVVVVVVVVVVVVVVVVVVVVVVVVVVVVVVVVVVVVVVVVVVVVVVVVVVVVVVVVVVVVVVVVVVVVVVVVVVVVVVVVVVVVVVVVVVVVVVVVVVVVVVVVVVVVVVVVVVVVVVVVVVVVVVVVVVVVVVVVVVVVVVVVVVVVVVVVVVVVVVVVVh7w560srCMABPo5iIEQN14UJINAoiEqtEC9E20QVuTFEnUUvSJkUXLvRHnH8+nTYz7XT0itx7ocrz7DknOd/m5eS73wEAAAAAAAAAAAAAAAAAAAAAAAAAAAAAAAAAAAAAAAAAAAAAAAAAAAAAAAAAAAAAAAAAAAAAAAAAAAAAAAAAAAAAAAAAAAAAAAAAAAAAAAAAAAAAAAAAAAAAAAAAAAAAAAAAAAAAAAAAAAAAAAAAAAAAAAAAAAAAAAAAAAAAAAAAAAAAAAAAAAAAAAAAAAAAAAAAAAAAAAAAAIBkbV5eLFc2OpnMq9nZ2Y/vbja+bFdbE5sOBgAAfhMLrZ2btXC/xc7U6mTDGQEAwGhNnHZK4TEHe1eXC84KAABGY7OaCf0qZCpNnTMAADB0u3ul8DSF4+3drIMDAIDhuc7PhEHU6s11pwcAAENxsjdYbP+mlO9qmgEAgNRlV5dCPKWbC9kdAABSNdcJCSjlmzlnCQAAaWmuhIQU968dJwAApKG8XAgJylQNeAcAgMTl6iFhxakJxwoAAIla6IQUvGu7dgcAgOTkbkI6FnfmnC4AACQjuxFSU8jfOWAAAEhAuR5S1WmVHTIAAMR1FdL2aVWzOwAAxHNXCumrbXtRFQAAYmgchKEoHjYcNgAADKh8FIZl6dCtOwAADOYiDNHSvOgOAAADWK+FILoDAMBvrhKGTXQHAICnmiiE4Su+zjl5AAB4gk4YiYO2J5kAAKBvk2FUei2nDwAAfboJo/P+2vkDAEA/rmdGGNxDof5WCQAA4HEbYbRW5hcUAQAAHjFXCKO21vWVKgAARJvvJ1rPfMrXK5Wp+vvbUirRvXOmEAAAECG71scXpN0fryXlztrzN8k/tFrY9yATAAA87PFZkLet7K8/Kp+t5osJR/fFalY1AADgAfVHbsL3Ju/vP89m7w5vk43ux0ZDAgDA/bKLkVn6PDpLf17OJNovU1lXEQAAuMduZJK+eXxQ49z2p+SS+8xaU0kAAOD/TqNydK+/Aet3+wn2ux+dKAoAAPzqfdT993S/q6xfHCeW3ItdVQEAgP8qR92VHz1lpd16YhPe9xoKAwAAP/sQFaBbT1tr6zSp8e4HxssAAMDPmhHxufbkueq5dkIdMyttpQEAgB+ivk2tDrJgUh0zO15jAgCAf32JuHDPDbbk1vJaItNljHQHAIB/3ETceQ+8aK6bxLNMmS3lAQCA73oPB+fJOOvebRTif6J6pj4AAPDNwcO5OeZMxpPKStzkvtRSIAAA+NvDY9xXYq/d2F6MmdwLVRUCAICvHh4Bs5TA6gurs/GS+4zhMgAAEBnci4msn23eGi4DAABxLaV64/49up/HSu7nJ6oEAMDYK6b2ceoP5Tcf4yT32qQyAQAw7iLeSrpLbpdyK85g98JyWaEAABhvEXfh7ST3Kb/pxYju+YZKAQAw1o4eTsuVZHfKNl/FaJfpKhUAAOOsHvFVaNJ7ZS8OBo/ue1uKBQDA+DqNaC1PvD+lnHtdHPwZ1cNN5QIAYFw1I6JyGu0pjUpp4OhePGz+efd5a0HVAAAYOxNRn4SmsuNJfSbEtFLrvcvXK9ur1W5r+uxtThkBAHjpchEX4KWUHi2dPg7JKh6cfw3y+4dX1ebk7gdX8gAAvEBRA9arKe1Z7tZCmlZqr46PtifXVRcAgBdjPyIA91J7+GhzvhRSV+hNdU9UGACAF6EdFX0v09t3ohOGYrZePcsqMwAAz91W1KeiGyluXG6vhSEp5penNb4DAPC89aKaTd6mufN6pRCGppCpNBuqDQDAs7UTFXe30917+jYM00yv0vQAKwAAz9NlZJNJyq+V5pZLYchm69UTVQcA4NnJ1kZ45f7HH2fHYfg+TWmbAQDguZka5ZX71z8OV6URRPdQyBxeenIV/mLvfnraSNI4AE80BAlbsYXDwQdsCcRfYwvjKAbLJJJzCBcUAkgEkIKUDIccwofwN1/tjnZnd7TTpWnc3eX283wBVxXv4UfrrbcAgDmS2Csz/ZD9AoZfp8XYONt+8PcHAGBOVCaJ4TaHnpJOd1qYye6tMe8AAMyFQWKyXcthBTubjeKi+7TVve+oAgAAovc5MTVvHeexhv7GtEhbZ/vmRAIAELtxYqgd57KGx71psRpnJ15XBQAgasPkSHudyyKO76ZFa/VG+t0BAIjYu+Sp5/mMTWyeTYu3t/uoHAAAiFU/Oc1u5rOK2rcIkvu0ev7RfHcAAOJUSZ6kvvU5p3VcVmOI7tP1tc9qAgCAGO0nJ9nVvNZx344iuU8b3aGiAAAgPs1JcpD9ktdCbtenkXh/rSwAAIjOl+QUu1HPayHHL2NJ7tObkx2FAQBAXCrfk0PsRW5zEpvdaJL79NxXdwAAIjMKZNjX+S3lfiOi6L6iNAAAiMpFcoJtX+W3lIe7eJJ7tVtXGwAARGQl1PHdzG8ttbV2PNF9a9BUHQAAxCPUW/4tz8XUx/Ek9+mrkeoAACAax61Afr3PdTm35xFF9zP9MgAARGM7kF43rvJdz1OvpV8GAAD+rBK6E/o97/DafBz+YWlzPCkwuk/6KgQAgDg8NQLhtVf0CjvD+w+99y+29MsAALDIlkPZ9XUkCz38dfRx+/Ltt/HFy68HuTXUtD/olwEAIIo8vBeIro2lKNfdOaoPl/r3+5trvbOXk7Z+GQAASu66GkiurXloF+k8jF4vv9/Lpl/mkyoBAKB4wWaZm/npFmkO93s/q/plAAAooU5wcMt4Z642dPSxd6BfBgCA0rkNTZaZXs7bliq3pwfmywAAUDK7odTaGM3fpiora19n+x5TTaUAAFCo5k0otbYe5nFfO09vZ/l+091QqQAAUKiH4PNGLzpzurXh2uxGzTR2O2oFAIAifQn3eFfmdW+V6+7Mnl2djNQKAABF6gYz62COd9e5fz+rGZGrx4oFAIDiNF+EEmv1ZK43+DCYUbt7a7uiXAAAKEpl2C7nBdX/2uJo3J5JdD+/Ui8AABRme1raC6r/cbS5N5tLql5SBQCgML1wf/f8N4nUTt7PIrq/WlIvAAAUpPk9mFc3y7DPYW8GQ2aqvTcqBgCAYnxqBXtEVkqx0TebM7iouv5RxQAAUIx+cGbiXkm+M1f65zOYDHmkZAAAKMSHEr/D9Gcrq88e7d7aVzIAABShsroYbe6/+7XXeG50P/McEwAARTh8sSBt7r+rnz73nmpLpzsAAEUIX1DdK9U4lTeDlo/uAADMofAF1XG5NtzZXPfRHQCA+TMIJtWyXclsbrZ8dAcAYN7sjEM5deuqbHvuPDO6Gy8DAEABKTb4gur3Zuk2ffjMXncf3QEAyF34gupuCXf9zGuqProDAJC7UWi+eXVUxm0f7bY9pAoAwDy5DIXU9XJ2hnxefs6TTOt9lQMAQK7CF1QvKuXc+fDiOR/de021AwBAnsIXVDfLuvWlm2ck91cragcAgDw9bAQiantY1q1X9g/SJ/f2ZkXxAACQo5NQRP3aKe3en/Ui03ld8QAAkKPTUEJdLvHmj3rV9IMhPyoeAADyU7sLJdSTMm9/+C79R/fuofIBACA39VC/yHqpB5dX7tO3uk9ulQ8AALkJtrn/2Cn1/puD1A8yVXdr6gcAgLwsh/LpfskP4NNq6o/uN1fqBwCAnDRD09y3Hsp+BKOvaZP71v6OCgIAIB8PW4F0elf6jpBn9MusuqMKAEBOvoTC6Yfyn0H9R+o7qt5RBQAgJ71ANm0swvyU0V7K5N4YeEcVAIBcdEI93pPOApzC4WkjZXT/caSGAADIw9XWAj+g+ofH85TJ/eBaDQEAkIft0MjypYU4hsr2hnYZAABiNtYs8y+f015SvdAuAwBADg4ngWB6uigncdJK2S6zpIoAAMjeU1uzzO+OxtplAACI12Ugl75qLsxRfFz3GBMAALGqvPcM078d9VI+xvSkjgAAyNpx4Dtz+2GBDqN/kCq5b+2rIwAAsnZdTU6l73YW6DAOl6uponuvqZAAAMjYbiCU3i/W/zGTVMn9rq6QAADIVu0uOZOuv1mo4+jsNtIk93VzIQEAyNinwMOhywt2HkupOt0bv+0oJQAAMnUfiKRX2f58s77S3x+8XV5e7nW7txGcx2E33VzIjlICACBTgTmIP7L63fro9fK7/x1r0z6J4UC+bKRJ7t8/KSUAALLUCdzIvJ79Tx6PBqv/dxJldbcWwYl8fpcmuW+M1BIAAFlaSb6Q+bMy819s/fWvXRxHcCKVzXaaRvdNtQQAQJYCMyFn/8JQf/mvf60VRbvM8Guaj+5dE90BAMhQ82diHD2YfRxt7iXF38MIzqTzLU1yPz9WTQAAZOcxuTPk9ex/8UvS701imC7zS389RXI/eFJNAABk50Pen9wrN4nd4oNKBIdy/CNFct+6V00AAGSmltwssz37Xxwm34i9iOHF1p3tNHdU1yrqCQCArDw1cv7k/ssgOf5OHmM4lsc0d1THrqgCAJCZ07w/udfukuNvayWGY+mMUyT3l66oAgCQWUJNmvMy3cvgXaRPrcCDRlEk91/2U7TL7A0VFAAAGeknRtEshquPktvcp+v1KA7maZLiFdW+ggIAICNnid0fWfxioM19eleL4mDStMtUBwoKAIBs1BN7QrKYT77TDcTfyzhOJtV0mW81JQUAQCbeJuXQbha/WDsPDEWP5Zbnyt7fT+4/OkoKAIAsdA6S3kTKpOH8TWDc4mksZ/Pm7O8n9xvDZQAAyMR+4rtCmfxk/SAx+7aPYjmbymXjbyf3yZWaAgAgi3B6kzTjJZue7eHGPHS5/9M/2Lu7lba2NQzASrVgxEhtD3JghIjGf6wVa0O0YA/sSVHbgj8FBVsPPGgvwjtf7L3pXmWtOjK+mTmbBJ7nBga8jIM3M2N8Y2Ij3NyblzYVAAAVSI6EPK5mzc/Ji58bQ3TFc/9DuLkvHNtUAACUr516zfSwokWPk2dQ1oYonsZWfCzkol0FAED5OqkSWtWJ7W/Jc+JDNVWxwDOqKzXbCgCA0k0OYsTLSqr4XgxVPpfz4ebebdhWAACULfXJvVlVA609S12K3R2qgGa/xge6a+4AAJStff7nr6eOja2nVu22hyqh9W64uU/u2lgAAJQsNcv9vrJVz5qJZZeH7LfNYnii+8ysjQUAQLkaiQo9V91ToJ3px5fdG7aMXraizX3jiZ0FAEC5UjdFv1W37N7jq74auoxOxsNPMU3ZWQAAlOp1on5+rW7Z+vWjqw7hKPTt+2hzb03YWgAAlOo6UT9fV7fs2qiccf+Pdm0l/IjqS1sLAIAyvUu9JlTdsvXVUXg89W8X0Suqcxf2FgAAJXqSGqpe4Tumzx9btDOcOXWiV1Snl20uAABKdJQony+rW7bx2KOkd8P6C2c1elzmhc0FAEB5blOvIVW47sdH1hza54v2r6LNfc/uAgCgNG9SVywrbNHrvx8hvzS8Sa2/jzb3g7b9BQBASXbnBvSM6Ys/PYOyb/UtzR0AgIGZTBTPwwrX3Vn63Yq3Q53V4nSwud/WbDAAAMqRGgg5fVbhwgejMw3y/74sBJv7puYOAEA5Lh8GdFbm7Hcl+MmQpzXRjDb3ui0GAEAZ6q0BnZUZ+82R8ebQf6D+dBRs7l3NHQCAUtynzsrsV7jwzb/vxW4Nf1w7k5o7AACDsDioszJj3VF5N/VXtca95g4AwAD8eBjUWZm7fw5paTZGIbB6V3MHAODPq7UGNVfmX6d0no5IYrex4j7dNVsGAID+vR/YWZl/TLSZOxmRxNp70W/umjsAAH37NrCzMmOHo3Y19adF89wBAPjTXqca51yVc2XGOr8utXAyQqEtz8Wa+5bmDgBAn2rzAzsr0776ZaVXI5XacfAR1du2nQYAQH82B3dW5vjvha5GbPZKZynW3FdsNAAASmvPvzkrs1Pl0rXrn+ssfRq12C6bseb+zk4DAKAvu8nz2muVrr328/fBy9HL7W4j1twXbTUAAPpymqqb7ytdun70v1HnF6OY2+xMrLk/t9UAAOjHWqptLqxXuvbz/35vXx7N4PavYy8xXdhrAAD0IX1W5k2lazfmHx5anVFNLtrc39hsAAD04T75eFC1a398GD8Z3eT2x0PNfeGzzQYAQHFfUmWz1ah07fUPO6Mc3c7XUHNfmrLbAAAoXp6TM8kr/kpcG+2niYLNvXlnuwEAUFjyDaan8imxuW+ciAwAgKI6yapZE1CJzX1mR2QAABRUn09VTeeyezT381BzP98WGQAABR2kmuaefEpt7ocNkQEAUMxUqmhey6eH3VBzn+46fAQAQDHtmVTT/CSgHrYnQ9/cDyQGAEAx71I986N8Sm7uixIDAKCQm1TNnJRPT8HTMl8kBgBAIVepmrkvn552vkea+8JniQEAUMTzVM1ck09v+0eR5t7yhCoAAEXszCVa5r18MpxshJ5QPZMYAAAFvE0d7PBmUI5PzUhz/ypUAAAK+JIqmcfyyfGjFWnup3WJAQAQtr6U6Jib8skysRRp7rcCAwAgbjN1lbIhnyydBePcAQCouHOmKqbphZmO5yLj3B1BAgAgrD6fqJgH8sl0MR1o7ks/BAYAQNRBanhhTT6ZvoWGQs4KDACAoKlUw5yST653keb+fV1gAADEtFNPf67IJ9tKpLk/818GAABBqU/Fq2355Kp1I839hcAAAIi5SfXL1/LJ1jiMNPcLgQEAEHPuw3A5tr8HivvCpcAAAAhJDUSZEU/A2Uaguc8bLQMAQMh+6vWgO/kE3LUCzf3cw7QAAIScJtrlO/FETCwEmnvX1V8AACLWEuVyXDwhx5EnVBflBQBAwHbqM/En+YS8ChT3uY68AAAIeJYolx/FE3MQaO7NG3kBAJDvTeoKpXhias8CzX18XWAAAGRrNBPd0kfhoPUrF1QBAKjGlrkyJdq9DjR3R5EAAMg3kXqDyTfhqJumC6oAAFShtpqollPyCf8QmgtcUPWCKgAA2VYSzfJAPGHLXlAFAKAKr1OfhOvyCXsaaO5b4gIAINd4olg6hR1XPw009wt5AQCQKfXg56Z44naP8ov70p28AADIMzud6JXb8omLjJY52pUXAAB5Th3lKNnLwGiZ+5q8AADIcpGolW/FU8RH7zABAFC6RivxSNC+fApobwbeYZqQFwAAWbYStfKbeAr9GJrMb+6rO/ICACDHRKJVjrflU8TOan5zf+uYOwAAOdoziVY5JZ9C7pbym/uiuAAAyPHK457lOw4cc/frCACAHEa5V2Elv7lvOOYOAECO1Cj3ZfEUU/+Q39zfO+YOAECG1LGOc/EUtD+f39xN7wEAIEN93vXUClzmv6A690NcAAD0tpfolJviKSrwgurMurgAAOjpJHE9dcHrqUW1u/nN3fgeAAAypK6nvhJPUdvX+c39WFwAAPSUup66UZdPUU/y32FqnYgLAIBektdTfQsu7iL/k/sHP5AAAOgpdT31qi2fwm7zm/sLaQEA0EvqeurDZ/kU1rjKnwk5IS4AAHp5m2iUp+IpbraZ3dyPtsUFAEAPnQePMFWUbP47TF1pAQDQQy01ufCZfPqwZyYkAADlWU70yek7+RRX/5Bd3Jtn4gIAIK2ROou9KZ8+zLaym/thTVwA8Bd799ISV7qFARg5RrAkhmgGNdACRcs78YI3TAQd6EQSjaBJgYKaQQbpH3H++YEmfbpJu9de7G9XMnmen/A6eWv57bWAWPSiY8p1oBKD/GOZaWkBABC7jD6iHJNPifV0ce/9R1oAAMSOoj65L58Cqy/Tzf3GAVUAAGLjUZ98kE+JvZ4DqgAAtCXafjJ1L58SV/kDqrbmAwAQO3AcaGg6x+nm/rIrLgAAIv0b51OHZn8m3dyXpAUAQOgsXDEunyKb6eI+MSotAAAinZGoTx4KqMhYurmfrEoLAIBIeCnoxlXPIt2bdHO3Nh8AgFDnLqqTAwEV+bSQbu7+uwEAQOg2fMHhNlCZ6XRxX34rLQAAApMnUZ18ElCRzvt0c3fwCgCA0ErUJhcuBVTk1Vy6uV9LCwCAQDxyXxdQmUWbZQAAaMfAHHiIOh/Tzf2dtAAAiKrlY9Qm73yfWuZyzhkmAABaEV/4nBdQmZX0yP1lV1oAAAQufJ86RP3zdHPflRYAAIHRsE0eCajM/my2uE+NSwsAgMCxo57DdJseuT/6ogAAgMDeRPh9qqfXhfKPZXxRAABA5Chsk28EVCb/WKb3QVoAAFS7nwqfXu9JqMwgPXL/JiwAAAJjYZv87rFMoaN0cz8TFgAA1bbiM0GnEirMN/1YZu2ttAAAqDYf7yn8Q0Jl8meYHoQFAEC17kl81HNVREX6H7PFfWJUWgAAVDuL6+SGhMp86GWb+4gvCgAAqNZ/EdfJAxGVOU0/lrkSFgAA1T7HbXLWhvEy3btscV8QNQAAgZqVhSPWnRT+MprINvePfWkBAFCp7hX2eUdGRTbSj2UGwgIAoFrdK+x3IiqyM5Mt7jM70gIAoFL3ZU2fXJJRkUF65G6JDwAAgU37Tobr2DJ3AADa8LquUM7LqMSHBcvcAQBoweVcXaHcFlKJq/RjGUEDAFBULBXKEpOP2eLeeyUtAACqi+VIbaM8lVKB8fQy9yNhAQBQbbS+Ue5KqUB+mbvvUwEACKzXN8olhz2b25rLFvcvDl4BABAUy8SVIPvcCzylR+63wgIAoNpBolJ6595c4jOCH9ZWpQUAQLWjRKd8ElNjo+mRu99HAAAEtmYTlz0HcmrsPFvcFy6FBQBAtc3MmvFxOTX1qpdt7mPCAgAgkFlZuLYvp6Z2XWECAKAN3btEqXw/KaiGVpeN3AEAaMNe5jHHtpyaGhi5AwDQiulMqfwkp4b6F0buAAC0YixRKj+Kqam9KSN3AADaMJnZWXgop6YejNwBAGinuSfuML0QU1OZZflG7gAAtNTcLXNvbDo7cn8nKwAAQp36d+4PUmr8u+guez51R1gAAIT6b+pK5WxXSk2dZUfu87ICAKDG9ERNqXySUVOdL8nivubSFQAAdW5r1haedGTU1Gh25D6QFQAAdRZrSuVXETX2LVncb/qyAgCgzrZp8LB8zV5hGpUVAAB1+vElpl0JNbeRLO7nogIAoNZ+eCroSEDNXfZyxX3iXlYAANQK9xa+lk+B3eTIfUlUAADU6tx4xTEkO7O54m5fPgAACbdBpfwmnhLzyZH7iqgAAKjVXahulOviKYp2OVfcv4gKAIB6515fD8ttcuT+h6gAAKj1VF0or6RTpPOYK+4bogIAoNZ1daG8lU6Zw1xx7+2ICgCAOlfVhXJcOoUucs39SVIAANS4D+4EvRVPoeTI/a4vKgAAQv331XVyWTzF8X7JNffPogIAILRpjftvy9fnqQAAZHVGgjZ5Kp9i/ZtUcV/wKgkAgMhB1Cav5VNukBu5L0oKAIDAi6BLTpgCt2ByLVXcbyQFAEC18ahLPsqnDdu5kfuepAAAqPQQVcl38mnDVi9V3MckBQBAldW5qEpuCqgVG6niPteVFAAAFcJPU6c8cW/HeO6tzK2kAACosB4VyQv5tOR7qri/FxQAAM+bnI2K5LaAWvKUG7l/eDphKAAAIABJREFUkhQAAM+6tubkl9iaShX3XUkBAPCssahGrvUF1JbXqeI+4/NUAACedWI94a+xmXsrcyApAACecRm2yEMBtWZyJlXcjyUFAMAzBtaK/ypLqeI+8UpSAAD8W3g2dV0+LfqUeytzKikAAP7tzkuZX+ZFqrivTUoKAICf7UcVclaFbNVibuS+KSkAAH4Wrjp5kE+rkqvcv0kKAICfvYka5Kh82nXu81QAAJo5jm4BdeTTrjOfpwIA0Eh/NuiPS/JpWXfO56kAADTxIeqP4/Jp24bPUwEAaCI6v3TipUzrrv/r81QAABqIjnm+EU/rOsu5z1PvRQUAwD9dBO1ReRyC3dzI3ecFAAD80+RCdXe8EM8QfM0V99lVUQEAkKuRK+IZhptcc1+UFAAAf1upbo69HfEMw2KuuH/viwoAgP8bq26O69IZip1errm7WgsAwN8eq4vjtXSG4yhX3I8kBQDAX95OVR/vtMR9SA5zxX3qUlQAAPwQnAPalc6QdE5yzd1fAACAv5xa4v4bzOeK+5yNkAAA/HBsiftvkP08dVpUAAD8aXLOEvffYT1X3E98ZgAAwJ8+e6bxP/buZqeNLQsD6I0akGIrIJwMPIgtgcCEP5lgkYACSGYAExQSIgWIFKR0GGRAHoI3786gu29ys+HUle2qrrPWA/hIX02+2iqfXYrHacX9bldUAAD88CysjJvCGafptOI+LSkAAH64CivjpXDG6Thx5P5dVAAA/PHHy2ZUGJ/0pDNOsy/SirvttQAA/NunsDC+F854LVrCBABAsvByk+accMarv2AJEwAAiWY7UV08EM647VvCBABAoimXuJfnbcsSJgAA0qxEZbE7EM7YzVvCBABAms9RWZyXzfhdWsIEAECS87ArHgtnAq7SivuppAAAMvc0vIPQlzKTkLqE6bGoAADy9s2dMqVqDNOK+xtRAQBkrb0UNcVF4UzEcuISJpfqAwBkLb4M8kY4k3l1ep7W3FdEBQCQs52oJ673hDMZ24lLmPqiAgDI2MeoJ87IZkIGC5YwAQDwUGlsRjVxSziTsm8JEwAAD9gK16auCWdS5lqWMAEAcL+VqCSeyWZyNixhAgDgfuHezm3ZTM4/mpYwAQBwn7XwI40Pwpmgb5YwAQBwnw/huh+fuE/SVOISpmtRAQDk6VlUEa9kM1Gnac39i6QAAPJ0Zk1nNeylFffua1EBAOSo0XHzYDX0rtKa+zNRAQDk6DwsiCa7E7abVtw7fVEBAGToIuqHT2QzYY1Hac39q6gAADI0E9XDTdlU5iXqZy9mRQUAkJ+PUT1cls2kzQ7TmvuFqAAAstPuRu3wUjgTt5xW3G8bogIAyM2rsB0OhDP516j1tOa+JSoAgNyEn1UPZVOCxbTifiopAIDcrETdcF42JVjrpDX3x6ICAMjMQVQNj2RThu204u61CgAgMz17U6ulv5BU3JvnogIAyMpcWA3fCqcUO2kjd7fsAwDkZS8qhgtuHCzHy6Wk4t59JyoAgJw8dW9J1eynjdx3JAUAkJMvPsWomnfdpOK+0BcVAEBGTqNeuC2bsmymjdwXJQUAkJHwUplj2ZTlupVU3NfbogIAyMbLsBZ+F05p3qSN3FclBQCQjcuwFb4UTmlumknF/ZGLfwAAsnER/vVRNiU6SRu5b0kKACAXR1EnvJJNib6nFfdpSQEA5GIj+ijjjWzKdJbW3C8lBQCQifA2yGeyKdNUWnH/JikAgEw8d2PJ/9kb1c9eSQoAIAtrYSPcE06p9tKK+7ykAACycB42whvhlKp3lVTcm+eiAgDIwQfXuFfVbtrIfUNSAAA5CK9xbzV60ilV41FScW+9FRUAQAa2oz64LpvKvlT97IukAAAyMGP/UmXNDpOKe/edqAAA6u8kqoMnsindatrIfV9SAAD1F15dsimb0rXXk4r7kv8RAwDUX1gNj2RTvqdpI/cdSQEA1F2vG5XBZeGUr/08qbgvDEQFAFBzg7AMHgunAt6njdy3JQUAUHPXYRfcE04FrHWSinunLyoAgHq7DLvgpXCq4Cht5L4oKQCAetsNq+CNcKpgsJRU3J+3RQUAUGvxTeFzwqmElbSRu/8SAwDU29ewCbqopBped5OK+4tZUQEA1Fn8CbUiWBEzaSP3VUkBANTZfriNUzYVMddKKu5Db1oAAHW2GfXAddlUxUbayP2TpAAAauwkqoGfZVMVN82k4n7bEBUAQH2dRTXwSjaVcZg2ct+VFABAfU1HLfBUNpUxlVbcP/ZEBQBQW7dRCzyQTXWcpjX3PUkBANTWMCqBZ7Kpjt204j5t5A4AUFvrUQk8lE11NG6N3AEAMrcQdcAT2VTIRVpxvzJyBwCoq3C5z7xsKmT2RVpz3xIVAEBNC2FYAd+M89jenOiLWTRyBwDIWjusgBvjPHZ56UL2hfQXjNwBABT3SRf366W75qrwC1lJvMvd+lQAgFpaCxvg5vgOnf2x9an7XfpFzLWsTwUAyFi/jOJ+ZDb8N2ykFfd/ihUAoI5elvCpzOOWz7H/hu9pxf3uWFQAAFkV97HdKjP4z82G0+Iv5CCtuN8auQMAZFXcx3WPe+Pwv0e8kn8RW0buAACK++Q2px7974gd+Rd65blNK+6fjdwBAOpnENa/w/EcuPeny1GGtgUVspo4cv8kKgCA2olvlTkYy3lznT+fce4BFNF+buQOAKC4/+p0LNXz409nLHsAhRwljtytpQUAqJ14AdPVGE7rbUzo5pqaet1NK+7DWVkBANRMOyx/H8dw2vYvZ3R801HMZuLIfVVUAAA104g/lB79YVvNXw9xIWQxN3dG7gAAmQo/vlgf+VHXnb8c8tUDKObMyB0AIFOdqPotjfqkwZO/HvLNAyhmy8gdACBT62H3G3H1a5z87u2g7QkU0nuU2Nxd2AMAUDPDsPoNRnvQym8P+eAJFLOcWNzXvRIBANTLbVj95kZ6zqffH7LvCRTT7hi5AwBkaTpsfjejPOZm6feHdHyLXdAzI3cAgCwdhs3vcoSn9J9Ep2x5BMWkLmEycgcAqJf5sPjtje6Q3pvwFPfKFLVh5A4AkKN4F+fx6A55f0+/PPcMinl1Z+QOAJChlQn0vqnWPfXS31OLOkgs7i+M3AEAauQo7H3bozqiP7yvXi71PYRiUpcwNY3cAQBq5GvY+2ZGdcQDH2U/9RCKaTxJHbm7sgcAoD4uwto3P6ITPj1QL4cNT6GQXuoSprsLYQEA1MZe2PqmR3PA3IMbg7Y8hWLWUpcwPfJOBABQG4/jDy1G8vu9h/9KeegpFLSTOnL3TgQAUBtvw9LX7Y3i9y8S6qUbIQt610os7tOyAgCoi37c+gaj+Pn1hHo54zEUlLqE6W5KVgAANdFrjXUQvp/SLpcGnkMxN6nF3WdIAPyLvbvpiePYwgCcq2AkZuRBjL2YBYyExfcM4kt8WBgkWMAGgQHJ2EhGwmbhhf0j+p/nJrm5SWy6qOpuYBo/z9Z0WTpn81JUnQKejLn73K29iTvT8UobEu3GJvcNtQIAeCKe5Wa+y9JrN47i0qWJkKmGYoN7X60AAJ6IsdzMd1p67a3YeLmlD4k+RFa2PapWAABPQ/4p9OuySze+xgb3E31IdBBb2jdqBQDwNJzeX5q+zKLdaETiL0V7kZV18xcA4InIH7S+V3bpd/HB/VojEk3HlnZVrQAAnoTz/OPRrfta2b5weZ2JyNJOdBQLAOApyH86NTsut/KXhOBewU3Yn81+bGmn1QoA4CnoNHMT33mphUfbKcF9rqUVadYmlRYA4KfSy01886XW3c+SmAiZaj22tAdqBQDwFOQ/krReZtnGXFpw39GJRCtTkaV9N6NYAABPQD838G2XWXY5S7ShFYnexJb2tVoBADwB+UdavpZZdiw1uC9qRaK33cjSPlMrAIAnIH+Qe7vEIMGlbmpw767oRaJrW+4AAD+RkXt5z3Q+S+aloFTRg3uO1AoAoP6W8vPeZfFVd9ODe8/YwlT92NoOqRUAQP2N38NYmZV2enA3tjDZWdPMHgCAn8dObtw7LLxmgZMyWfZBL1JtO+UOAPDzWMx/c7PwmodFgrsDHcnOYv+y8bWhWAAAdfc5P+4tFVyyM1UouB9qRqroU+4XagUAUHfn+WlvpOCSy1kxv+pGouPYLfe5jmIBANTcZn7amy645HDB4O4RpmSLsbV9pVYAAHU3UXmQnisY3LubupFoNPalqwkPXAEA1N1Jbtj7T7EFr7KiXupGqjexte2rFQBAzc3mZr3mWqEFpwsH94kF7Ui0EnsRuGkkJABAzQWGrp8XWnC7cHDPXmhHqvXY2n50PxUAoN5u8rPeapH1GhPFg/tcSz8SrU3GFndVsQAAaq2Vf7/xS8W/CNztQD9S7Uff/T1WLACAWnuWf+a8yIOb02WC+7sZ/UjU6cUW94O/ZwAA1FpgMMlVgeX6ZYJ7NqQfqeaji7uuWAAAdXaRn/QuCyy3Vyq4H+pHqsaH2OK2/VoEAFBnv+Ynvev01TZL5faseaMhqYaiq9tbUy0AgPoKjIHZS19tq1xw91BQAWPR1R1rqBYAQH19yQ966YNI1ksG9/aVhqQ67kaXd1a1AADqazU/500nL7ZbMrhnixqSbDahvN5hAgCorcAZ6e3UtWYmygb39qiOpFoaj6/vczdUAQDqaqFd3ST30cjHgAL/NqwjyVKG5zcXvcQEAFBTgXmC3xKXirybGnrus7upI6lan5L+qNHfUDIAgDoKXCg9TVxqPyo5nnTGXaCs1Egz7UDSh+klRQMAqJ3XgYiduNR2VGxc/uWVLfdqDSffJdi9XFA2AIB6CRxy7yZuzH6NyYwTjV+CW+5vtCTZUi/9HvDU9pYZMwAAtXKUH+4ukxZqtWMC4++zaj6Httzfakmyg0IzfCYXh7zJBABQHy8Db20mLXQWlRZf/Pcng1vuBssUUHSC/tzpmuIBANREYJL7VNJhirihMue//6gt94qNThUdnT81bHY+AEA9dCbzU91WykKrUUHxj5gY3HK/1pN0pyVevVq8Uj8AgDoYy890/ZR1+lEpsfXHz4YGy7TlyHRpw9y/f5ZpzGx3AIDB15gPXF9MOSsTFR3n/vzZ4JZ7X1PSjbSzMg5HlBAAYNCNBvLc6/hlWt2YgLjzv58Obbk3v2lKuvWsnGeXRswAAAy4wPz1xfhVrqLi4V8LBrfcv+hJus6nksk9+zhvsjsAwEBbr+SszOuocPjqrx8PDZbJ3mtKuo122eSeja+uqCMAwOAaCUS5i+hVpqOi4f/P3gS33I9mdCXdalbe1PCZQgIADKpG7+4z6XebjQqGf+/ohk65Z8u6UqCPR1kVdrYcdgcAGFDDgRgXPZtxLCYU7v3988Et90+yYwGjE5Uk9+zj9IJiAgAMotDx9PXYRaLuRv5z0mNwy/1SVwrYyioyOWyYPgDAAGoFdmp7rbg1ZqZiAuH0P77o9EJb8y1tKWCxquSetXdfu2gAADBw+uWPm29GxcGbf37yOTbiE6vzLqvOuwvjIQEABkzorMxY3BIjUScw/nV0PXjKvSc0FrG5V2Fyz8b3N5UUAGCQtAIRuv02aonLmCC4++9vglvup9pSxPFclck96/Y31BQAYICE5srsR60QNUT8u6WCW+4Ta9pSxMpRVq2TZSN+AAAGxvus7PXUqGuRW999FNxyn9WWQlrDFSf37OO8c0sAAAOiETpgcRCzwklMAjz+7qPglnt3VF+KOd+rOrqP768oKwDAQHiZlXw99XlE/Jv64czF59ih76RYmO1WHd2n3vg9CgBgEBw3Y4c43q4RkxSPfvgsuOXe/KYvhfu53aw6urcXPcoEADAAdgKR7fruz1diot/wj98Ft9x3tKW4b4fVR/dtI2YAAB7dReiYxN0DXjZigt+LH78LbrnHPv7ErW767aqje/ZlRF0BAB5XZzIQ117d+flyTOq7LYcHt9y/GkRYyuj6ROXR/fBGXQEAHtV1IKzt3Rmgp2My39ltvzAEt9zn9aXk72OXVY91z5r9Y3UFAHhENykD2H+wHpP4bp0G/io4hnBBY8q6Wv1Y9Vn3vgkzAACPaKfMNdF+RN6bu/XL8Jb7qr6UN/N+uOIjM93ZJWUFAHgsB6Gkdtc4kZgDGSe3fxo85T65qTFV6GyNVTvavXfh/gEAwCNphV5P3b7j415E1suZKtnpJY6QpJClrcXJKqP7BwNmAAAeyWrofPpZOPTHDB7Mm00T3HJvn2lMZTrLixWemWlerygpAMBjWJkKpLR+8NO3MUEv74Zr+JT7ocZUqXU+3Kssuk9MOy8DAPAYhkM738EZgCMxMS/3nHxwsEx2rjEVO1t9Vtl5GVPdAQAewXE7/YT6nw5iQl7uIJLwlvsnu7rVG31xUs2zqt3VlmoCADy47VBCC83u/hxzrqLo59Macx+WDrYruaz66ZtaAgA8tG9ZwVPuszGnKvI/D2+5j5sZfk+quazanu0oJQDAA9sNDREJjP8bi8h3oYmS4VPusxpzbxojs3Olo/vzIYUEAHhYwUumOzO538VcdlwP/L/hLffulc7cZ3Z/X3rAe/PaX0UAAB5WaMs9u8j9bDwi3AWPqoe33I2EvGedrbGSd1V7W6oIAPCQglvu42s5X7WaEdHudTA5jhsJ+bjenj4vF937nmMCAHhIX4rcTx2NCXbhJ1DDg2WMhHwAjaHtbpnkPr6shgAAD2cjuHl+cPtH72Ny3ULw/71jy91IyAex8uJdmei+6KQ7AL+xdy89bSRRGEBnNICEEUY4LLzASLawwTzESzwsHhIsYIM8JpGAIAUpIYssmB+Rfz5RMplJgt2uNm7T3XPOGndJt7z43Ny6BYzOWuQs9k7Xz4TcvzTfZ93oV+5GQo7KH7urgyf3ZT1NAAAjMxPZLjHedWR3LSDTjfdZt88rdyMhR6YwNvh096kjM90BAEYl+jKl9W4fOXrmGPevol+5L7TtzOiUDwZud5+eVD4AgNHYiX7d+tDlIyH3L831DYuPRkKmyMbNyWATIku7XroDAIxGPboZovn0E28D8txN33Uno4Pipp0Zsa36+EDR/cOe2gEAjEIhOoeX7p58IuT+pYAOiuiOm2kvckevfXY6QHJf2Da+EwBgFCaj71Oa+rVbphwS5nb6r7sSHRK37cxL/IwbW6/Gj+7jjiQAAIzCep9YtvTzC9V2QJKrhKz7JvIRizN25kWsNN/GTu7VG3UDAEjeVr/el8ufMvRYQJA7Dlr4feQzZu3MS9mbiP3a/dDofQCA5N31fYF+14jx118cBa27Mh35ENf7vJjGysNy3NuYbpUNACBxF/27mP87bXoVkOKaYetGT5Z5V7QzL6d4EHPIzNSS/QIASFqnf2fE1OH3N6oTASHur8CFzyKfUrMzL6nRunZGFQAgZeohuey6vv/bbzPbqwG38oTOcixGvtWt7tuZF1W4O3VGFQAgXQntOCyZvV0KOrX4GLxwO/J5a3bmhZUfqs6oAgCkyf3i5yGaCF84+qjrmJ15afuHzqgCAKRJfZjB/TzGwpEzIT847/jyWqfOqAIApEfj0xCDeyfGwuXIE5Cv7MzLK88txNn9Px1NAABI0v780HL7cqyF25Wo+1M7diYF2idx9n++pWIAAAlqTQ0ruL+Pt/C5+1NTr9GsxGmXmSsoGQBAcnaHFdzjvnA9inrYpo1Jha1Yh1THZ1QMACAxoTMh+07zLsdcuPhnxNNOy3YmHQ7iNFNVDhQMACAxneG0uR/GXnhrOeJxuzYmJXbWTZcBAEiH24VRD4P8x17EGPnSRxuTFrEmQ2qXAQBIzjCmuc8P0ttyE/HASycdU2PlvXYZAIBUmHh+cB+stWUp4ol1+5IerdUY3wXtMgAASYk8JxqkNFiDROEi4s3tlo1Jj521GN+GS5cxAQAkZOX6mcH9YtCFP/R+5pp9SZM442Xmx9QLACAZW6fPC+6Tgy7cWR3eZHiS/Y7EmOnuMiYAgKS0nzUU8hkvxyd7z7SZNsw9Xe5iXKR6saFeAACJ+PiM5L7wnBGA51M9n3tmW9KlcxL+pTjdUy8AgET8MXhyX3rWwrXePwgMc0+ZRrMa/K1YbKoXAEAi7lcHzO3TK89buPdQyGuDBdNmJsYEonW9TgAAiXi9PNgoyMlnrluY7fnsml1Jm8LDYvBX47qtXgAASdgfaCrkw7PXLV/2bLeQ/FL4Ay/8a1IxGQgAIBErF/Fz+3rj+evu/N7r6cfGCqZPcXcqeC7ktg0EAEhC4Shubp8dSht6p1eXzlTdpqTQWHhX1eyKcgEAJOGgEi+3D+n84X2vmTbVjj1JoZ3w25h+v1cuAIAkzFzG6ZMZWiPEXq85g59sSSrdBA+GrG6qFgBAEopnC6EXLw2zj+W217CSO1uSSu3gX3hTZxrdAQAScR92Qeb1cO/G3Cz1mEyyZUdSqXBWCo3uFxvKBQCQiIP+hw+rV8O+Hem8Rw48tB8pNXkamtzfvVYtAIBElB+i71FdOErgPfhNjymDm/YjpVbWgxvdD1QLACCh6N780DOFzZ8l077S7J7cVzVapFbwFKKpOY3uAABJmTzqNqSxutYqJrRgod499K3Zi9Tq/Bnc6G6iOwBAYgp/XX36MbxXTs5ui0kuWOue+fRZpPg7UgudQvTYVi0AgCRtTZ43a7Va/Xyyk/xiV917c0yWSbG9x8DkXhlTLACA3HjV/YZWhUmx8tJUWHIv1RQLACA3ml2nQt4oTJq9WQ29a7esWAAAuU7ulY7CpNnWbGByv9T1BACQG11vYjppKEyaNZqLYcl9eU+xAADy4qDbnJK6uqTb/duw5L54p1YAADlR2OyS3BcNE0y54m4p7C6mM3cxAQDkRatL38V4UV1Sbmw57KX7oSOqAAB58aZLcjdLMPU21sKS+9t9tQIAyInb6pO0t+BYY/q1ToOS+6q9BADIi8nKk7R3rVkm/VYmgm5jWtxUKgCAnLh/+u52V1Uy4PYx6IiqzicAgLzYv34S9lqqkgHFejUkuq85ogoAkBMbx09ao927mQkzF25RBQD4PynP/pr1Llygmg2bIZMhp18rFABAPhQmXKCa1R9dcwHXMVX1PgEA5ERj+9dpJF7SZsXH8f7JvdRUJwCAnLj55cXtB0cas6JwV+kf3efUCQAgJzYXfk56R0qSGVuH/ZP7rmMLAAA5cVsxEzKzDlb7JveJgjIBAORD+91PQW/eFMEM2Vnrm9zXvXMHAMiJjZOfgt4nr2izpNV3MqTuJwCAnCgUjn4Keq+UJFO/uyb6JfeaIgEA5EX9x+EyC5MKkimbfcbLTJkKCQCQG63qD0HvdENBMmWmz0z3khPHAAC58fr0h6B34TxjthTmpqLvUHWxFgBAbuwc64rOsFZ0u8zpjhIBAORF+YfJgqVb9ciYzmVkcj8xKwgAID+u/juiutpRjgz/8OpiSYUAAPLjzfy/OW+8rBwZ0ziLbHQ/VyEAgPzY/6/fYl01MqdZigjuix8VCAAgP8rv/w16ddXInLuo5P64okAAADnSXPh+QPWNYmTOeVS3zJr6AADkyd73ie7VPxQjcx6i2tz9EwUAIFe2Tr4P/95XjMw5igjuC3vqAwCQJ4Xtf1ql3xotkznFcfcwAQD8bzQ2q9+C3qxrezLnfjEiuc82FAgAIFfaj9+C3q5SZM5ZVJv7g/oAAOTLxqdvQa+pFFmzU40I7qVJBQIAyJfi+reg11KKrFmKeuW+rM0dACBnGtuGQmZTKyq4f/7k3AIAQN68+nqbz+qMSqTHyn5773ZsbPPg4KbZfFWrnc3NHU3szn2xXfvioflF5Cz3z5+vVBEAIG/qX5P7uy2VeMmofn970LxaWr+4/H258nkISmOKCgCQNzdfB7pfb6jEyO3sHbxaOjyeXvw8dBX/QwEAyJ3zr8n9+G/27oapqTMNA/C0RlpCgRJsYTsEJSVGIFSEEkIrIqyKrax82MqHooLU6a66q06ru7M7257+8i10ptPFWj3J+Qjhun4Bc59wzp03z/seL2JKzlRmaHJhZyCI0c6wmAEAmk11v7kvdEgifsvThfJGrI391/cw2aAKANCkzX1U04tTdnXt/Ew+SM68zAEAms4v0zIlQcRkuTq5NBAkzYu1AACaz+Z+cx8XRPQ6N1vag1TkqtIHAGg6v5wtUxREpKbWymeC9AyuuwQAAE1naO889zbTFZHpzUzuBCnL77oOAACaO682sdY1GDQAG1QBAJpQMdDco2ntm139QWNQ3AEAmlH3/o7GTUHU1dqLi21Bw1DcAQA0d17WO13ub6DarrgDADSr+3utM3dFEDWpbA8EDUZxBwBoUkM553/XZnhoo9Fae7AzuerCAAA0qWq/5h7e6daWRltsH/h8aNmFAQBoYjf2jjHMeRNTCMfm5xpuqT3T4boAADS51vxe9StlJfEmhsda5iy1AwCQhtX9Jrp0ThKvcXq3sNRvqR0AgLRMLO11wL4bkvjD7zfjW41V2gcvFJddFgCAI6V3e/9A93njMq9ytnvLUjsAAOlbG9wfl5mQxO9+sRnPm2oHAKAhHLu5VwnndiXxsvX2xintfV2FdUvtAABHWceJvXcx5TOSOGitQTak5m6e37zucgAA8Pj43o5Hzf2AK23pV/atz+erxyy0AwDwi+xQXxAMmJb5P3fSXG/P3+wqFadVdgAADhhe6Qvah+XwG9+m0dd3FrbHh6ZXz4ofAIBX6L0/923BsZC/Wk3ytJibXaXClfXrvWIHAOD1spmy4v6r+UQa+2JLoVpxFicAANTqQtwnxYwWpjtPyxkAAOqyHV9pH1yav2E/AQAARKH3eDzDMQvdj50VAwAAkVkeiHw8ZuNERmkHAIBoFSJt7SPloSmZAgBA5Drao5uPKa7KEwAA4jEUyXzMcfMxAAAQp46ROkt726PzY46PAQCAmI3XtdJeqnqzEgAAJGAqV1tpz18Yz/SKDwAAEtIVurOfWThRvS44AADfkIQxAAAgAElEQVRI0liIyv5WeX6z1XAMAAAkLxtie+qWY9oBACAlkyGW3JfEBQAA6bjeFqK5e8kSAACkZClEcW8RFwAApGM6RHHv75QXAACkIrsTormX5QUAAOkIs+QeZOQFAADpCDPlvuV9qQAAkI47/fanAgBA41sJMyyzJi8AAEhFdiPMyTLrAgMAgFSKeyUXormPLEsMAABSMRlmWGZjWGAAAJCGjpthmvuM5g4AAKnY7dfcAQCg8RWCUM3dce4AAJCG7Eyo5r50VmQAAJCCznyo5r6zLDIAAEhBNVRxD0YqIgMAgBScD9fcB26IDAAAktexEa6558azQgMAgMSFHHMPgi5bVAEAIHnVtpDN/dEdoQEAQOJOhCzuwcAVoQEAQNKyC2Gbe1A2LgMAAEk7uxW6uc+1ig0AABJ2bCB0c8+tOF0GAAASNpYL3dyDRXtUAQAgYd3hi3swWLDoDgAAySrV0NwtugMAQMJqOFpmb9F9pUN0AACQoN6NWpp78GhddAAAkKCJRzU196B8TnYAAJCcqfbamnu+aJMqAAAkp3OktuYezKwKD9IzPLVaqaxnMplK5djysDxi1nHueqXS+nPcjyuVzgn7fABIx2pfjc09V+qVHiRrolItlMozW/mD/459Owvb45sVDT5ap5dvFCfLM3MH31c3OLLxc95DmU4VHoBEVWpt7kH7tPQgGdnO6cLoxuvfdzzy7fzYlLiiSHx3qGVj8LULGO0Lk5sVixgAJOXOmVqbe3DBoe4Qe4O8c6U0MxDqO/X2FfvH64q80r0QJvHco9Fiq/YOQBI622tu7v0lP81DfDoqxXK+pv/NnfHKafnV1NpbSzUtZuR2WjaXxQdA3Jbfqrm5B2c2tQOIpbSvj8/0B3V4a0WPDOv0+na+nszbt6sTUgQgVucW63hSLTlfBqJ2Pdysxiu0LVXtngxzJ1yZiyD0jcmM1AGIUcdoHc+pXIslJohOdn1yK4jKmRX/nm9od3QwqtTz5U2xk4Iv3nnn/VNf9+x5u3n1uNBN6WmEn5F7RyGw+7k6nlIja+ZlIBK9Y6P5IFIDk3aqvoHKQrSx52a6He9DzO79t+f595efPPjh40t/mn3v6lc/HQ2XGvFaXLzW888PT/5467t3f/Zxw9n7q767dfmDF8+/OfVlg36c34vwM/L+kbgBTNfVFhZ33UKhXtmx8kAQvcHJs7L9Y8cWYsi9bbHbdybi6Iinnn5/6+Hd2U8PlJXPFPfkfdnz4eW/fDT7r8MU4Fe37z588uz5fy4q7ofc8mJdy0ujfhmGukwV5oKY5Aumrv/ARCkXU/C5C9WsfImusv/jxZO/3/7kp6OtQYr7tafPHlz662EO8pPZfz950XNPcT+8Okr1VYOiBxTUbH0hrvK479G6iF8hW8zHmXx70QnvROCLr0/+MHvUK3uDFPd33v7x3btXmyXOz25/9N3JnouK++E0Vt/za+OxeyvUJDMTxKzNj2K/b3Ux7uj7xo0qUZeL39y69KnC3gjF/WLPs4ezzTiT9NXdBy9OKe6H0J2d+n4WbvF8gvBajwcJOJOR9EuyK/0JRJ/vNqpErU598PFVZb0Rivu150/uNvcG4KuXbj3/m+J+yPS21Pl8GnKXhXCmRtuCRLSV1MeD2S8lE32wVRU2Nfj61qyi3gjF/dTJh+8djXQ/+/P/2DsbR6i2NQ5PKjFqHHJ8ZURGKJR8cwqhzBAS+qCa6jD5KMRFJ6XdX37vPd26nfIxa/bae6291vP8B35j7fXsd7/rXYvbaubOIO6Z8sTlVIuJcR61AAIl39qY4xunJwn8R7qj/mVfwIQZwNoDKe6J4v0luxJuLltfiCPuwWFq1eXUaA6pAqTN5ITjJxW0y/yfy5cK/cw+eofIIX32sHYtxH3v85CFR4J7vnx5v7JzBnEPCm7bZZyb+TxzAdLietTxl0q62b4/6Rp9zt55QasSpEeyeKgHQVcv7jNzZTYH3fw8NYq4BwS37TKxWm5SBdCu5PuVIlbn31yb8D/7MdplIA1KcjiNqoG4763Pk3Xz0EXf6u6Iuyuezbpt52S8DMBxRBodFWTTzPYfOmdVZD8wRfJwNInUILqoXtyXU2UE/ZXpmo/9iHsAKK1zuz/l8vwFONrb7zpqaMTcQ5Pn1GRfcZLs4QhG5yi2qxf3eFYNV139yEjODOIeANy2yxTeQA4AjvL2AsfB3FXV25+qyr6CmjscSskFfFG9uC8P0yLz62nVoWLPy+6Iu2vG3X5JvkU7J8ChhHsddTRZbu6d59RlX8HhfTi4zLv9HD9UL+4zOdMkfKC6L332eLw74u4e19Nl6h/xKAY4hNuOStqtzv7KrMrsV6/w3w+/sktPtQbivlHONJ/DaVv8hLjrzoOrtMsAeML1PKXi7py3OPvSm2qzv8tzEX5mYQgtVC/u/ArHVd2bV6oQd81pee22XaaVBzLAr4xXq3VHp/C6tdlfblScvXOJBQD/YO0tdV714r67SbTH05zjWdUdcZe0xTW4vI69voNnMsDPhCdUu6NTbe0hyfvKs6/kgCr8wPI+2q5e3NfKCTY9prc8muyOuMvi2WOXW9RDHssAP1HrqOeppZctPChUn/1jrlCFb8QvMgBSvbh/WuHlKX3ep/oRd62JFLnc57LZowD+QWe1BuLu9FqZfX5Uh+zPswjgf4VeRsmoF/f+FC9PYszvIu56c6re3R51k7mQAD/ywtGCBgujD49pEX2Uu6XhvyS2GNyuXtw3+shU9JRqz8oo4q41rS4Pc9W/4fkM8J3xQj3EPWZhq3WRHtE7N1gGEAqVcNOPenFP5NAlkwkjvyPuenPd3WDIygYiBPhGoyby6Dy2bi7hI03emZxqBm5BPMVVP+rFPWuJQDOkXPJ8GcRdMtdc3saUzeRigK9M6iKPjvPKsuhLn2oT/X0Wgu0sv0X9lIt78h7ldhdF92LEXW+6B9zdOcJtgQB/U6SNPDqxfLuib9cn+gFqGZazQaVXvbjvDZKmK+4lEXe9i1Xuxsu8nCRCgFAoclUfe3RuWRV9R6FG0V9nKVjNvziVql7cd9oI0yWDe4i73vx52s0+dZW7mABCoS7HQR+VoMlEmW8fIVkKFhOfQ/mUi3t8nSjd07aNuGu+8dW6mYEc6yJBgF6txP1cqT3JP9Qq+UomQtpL/wrCp1zcEx9IUgbNw4i75lyrc/GxOY8RaGA9kWqt9NG5ZE3yV67qlfwdFoOtnBlC95SL+28Mb5dFThxx15yp1y62qiZuUQXL6dbLHi26Cui2Zsk3shgsJVGG6ykX9xnOBsvjQxJx151TL12chWO4DNjNH5rpo3PbkuBbqnV7ZaKMYam3P8f0lIv7wggxSuR5AnHXnUhDRcab1WnuHQGrWdVN3KtbeGNSA8f1raS/HM9TLu4LjJORS9kZxF17WttjmW5Wq53EB/ZyLU87fyyyIvjOSu2Cr2U52OjtXLukXtzxdulsSqi5I+6eq3tRpup+9STpgbV0a6ePTtSK/rU6/YKnyd1C4syTUS/ueLue3TKIuw8VrLoMS1jRXMIDW7mtnz86522oNMT0y32A5WAfzG9XL+5VZ4nQA8r7EfcgMJmd2WzIWDfZgaUUaCjuAxacktTxhclhkrt1FPcgeKrFfXSeBD0hB3EPBs8aM1L3SiYYg6Wc0FEgzb8arbRCx9w5nWobe/RoKBf3JMM4vcLtTUyIu1/k12XyCTqPY1lgJeFKHQVyzPjca3WMnSuYbCM5iNwpF/d98vOKnm3EPSi0ZHJMtRBzBytfdLUUSONLv2EtP3Q4XCVtGYs0yigX93fE5x0jVYh7YGi9EaXmDpAGD/QU9ybDY7+uZ+yMlbGLDbxdubiXNBOfhwwmEffgcKW2XnjTukRsYB0P9TTISsNvV7ipZ+wTLAibSHIoUrm4J+Z5efKULcQ9SJQ2PBXdtV6RGtjGKz0N0vCmjQ5NU3/JgrAJJkGqF/ccwvO4zT0LcQ8U4e4xwW3rPqGBZbRrqpAVpSan3qhr6iwIi6iaRutUi/s22XnNkot7mBB3JeQWiN3nXkRkYBdNmiqk88Tg0DsrNQ29MMyKsIcPSJ1qcU8skZ3nLCLugWOqqZIP9ACHcVdXcX/MZw4FtLIirGGG5mrl4r5FdD40yywg7gGsbrVXc9k6wMHc0tYhc43N/EpU29A7WREU3MEvcV9joowflMUR9yDukwIjZvIayAss4qa2DtlrbObntc3cyWdFUHAHv8S9nOR84S/EPZBEnqym3eXZRVxgD2PaOmShqRIZPqevuD9jRVBwB5/EfYPgfDqfmkTcA7pZdqdbWqzsJi2whll9JbLd0Mi79I3c+ZMVQcEd/BH3+CDB+cRnxD2w5KZ5Di/2iKzAFlYlWl+FXImMGjoRUvJHjjyZsb9hRVjCop/eNL1UNnQhZ334d1PZzuQn+IhQ+8X7DEvuiLsOnGwqTEsYOogKLOGEzEuTJJd/zTxvkis5pYLTnAgGUZLv/fD1vqGVuXfba8vkfRCbatpGNj/sr6d2PmZllZTMVPnPXknJQtbuX6m5ezWb7337q1OIe5CZSkvdK6ZIChB34T6Lp3KV9OVlExPvlSzujxB3EKbYW09qLstJ7VbFyfkI/O5w7+lbGS4uSWiVQWLt49wHP2bZL/Uj7oFm/EUag93rmYoGiLsoJ2slO+kpAwPPL5Sb0ekQ4g7CeDjP5GxNaq2fhI/lrY/S3lY+t3smFNL0TWp5e2vQ6yMXmQ2WQdz1YfKP49V99go5AeIuKO6lkrvc7xoYeJ3kl5s7iDsI88mrAeKDcyWkmxa/+TbDfX5xN6l9HMvFF9q8DOE54h58dc8+tur1mru/AXEXFPfQbcnnLseNy/tatdyI6iOIOwjz2RM5GllcI9p0WfeppX19JiiJJIsvTHsXREYxIO568awx75gd7AUhAeIuKO4tMblaWmdc3pckF9zPhxB3EGbIC20fThBs2vSf9cHap2t2g3XOYHTYs4b3RcTdAMIdBcdsYa8ICRB3MXEPNcnV0mrTWtYiA/IDQtxBkIT8ymbPPbRdhF0fGtu3RoOXS7zYo+n2Z/sRdyPIPfpKprw7RASIu5i4T+XJFdNaw+J+4sElVYg7CLItvyNjgVSF2Pda20fmAjqFM74z70kgWYi7IXQdefd4jE0MEHcxcQ+9lium5ww7a/JYbjyFk4g7iCP99qXNUUIVon/E43mc984EN5x4yotzqvuIuylEaqNHjXMfJyFA3IXE/ZTkknK3UWnLTqcxhLiDOH2yR3bQJiOIx50ymwGf7fPpgwefIDJo90fcNaXlxRHf9lcZCgmIu5C4y64p3zIq7QLJ4v4GcYcMtEiyEvWdIVNBFr3U9ulU8K++2pFfdM+gmwtx15bc2SNuE79MPoC4i4i77C7ukwaFPS758qWJEOIO4khucZ+eIVJR5j30djPOG+zJ/iz0ZQ5xN4hwuPbw0cqXyAcQdxHHjtTLldNsg8LO9qSPCHEHMYblCtE7EhWlykNvv2BI31KiRnb/EOJuFpO3Dj389YB0AHEXKY5LnlQeazUma9mXL50II+6QAXKNaDBOoqJc9M7b1435OfpzJB/YFX+jQdy15nLDYVtqNJ90AHEXEHfZemrOV6/7kgvuDSHEHTJAbp9GFoEK49kwyJ5hg1KKSz4JIP6firhrzqFF99lSwgHEXaAdvU6untZHDIk6clVuMNFSxB0yINEj04bKCFScPq+83bC2JbnmLv5Sg7jrzmFF97xGsgHEXUDc8yUfwewyJOqHkgvuN0KIO2TAglQb+otAFb86uTt/qTXxtzLTKUfcDSR/wo7LGwE8FfdQr1xBvWlI1LNyY6lsQdwhE3ZkylBbkkCF2fDI21eMO26QGJQYz1nE3UTCtbEDN8hTRAOIe/ri3iG5tNxhRNIPJKfyfdwO4g5CfJbqiuQpzjuPrl0y8CVqT+Y8d+H7BhD3QDA+duBcC8wdEHeBketjchW1yYikX8sNJe8Z4g7/Zu9e2Jq48jiOn1W22iBhTUFjJSlYCPe7EEFQaVW8UFFURCripVixWi91t3Wt2skr77P77POsWjUzk99kzjn5ft/AkL86fjKcOSdW0oXDr5hn9L5L5tylTr7kiI9gAu5ulJnIIXcC7rXBfSyhRSEut9KsHcqiAe4Uq4PpbrFH5mQicP/Dy1mdFQ6rHbj72lofcifgXhPcMxvJvIbpcsPilTJrwJ3itZnuoTZkthNZKOPpfvq/j8hG9By4e9voEHIn4F4L3E2PFqmD7u/JOt6tHclqCbhTvJTbuD9hnNE7MZIE3Pf7ehCW7hymg8Dd49a7kTsB9xrgnu/QMnXd+Tl/I37gftoAd4rXFU5fSrd/JOH2L70d12vZX9hN4O5zN1eROwH3+HA3bVqmXnd9zOpvMm+fSgXcKUpnlZuIP2Ce0dtKAu5P/Z2X7JH7NnD3unwvcifgHh/u5aIWqq6Dsl/8wP2uAe4Ur1vKXdwZZ4z2JeD2TY/ntV/2KjVw97yxAnIn4B4X7up3MR0/v7j0UDuOrlHgTjHbJcTINuOMUXsCcP/K54EdUE0p6h5IwN21Li4hdwLuceEu3v0wV3Z6yjPiB+5TBrhTzM4LMXKDccbolN7tI16vWXqWFp6Bu3Nl2pqROwH3eHBXnzfU5vSUl7XDyLUCd4pbpxAjxxlnjJ7o4X6Sv7Jhegzc/W+mgNwJuMeD+2WtVQsu7wg5HSS5cAi4U5SuAveUS+Dg1B/9ntjxlI5OBe4uVl5C7gTcY8HdrGqx2u/wkIfEp6Y+Au4Uu8fAPeV26+G+5ffE7qW0eylwd7K/LpdB7gTcQ8H9mhard0ruPgAQb7Ezb4A7xW4/cE+5N/ol7rf8ntgr0Zx+A+6N0V+WyyB3Au5h4J4d1HLV3X94U+KVMmPAnYC7u/0kh7vvfw6qF6pfAfcGqTyP3Am4R4e7uaTl6l5XRzxQ0A5iIwPcCbi720E53L/2fWRnNHPaB9wbpExmIofcCbhHhvtol3YrlQuOjrhH/MD9/dX+wJ2Ae2PD/TvfR3YcuFPE3j+MqXuNmRBwrwZ3M6cFa6+jX/03Et5fB7gTcG9suD/xfWS/AHeK2vvLZRbyzISAezW4t+a0x4UOODnhI+IH7hMGuBNwB+5vdcr3kW0Cd4pcdqrZo9NgiOoCd3NUS9YeJye8pB1CcRy4E3AH7m/3zPeRfQncKUbv7i5TvMhECLhXg/vnyb6V6UTqw5duG+BOwB24v91XwB240wd6d7lMLwMh4F4N7uqnzTMODlj8W4fmFeBOwB24A3fgTtV7Z7lM9yQDIeBeDe7i9d333ZvvRe06/2DRAHcC7sAduAN3CtPYW9vbHWIcBNyrwV29o8qKc/PtFa+UaQLuBNyBO3AH7hSulZb/byyTYRwE3KvAXb2H+Zxr41UfvrRaAu4E3IE7cAfuFLLx604vtyWqM9zzHVK3OrdE7a74gfu6Ae4E3IE7cAfuFLbR+U+sNSUC7u/VpoXrXbemm13Qfvy+LHAn4A7cgTtwp/Dll10/gJ2ojnAvF6VydWyJ2umgDt9bgDsBd+AO3IE7fVTux9gRkoB7WLibYS1dx5yarng7zK5R4E7AHbgDd+BO0eR+3+kD2InqCveVZqldl10a7pr4gfuHHxYAdwLuwB24A3f6eNm9Lh/ATlRXuJtjWrxOOzTcvdqPnmsF7gTcgTtwB+4UWe5D7h7ATlRnuF/W6nXYndleEB++NGSAOwF34A7cgTtFrjT13//kTjMJAu7V4F5aleq1OO7MbOfEK2UeAXcC7sAduAN3ilP/f/bKWMgyCALuVeBurmn5esmV0Y52aT/4vAHuBNyBO3AH7hSrRwsuEYIoPbhnB6V+HXTl+/Il8QP3MeBOwB24A3fgTjHLTxSD3DRzIOBeBe5qwTqyRE38fSVoyQB3Au7AHbgDd4rdzqM5jk8l4F4V7pPdUsEuuTHZdfED94/uYgXcHWm9TVcTcAfuwB24U/QuXmMGBNyrwV39luYjFwYrfic3KOQdgPv6MV1HvPu3ptwdtIZlmsAduAN34E5EwP0TcBfvizjkwmCbxA/cvzEOwL1f+KN8AdyBO3AH7sCdiKjucBefRFQsOzDYRa3bP7ELpkVwnwHuwJ2AO3AH7kTkNtw/r9fTZ2taadZ+5NvGBbivAXfgTsAduAN3InIb7mZJqtiOvPVzvS1eKbPTCbhPA/c6wX0CuAN34A7ciQi4J4TLI1rGWv9W+Lh2I53gU/tXWQT3FeAO3Am4A3fgTkSOwz3TInXsnZLlY50QP3BvcgPurcAduBNwB+7AnYgch7vp0UJ2ze6p5ju0H3e15Abcy8AduBNwB+7AnYhch/tAQSrZo3ZPtV/8wH3duAH3SeAO3Am4A3fgTkSuw91MSSWba7V5qKWHWrf3ZR2B+yhwrxPca9hYSQn3G9xBgTtwB+5E5CPcy0WpZadsHuqM+IH7IeMI3AeAe2PBfZs7KHAH7sCdiHyEuxmWWrYwYPFQl7Vu7550Be554N5YcH/BHRS4A3fgTkRewn2n9kiifntnKv6kQa8B7sDdSrjP3uIWCtyBO3AnIh/hbo5JNbuRsXam2t8tVF3PbxHcs8C9seBeecwtFLgDd+BORF7CXbzy+7KtIxWv5q+6g45FcM8A9zrBvc0SuP/ILRS4A3fgTkRewr10R+rZRVtH2iZ+NfWRO3A3zcC9seB+kFsocAfuwJ2IvIS7uSb1bPNNOyeqPnxpvtoFbYJ7Drg3FtzZVga4A3fgTkSewj07KBXtnJ0TFZ8RG4y5BPcicK8P3GvYDlUK98p57qHAHbgDdyLyEu7mknaXxFEbB5rZ0Lq9pepLuDbBvRu4NxjcX3EPBe7AHbgTkZ9wH+2SmtZK2o2JH7j3VL2iTXDvAu4NBvfd3EOBO3AH7kTkJ9zNnNS0CzbuCDmvdXsh7xTcC8Dderg/lpJxz1luosAduAN3IvIT7hdyUtWO2TfPafED9xD7dQN34B6lTq0Zt7iJAnfgDtyJyE+4S+0SBMv2zXNI6/Zi2S24dwB36+H+WmvGe9xEgTtwB+5E5Cnc17Su3WnbOC9qf6UQDIe4pk1wHwTu1sP9nNaMh89xFwXuwB24E5GfcDdLUtfetm2cU0H9v5nYBPc+4F4fuPfW8HOc0aLxGXdR4A7cgTsReQr3I9qVJON2TXOgoHX7/TAXtQnuC8Ddfrgf16Lxxgluo8AduAN3IvIT7pkWqWwP2TXNL8QP3JuAO3CXw/1nLRpneeQO3IE7cCciT+Eutm1f1qZhZha0br9Tcg3uG8Ddfrg/EavxBavcgTtwB+5E5CncxatJjtg0zNPiB+7roa5qE9xbgLv9cP9VzUY2lgHuwB24E5GncBe/v7lk0zC1b94Gg/lQVwXuwD1Sv6vZOLuDGylwB+7AnYj8hHu5KNXttD2zFO91GXYBP3BvQLjP1fKD7FG7cc957qTAHbgDdyLyEu7iM4qG7Zml9nSpoHsSuAP3JOCuh+Mvt7iVAnfgDtyJyEu4/6DdEbJsyyhbxYcvhV0Nwa4ywD1a/5TDsfLyLPdS4A7cgTsR+Qh3syz17YQto5zTuj3XWgp3XeAO3KP1YEQv9zcnuJkCd+AO3InIR7jPSIHbkbdjkqNdWrgfDXth4A7cI3ZSD/fKSTaFBO7AHbgTkY9wLz1MYdPExDskfjU1tKGBewPC/bOafpL2BOBe+RaZAHfgDtyJyEO4m36pcK9bMchsn9btfw99ZeAO3CN27nACcJ893M79FLgDd+BORP7BPTsoNe6aDYNcFz9wHwPuwD0puJvdlUR6+Zo7KnAH7sCdiHyDu5lIZzV4kl3Xur0lA9yBe2JwfzybjNyvPNnFPRW4A3fgTkSewX2yW7v/SvpzbBI/cO8Jf2ngDtwj93MloV58z2FMwB24A3ci8gvu5jOpcqfSn+Oi1u2FCFvlAPcGhPvtGn+WrUpijfy0xabuwB24A3ci8gnuN3NpMTeZbjZr4d4W4drAHbinJqEPt33vKXYH7sAduBORN3CXIiYI+tMeo/Y3CNGOgwXuwD16V0cqiXb45KmtE9xfgTtwB+5E5AXc16TQ/Vsp3Slq1+wHwXCUiwN34B6j3ZXEu3LgzR+/dd7iLgvcgTtwJyLH4W6WpNJtSneK2l1yguAHV+HeB9xdgfuDF4nD/X9b1+w58HL381PPft23Y8eOrf2JdrWz8/WuXbaf4QrcgTsRkXNwPy2V7mKqQxTvSx/cj3R14A7c4/TvSgrN1ucyZ7a/3Xz55t737f/ab+EmN8AduBMROQf3zIKSus0X0hxiv/iB+2XgDtwTh3uy76da0+zI9ubXz9ufWgR44A7ciYicg7v5k707YYriWuMw3hIUHLxjJJFFgQJk31E2cUVABZRNCCig4wIIuCAaMYKJwycPLtcr5Bqd7n93n+7zPF/AN+9UpX7VnD79i9S6tSHusOaB1u0PMjuxD9yBu6v+/GPHpjqKT85tTptw2w1wB+5ERNGDe0OpErsVDeHt8Kz4gftMZv88cAfu7nrdu2NdLZfWlhdTwB24A3ciAu6Zwd3plGq3OrwdXtS6vTHDW+mBO3B32dKOnbX039wM8egMcAfuREQRhHt3mZK7fYmwVjgp/vjSRIb/PnAH7i67PGCp3D+8JHvk1PFp4A7cgTsRAfcfrUnq3bNhrbBZ6/aqM8AduH+vQ5qRVud3rG4l910Id0cCd+BORBRFuHdJwXsxpA1q/3CQTp/PdADgDtxdN319x/KmBpbLgTtwB+5EBNy/35hUvD+Fs8ErWrfnH40y3BuBe7Tg7ryY2qFLrwqBO3AH7kQE3L+T9jqWQ6EssKhEC/dzGU8A3IG7h7JagPsHu89tA3fgDtyJCLj/WzVPQj0cLqlafBdk5nQG7sDdS5vI/dP7qi+XV4E7cAfuRATcv532k6OVIewvsaB1+8HMRwDuwN1TBcj9800zLQMFQXygCbgDdyKiaNex+uAAACAASURBVMK9qFGJ3rpk8PtrEz9w7wHuwD3oc2HvOOf+pflB/x+7A3fgTkQUTbg7p8NWr9cuaN3u5jZ64A7cvVXz4jpi/1LLyUXgDtyBOxEB9/9Xe5WSvRcCX1+X+IG7m++/Anfg7rXpFcD+VcVvfT0xA9yBOxFRROHuHJK6tyvo9Wm/IZUubQDuwD2MK5T+LIbre07MbKSAO3AH7kQE3Pc3mq+Eb3PA21N/fOlXN0MAd+DuvdQaWt/TkUHfvqkK3IE7EVFU4e5cU8K3rD3Y7XVq3V7WDdyBe1gfLVjmcpm9/fHep6fuwB24ExFFFu6zUvqeDnR5DaVauLv7gwFwB+6SCufB+j66D/pCd+AO3ImIIgt3qTvTjUVBLu8X8aupjyIP9xLgHl24OzmnsPq+q91XNn14TRW4A3cioujC/arUvncC3F3iP1q3X3Q3BnAH7qp+517I/d0rBO7AHbgTEXD/UrJPid/bAe6uR/zA/RZwB+7hwn1oZAuq73/qvjYC3IE7cCci4P7fHkr1ezi43d3Quv1Awt0YwB24C+nOQ/d/dH1De14GuAN3IqIIw137imdTYKs7LH7gPuNyDuAO3JXlLPVi9f3nZbaBO3AH7kQE3D8lvVQxfzyo1Z3Tut31e7XAHbhrW+yH6vuaei986A7cgTsRUZThPi79CNOvAW3uaL4W7hNuBwHuwF3b0NDvR7D63oPuOy91D92BO3AnIooy3J0mJYBLA7oRslbr9qozwB24mwH33YbnOtD63jo2gTtwB+5EBNx365ISuD6QxbVWaOF+3vUkwB24+9Dq+hRY39taCrgDd+BORMDdcS4oCfygJojFVWrdnnc3FnAvBe5xgbvjjCxB9731a47LAHfgTkQUbbi3SRGcHcDeknVauB9zPwpwB+5+PXWf427IvcdlXgN34A7ciQi41zwxBME/3B3xXZAexGwU3POAe4zg7jjD71fg+le1bAB34A7cich6uDv10mMno/7v7bbW7Qc9jMITd+DuY0OvB7jX/auWvN8LCdyBOxFRxOFeVKJkcK3va8sWP3DvAe7A3Uy47/Y8lytm/tfWZeAO3IE7EVkOd+e0ksEVDX6v7ZrW7X0J4A7cjYW746QKeOz+pRMp4A7cgTsRWQ739iolhKt93tqo+ONL1cAduJsM99221+cxu0buwB24ExFFHe7OfSWEFxL+bu2Q1u2lnv5CANyBezAtLvFB1Y8NeJM7cAfuRESRh7v2IfZZX5d2pkoL905P0wB34B5UQy+WeO6+2zNPb6gCd+BORBR5uGuPjT/2dWkTWreXjQN34B4JuH+w+/O5Ys673wTuwB24E5HdcNde1DLp486SjVq4N3sbB7gD94BbLci1/dDMe+AO3IE7EVkNd+3V6Od93NmM+C7IR8AduEcK7h8fvC9v2fxZ1d4C97sD7sCdiCgGcJd+jLTqjH87+03r9osexzEJ7hXA3RK4f8b7mrUfVu0oB+7AHbgTkc1wT/YpOfzQt5XdEj9w9/oiLXAH7iE2UvBqwMpzM8Up4A7cgTsRWQx356Ex3zT61x5r3X7A66Amwb0KuNsG94/lLC7n3puyTO5LwB24A3cishnuDaVKELf5tLHJPC3cZ7wOBNwthPt5A//7Lk9vrp8qtufge+8b4A7cgTsRWQx3p1YJ4jGfNtasdXtjUZzgXgbc7YX751LlWcd3Ad8Rf7nPp4A7cAfuRGQx3MelH2Hq8mVh7eKPL014ngi4A3cDGxqZXny9uTG4nnvyxMv++SPXW+In9zngDtyBOxFZDHenyaDr0b/RFa3bq9pjBfd84A7cv91wjryR8vLywjcbS1v3VoI/Yz+1DdyBO3AnIovh3qU0cVm7D/sqKtHCXfCSoUlwzwPuwD20VqffvJ072R/gIZ0t4A7cgTsRWQx354JZp1D+Wb3W7Xl34wX3NHAH7mE39HPWxs3+QE7m9D4H7sAduBORxXBvk773mZSvq+aJFu7HBDMZBPcEcAfuhjScNfjM/xtuTgF34A7cichiuCekML4qX1eb1u3pWeAO3IG7Xw29WFox8JE7cAfuREQxgbv2KMpB+brGtG6XDGgQ3JPAHbgbZvfCdV+/65oL3IE7cCcii+GuffnzqXhbXeIH7j3AHbgDd5+7/LbfP7h3pIA7cAfuRGQv3LXXLTaJt9WkdXud5BC+QXAvAu7A3cCGsu75JvdN4A7cgTsRWQx36QeO8ruly+ou08JdY1PgDtzpe72b9wnuA8AduAN3IrIY7s59JY2vSJfVqXV7RQNwB+7APZiGl3p9gXvLMHAH7sCdiCyG+6TwIz7pkiLhrhpKtXDv1IxlENwbgDtwN7Ysf95SfQfcgTtwJyKL4e5cU+J4Rriraq3b88djB/dW4A7cze3nS37A/SZwB+7AnYhshnu2UscPamSrSixo4a56cxa4A3f6oXL8eEf1EnAH7sCdiGyGu3PbtE8cfapHfBdkV/zgfga4A3eTGy724RtMGR9yB+7AnYgoTnC/o+TxOdmqbmjdPqaaC7gDd/rBVn04LVMI3IE7cCcim+GerFOeJD8qmuqw+IH72RjCvR24A3ezG9FfC/kWuAN34E5ENsPdqTTw7hbnnNbtBxLAHbgD98Arl98tsw7cgTtwJyKr4d5aIZyqVHNb+ni+Fu71sp/QILh3A3fgbnqFU2I1/wXcgTtwJyKr4e7UKolcbd5I0gvmgTtwpww6LlbzKeAO3IE7EdkNd+nj7QXFoRT1x5dO635C4A7cKZOeadV8ArgDd+BORHbDXXug/JZgoIdat5e1xxLu48AduJtfeYtUzS+BO3AH7kRkOdy7lEq+5n2eZJ8W7oeEP6FBcD8K3IF7BPpLquZ+4A7cgTsRWQ5354Jwrry7nse5qnW7YCLgDtzJZc+BO3AH7kQE3JVwb0sbpZyDWrgfU/6EwB24U2ZdAu7AHbgTEXAXzpVYEA5W1epxmlnxx5dmYwr3UeAO3KPQK+AO3IE7EQF35WDVaYMQeEzr9tvSn9AguN8F7sA9Cr0D7sAduBMRcFcOVlQinKzP242Qo+KPL10F7sAduIfYNnAH7sCdiIC7dLIrSiq3eRrlvNbtdcm4wn0SuAP3KJQC7sAduBMRcJdO1l4lHG3MyyStFVq4i0kK3IE7ZVgLcAfuwJ2IgLu05rQhs01o3V7REFu4/wTcgXsk6gDuwB24ExFwlzaZJ5ztvvs5ko1auHeKf0KD4P4IuAN34A7cgTtwJyIL4e48Fs5W1u56jBmt2/OPAnfgDtyBO3AH7kREsYJ7ttLLla7H+E0L9yb1T2gQ3LuAO3AH7sAduAN3IrIR7lIyu77KJVvr9vRT4A7cgTtwB+7AnYgoZnC/owRzj8shHmvdPib/CQ2C+1PgHhDca/lfF3AH7sCdiIC7UXBP1gmnu+FuBukrsrudBe7AHbgDd+AO3ImI4gZ3pzL8Myr3tW4/kJAvySC4HwbuwB24A3fgDtyJyE64Kz99lOfqrVDpZ6B2q9f/hMAduBNwB+7AnYiAe9hwd2qVN0J2uxjgtNbtpUWxhvsscP+bvXv/a+JK4zg+S3mJBVcpVUCpijcUrREVb/FCbKAyoXRbG7QaXNK6EIGtiFzkIkjzl6/dvlozIZc5k+c5MyGf7891zplnmL7ec3IuwB24A3fgDtwJIQ0K90Mdgv27Zt5+91eycL+m8AiBO3AnwB24A3dCCHAPHe7OXcH+fWU+3N0v6/YajoGqC7g3A3fgDtyBO3AH7oSQRoW75Kzp35+btt73X1m479N4hMAduBPgDtyBOyEEuIcPd+c7wQ4+M238jqzb2/4N3IE7cAfuwB24E0LIHoX7gKScfzZs/F+ycH+k8ggjBPefgDtwB+7AHbgDd0JIw8K99YVgD++atf2ZrNuNvxuAO3AH7sAduAN3QgipG7g75wR72HHIqOnLsm5/0rfX4X4HuAN34A7cgTtwt5bsxFrnydzIm8zIkY3OxW2XihDgHjrcRXdkvGHS8q0TsnD/VucRAnfgToB74CRalALcgbtq3Im348OzMW+d08nN5a05ikOAe5hwdw6HdQDSYVm3XzgI3IE7cAfuUYP7fF4nHxLAHbhrZWFnc71sseND+zfAOwHu4cFddOC733+70ocvvVR6hBGC+wBwB+7Avc7g7rjLSnLfzAJ34K6R3pGhqgWPTeWwOwHuIcFddKr5P/zPMz8n6/ZTV4A7cAfuwD2Cc9xzcRW4x6ekpssAd/J3UjtJnzVPb64y5Z0A91Dg/rhNsJPNflsV3c5Gk1rAHbgT4F5TNmI6Y+5D28AduItmLDNqUvbJXJaaEeBuH+7OqzD2Uh+Qdbvhhjb1CffbwB24A/c6hLvTNKgz5j77HrgDd7ks9Bh/Yq6PpKgbAe7W4S65PXjb9z4bvS8L96/VHiFwB+4EuNeYrnWdMffRaeAO3IUyNxPol6HRHBNmCHC3DXfniX3y3BQ+fOk34A7cgTtwjyrcnd5JHbkPrgJ34C6RRG408Du6SPkIcLcM96eSi0Qv+mrya1m339d7hBGC+7fAHbgD9/qEuzOW1JF7TKB3wJ0s1vRl2cMOMwS424X7wUuC3Tznp8UfOmThPgDcgTtwB+4RhruTGtaRezwD3IF7jUlkalw/fWCNIhLgbhPuzo+C3XzY6qPB87Juf9GqV5sIwf05cLcE9xv8rwu4S8PdSfToyD0/U+scY+De4Omdqv37cSZLHQlwtwj3K6cE+3mnensXj8vCvV/xEQJ34E6Au0Tc8YgexQTcGzsb6fL7Fg2P57aauiZ6e7um1zYyPUfLv9vJXipJgLs9uDv3BPv5oHpzX8q6/Xh3Y8D9KXAH7sC9fuHuOCM6RzHlh2vbkg+4N3LcTJm/ysn9G38cFOD9PcedOHKmzCrW9WmKSYC7Pbgf6rDZ0daHsnC/pvkIgTtwJ8BdKCtKRzElx4A7CZTEfOnDvTLlB9Dd6f0lX/H0O8pJgLs1uDt3BTu6r1pj38q6/cRV4A7cgTtwrwO4O6tpHblP1nIUE3Bv3LSUWjOdHl+o8s9SG6V2SYrvUFAC3K3B/XPBjp69XqWx72Th/ovqI4wQ3PuBO3AH7vUNd2da6SimA13AnRgndbTE2QAzvn6/aSq1onWEkhLgbgvuopg+Xbmpn2Xd3vYYuAN34A7c6wPuzsSs0lFMwTfkA+6NmuzUrvntsWXfCyaahnY/iBxFJcDdFtwlT+W8cNCasD7mke4jBO7AnQB3wWwPKR3FFHiGMXBv0CR2P/mpCZN/n9v1qsdPUlYC3C3BvfWFYFdvV2rpe+HDl5obBu7ngDtwB+724b4jXJ6WKR25x4OOdgL3BnX7ZnEZRzdMv0J3/e3EOiksAe524C6qwvuVGron6/YnfcAduAN34K4H9zfS9cm+VtrQfTnYUUzD9Q/397x15lkuruLRXuNruLnijZLSXVSWAHc7cO+WPBTpZvl2RA97+pjnyo8QuAN30thw3xQvkLtfSe7ziSDdmYqHAnfJyf4LvHXG2Sp+7DPZIJeZLn6Oky3UlgB3K3B3Dgv29XL5Zk7Lur3KfHrgDtyBO3CvLbPyFXLfKMn9WJCjmJbCGXGfFLxvzv4xzvtRoZlWc8U7Qw67VJcAdytwv3XCxtbqBy/Iwv2l9iOMENy/BO7AHbhXy7y8htsVavRW6RDVpTnzviRlmt4ybFZykW4Tb51hskmptc1OqniuVYbyEuBuBe7OZcHOlj3M9Lms209dAe7AHbgD90/5II/hDY0idSodxTRk/pkhNNl8NZzvhUAfDWSmaGb6X7uJro2US+5k52rTRLbUR0DRKtcY09wJcLcD98dtcp291F2mkWeycD+v/ggjBPeXwB24A3dDkEjkg0qVFkeVjmIyne+djYcz6r0keNNveevM0uV96LG/v7rGq84ce51ZTBRdLVE05p5MUGEC3G3A3Xmgv2a0WdbtHYcaCe6ngTtwB+7VsixP4UmVKrkLB3TkPrpo1pFpoXYNm3Uk99ZZ5q0zSsL7c0d8xfEN9/+f9jXf5J3HnkrqbqFKCHAvnZ8Ee/usdBOPZOH+tf4jBO4NCPfD/K+rfuGeUaBwu06deid15J42WyY6EtICUcnVCJu8dUbZ8ZZvxDWD+x8vpnd20pj3b3mwnRoT4G4D7n1PtJEqffjSb8AduAN34K7B0MKsKBVq7qiO3GNGM0eEtnHPm05slpzUNMRbZ5J27wKLzYLh83HfNX+9XXjJLu8lX1NkAtxtwN15qj0Yvk/W7fctPMIIwf1H4A7c6yGJeJhwz2lsj65VqtQxHbmb7OuRigm1ORHiJ1Y6y3tnEO85ArOFOxH5h3t+fbHCi8cGnQS4W4H7wUuC089/2H39q2dl4T4A3IOmH7gDd61s58OE+xEFBq8n1D5y5pXkvt/3XtqrUk1uG977iuT9LvLeGbyhnm+1uGdV8bjJ51Khzl3v1jLHKDMB7jbgLkrDEvi5Juv2F62NBXfJ8j0F7sBdK6uhwn1Lg8F6uw26y0py3/Q7Bi12iqvpoHdTSD8xkPEKC3tN4J4fbS/4l3PrNc2cIgS4B8qVU3L9Pd6tOaBvbdR4j8KdEXfgrhZRii6Ztt6lomDFcu0oHcU05e/k+ZTQioR42vTGeyXvdpj3zv+Au2c6+mwqONzjU4U/7JxkljsB7vbh7tzTtGG/rNuPdwN35rgD98jFnYyHCbI5ldWec4oFexfTkfuQr7krb6WamzW974TkfadTvHl+410V/K7saPzMTsHxS5k345tL6V2vduG/dj0788cZcifA3QrcJbd9+bXPe+2+X2Xh/o2VRxghuH8j2JXze+5dA+5RybSoPo3H7VyVE0lVZ2KsDerIfdbPclGx80uNJzU5s5I3e4Q3z2eynpO/ptyycN/95+NO7BT9vQwV/nPPqU7xcUpNgHvd8afZe+k7sm4/cbXR4C65AuEucAfuSukRxWePcfsqm6MPtmiWrEvrKKbqW3ushThZRfIEpvxR3jyf6ay4qne82jZBi8nyu8d41qeOZqk1Ae428rlgj7/wXvqBLNx/sfMIIwT3c4JdeQjcgbtOFmSnbH8w7sCwBoHjb1SL9l7rKKbVKg27YgPuAfbMfCN6rwu8ewG+l3atIakKdyfhmQY/4/kC9TyRTmpNgLuVfCfX47bvCy/8uE0W7pbqESG4S26z//st4B72LKxGYEEYc1Q+qBB4cFu1amNJHbnHqpwdtRLmk3pXH5vt77HMxSrul1Qd7t6NH5Plv5o5zpYAdztdvq01kfqyrNtfWXqEEYL7gGT9ngN3Rtw18k5YnidNO+CO6BBYWSGpYZ1u50cqtio4zXzD+J4nZH8UYTGkr3gOSpp0A8DdGStYRxL3rApes7akmxDg/nda/ynX5VMXP1331glZuDc3Htw/k6zfF8CdEXeN4bx1YXeuGXdhS0nA73Qrl+1R6vd4haOYJI9/Mj8q0x2V3f+S189Phit/1vmBu+fvxvNfuZ45XytUmwB3K5GcSX3u02W/kXX7k77Gg3u36NreK8AduIsnIT5u/N64D71KAD4wpls7d0ap42ey5ZoU/XkkQHmEp1Uxp9rPB2Lhrkvx9mBwLzye2LuMwrNu4QzlJsDdSi4el+vzp7NNu4/Lwt3aTI8Iwd0RPcDqNHAH7uIRt2csaw5gpc0V80tZ5eqNKB3FNFxmj/N2yRHvwSA3LLyJTi9vYNUsVvmRwhfc18r+EuWZ/jTqUm8C3K3khmCn72iM43/MhYONCPdXkiW81L233jXgHoHkxM2ZDNALrdniAXa4McyK0lFMyZKj4S1DYW/HOC19n1newWrJFBbsbUC4N5VfheJZZc2yAwLc7URyNvpfS0hbX8jC3d5wcZTgLjvd6CVwB+6yORmPhJUzWnCvvNBTIqtpnY5PlphxlJ2SnUof4HYT0j+OfGCIt1o8T709INy3yk9k98yVyVFvAtytpFVy/5fHf15zQNbtZ683JNxlj7A6ewi4A/eIu73UkGB1/arBPb+jXcPpdZ2Or+8a+0xsyrYQaCHiGen73I/cKydb+KPOrBMQ7jvlF22vsUUnAe724e78R7DX9/685H1ZuJ+39wijBPfrHaJVfNS3l9414B5yXJWB7iC/tadi+fodc5+Y1en4YNFRTKljwg0EOv9oQ/w+5xO8ipXSVc3VvuBe+NG3WOHtG6LgBLhbygPpsfGbsm7vsDhWHCW4S56O9Ud+BO7AXWwkb16Fm4EYNqUH9/yy9pDu2JBOx2OefdbnjgpfPh3oSc3Jf2OdSfEyVshKtUMS/MC9JV1hus1SbWvL/8feufY1kWRxuMyoQWTdDMMmEIWJMIt4IaKCYruaYGCWThYva7K6JrPkt2sSgZFLQiCAXMwnX28j3TG37q5TVR3+z8tId7pPpdqnqk+dAgDibgueKRmfM6lv8BXOBwKbUClxf843juenIe4Qdz74BkgqotirJ5cmFPdq0EscSi/RuEM7Msy7Znif3WYRdYKFxBmsiGzCZqu3JO2I+3qzyjF5x+9hAIC4W2f0d36XPdPN2DO+KR4f3p1Ucf+Bbxw/XD7dOX0N4i4TD1Fqtr0dXHKU4k4vhtk9oivPf3UsvcB/Dew6hwlgXu8W5pDo3hDjb0vL2hP3LeN7ktXafy0a22IfEQcQd0G85HjdE3wLTH7kocgmVErc2b84m/vQBMQd4u6Y5UOiAuSavT2P9CVScw+vR2njqXcRhfNLAnhileDcOXu3GicpozPgQadsQKzF2tTW4q4Xk03H1h6UlQEQdxni3n+dp2Zf47z5klDZVEvcf+Is7h96X0LcIe4ONbO8Q6XIJZuXlK/SEssRx5Qq2Wc2zqKFeYITz9sdy6zQ3GgQORr1MfbVWRvi7i2bV0dMfpc55jMtCUHEAcRdFDyTqe9yts0/dZ9ccb81xNvcPzy4CXGv5TYeXW0TLWfoBPkvNi9qg1jcq9rF97RhLRJVxhnYj5Gc1/bm9h6qFtqrIGGmzijb+LvqaiHuldAx7wMBz3ahqxSumt+u5b//iqTDfRgAgLjb4s4v/C58fIavaf5VaBOqJe68l/l+Hgid64i+BnGXwXKBUNurk3YLhOgZanOvhhcOSCO7n6y6ibLd+9RjZNeUOVpGD63tsC3XJSxY2x+gToh7mmXAAwBxJ+NvH1RlsP8ki/tdgoiev9EJWzFB3MXP3lVGwqQ2aH+6Li3AVcMXSRNmNuZd5O1h+4pcprys2YIP/dRIqOWmBJbEXfPXOUPEebEhACDuNnjSq6q4C84/Vkzc2VOKmA5N3XF9X4O4i8W7vUJulvbFOKQJ8dVSkXBOd63HPeLuYGI1S3ybsXTFi+76B6mWK0ctiXu63hmMSfADCDmAuLvTg7g65r2TLe6nicI6/s7lfQ3iLg7fdr4UFqDFDi5xVdRUc3CXTAt9EdeIu9/Bbc6RX50WOSwHsui3n0aDLfObrIj7et3vMNbmjyHkAOIujleKivu44CZUTdzZW6rInrl6z819DeIuAP3AU8wHe6pi5rMrDq60IjBNpJTeiJKEe7nkEm+fd2LF8R0h16gtBfPFSuqEp70HjCHZdibu89v1vyNo+JsIHpoA4i6Qf6gp7qLDoJy4/0CYxPTfvnOjEHdH4u7tOA5Sua3t4tz64WqsJyzSBh29ZdfFzlYnF/PlNf72ng26Q9wXHN3lkdimyiyOdK3PFXb9nkAg8KlgSsd01TbK6AS4zbiHVxqtzl7UMOMOIO5yjHVaSW9/K7oJlRN3Nk4a4Ot/v33/FsTdNm5aUag4W45+D7sSVmhmggtH/o21BD+Djx66oaU0Z0XTsz34sXOhje3KeOW4T+Z9Db8DOe4A4i5L3LtnVBT3FxD3O5fIozz29uzz1+eedbupr0HcO4xFZ2W4oxmJ1z45v5TJDHBBc0FTOa35t4tfuyhx51FVJhnbbJobltFQVQZA3OWIO/9dOnnkcgjP5FBP3NlrcaU3x06defrjjbNmpvrMPB62wOM+y0ydbYcZiHtHEXa69WVZ8g1oJ6etnJbF1Bfxexck7pbquEe+DR8njz9Mh1qNqFHHHUDcpYn7tUH1xP2l8CZUUNzp1qcCiLsqON4rnXBnH2B+N+L4ibYWRhTFiLtuHE+22jk19e3DoiFrvVUiGHZOBRB3eeLOppQTquv9woOgorjfuwS3hrh3Nj1xx92kgiiKoeL8kZZHFMWIO9tpNeKqK+76QIsEGwM+ruNvACDu1vxwSDWhGhbfhCqKO3txHnINce9o9jl0kyDCKIJZDk2VzSCOYsTd+B5qqW1xZ4HjmfpkysKAuQALBBB3sdxQzKcu34S4f+EK5Bri3sks8OglvkkEkp5wikdbBZAsI0bc9wx/r8XbFnfWdfxxqXmSe9F4SVuwQABxF8sbxXzqioQi42qK+4WnsGtCnkPc5RLJcukmc4gkPZySIdKIpBBx3zQesNa+uHt32p1GN6U9pWCBAOIuGLX0sPfPEkKgprizO79BryHunUpyjU8viWJ9KjkcFiN8aStUlhEi7qZiS8X2xd14YDLU7BuMZdzDUVgggLgL5r5SOvVARhMqKu7sn4Pwa4h7h1Lm1UtSSQSTGD+vtkpgGyYR4m7aOnXFgrjrpeN/aLbHQtyY9ISNUwHEXTijv6ukU+dkNKGq4s5e/QLBhrh3JOv8ekkB0aSFY7m/HNLcBYh71hjlJQvibqzZqRUbf8FWq5EBABB3Wq4qZFNnpDShsuLO7vfCsCHuHciezq+T6KuIJyWROMcnWhHxpBd3ZkpJClkQd2Py+qSv4fk3W+XiAABxp6X/ujo2NQFxN/Ma5g5x7zwGeLog86LOICHJANcn2joiSi/uplXABSviHj9OZtJmG46uI8bzr0ECAcRdPMPKyNSpboh7Db/C3CHuHTeHu8y3kwSQ5k4H5wlVfQUhJRf3DeMRJSvizrYNR+426m/G08/rkEAAcRfPNWXWQL6U04QqizubHoJkQ9w7y9sTJOXdTAAAFc9JREFUvDuJX0NUieC+LWYUe2aRi3vWNJJ9b0Xc2azByQ/ayJRBijuAuEuhTxGXGrsAcf+eCZg7xL2TyCT4d+EjhJWGEf7zqVGsSaAWd6N9V6tpS+KeMqxsXa3/0mSp2sa0PAAQd1JuKVK85CdJTai2uLN3l6DZEHfMtzclj8BSsJglaKss5typxd1UaSmjWxF303x63UKgppoySS8cEEDcpXBWCZUavAZxr8sT7MQEce8YFVwm6cP6IULLnwEaK8tizp1Y3JdNZTe3LYl71jChvlOvt5pq1oxAAQHEXQ7PlJhyH5bVhKqLO7vzFKINce8I9rJEnVgfQXC5D7LiRI0VxTCLVtzZnvGYmG5F3Jm/eQZ7znQ9+1BAAHGXxJQCJnW9H+LeiO6+81BtiLv7ydOVoMCcu2u8/SNzCC+puO+bDvJYEncWbCrmptclO1EoIIC4S+KmAoVlrkprQvXFnbGJQbi2Ku93IO42CRcou3G0CxHmyWqWsrV+xh6qlOIe3TGlPOmWxD1kKErTU5stlTNVcMrDAAHEXdpdPJcuUr9dkHbzbhB39p9/Q7Yx4+5qlnK0/VhPI8b86CKeS831IMZ04m4u2VgtWxJ30wZOXTWdLGY8r4bdlwDEXZ6494/JFqlpeU3oCnFn3bexFxNm3N2ceZEg78llTONyIklf5W95FmGmE/eEqZR7zbx5K3HPGvYi1sx5NqZ6NdU9CCCAuMsTd/Zaskc9HIW4t+LVDHwb4u5StHUROyxW0DZ8Xo4EBDRWNI99s8jEvaZAat6SuJsqPmaMSx0Spg6mBSCAAOIuUdxHH0nVqN43EpvQLeLO+vsw6Q5xdyWZDSFdWQ9FEGvnjCyLefJ6lhBrKnE3T7lrW5bE3bQC1SD9+iom3AHEXR1xZ0+kbtA5JbMJXSPujL1BpjvE3YXT7QtxUZ05voJwO2Re3GaYy3sIN5G4G+38U7JMwpK4+yYNvfd4bUpNMaDAKAQQQNxlijt7LNGixvpl3rmLxJ1dGL4M6Ya4uyzxoiKwN+vbaB9HzB6IfPhuY40qkbgfTJoODOpWxF03Knok+/XTnHkNCTZfAhB32eLeL3F/zgmpTegmcWfs3jhqukPcXUQ4Hxfbn32LCLptesq62NbyHiLTnUTca9aRVtetiLtpfeofh/rMmU2TB9A/AHGXLO7snbQE6nG5TegucWfs7kN4N8TdLSyKrxinz6G6jN1Bllf883cD6xJIxF0vmQ8tWBF35jH+LD4vQo3HGp0PAIi7NJ5LcqiZmxB3a5xGqjvE3RXsiJ7A/UIghtDbGWSlpDyAo8UdxJ6/uLM18/hV81sRdzZiODQWZSxb8yJrQIf9AYi7fHHvllNZpveV5CZ0n7iz0elTcG+Iu+okN72S+nS0iFayysCWtEewdxPvSPiLe80uTNXk/tfPK3PfaFw/KDFn4D2LB2tezmDvJQBxV0Hc2b1LMhTqtuwmdKG4fxxl3T8D+4a4q4w2EpLYq715uKAVIn6pM6gH+STagLe4ZwdqZPtn+92pduHIEdwPQNyVEHf2QkKa+6NuiLu9Wff7yHWHuKvLquwpuUAJjdAuMb/0xIfQIUZanMWd+WpykLS0zcZJ1Oae7SFRBkDcFRF3dlW4QJ26Kf2mXSruHzl3AzsyQdyVJJiT/2zWdzNoiHZejQQ9ugoeFlrArDtfcWee2sHQiq0STxu1RTszcagfgLirIu7simB/Gnwi/57dK+6M3Roeg4Tb4X8Qd0Jmc2o8nXU/1L3lQoSVlDL/m8YL2EuVq7iz9HcpUdZfhOnpWv2fTDEAIO7KiHv3j0L1aei0Ak3oZnFn7MKvjzDtDnFXKrddoXVrehnq3pw5pf4/zZaR4MRT3PWL3w3UihbfroRma08R3mIAQNzVEXfW/1RkQZlpFZrQ3eL+kWe3Z2DiEHc1mM+H/s/evf+lceVhHJ/6soqut3oBUYlYo0YTtSZovMRIK7SOhqRR45rABmyLRNkieBdRmf7luybZdhtFUM/Bw8zn/Ut+M+E5SB5mzpyvWp/QVPc8goptV3bYPCyKqOKueRMXfobzOvfDIsEL+5cmD+h9oLgrVdy11uIdCtn4oxJLWPLFXdOqV591UMYp7nduJqbg5ld9v43pnFewqfag4fxemAUTVNy1iO/iPbFAoT9GP7n4rXeyUwMo7moVd631g7V6uxmK+3l3L19z0ccp7ne5R8ZnV/SsCd2dZNVyS0SUW7HTmJN1EVLcL0xO+vRgQyH3xfT9yxYhS+sDxV254q61Fmef+z1FertJivvH6+6j/6KSU9zvxkYyo/IH9fz2DGuUS7hSwRXbCjL/VkRxvzA76dM+9bNonm/Zm9uX7TEb2qb0geKuYHHXqpuL0Jw6VlVZQtMU93Pvf31+n1pOcS/2znZbSv3P6mjgiJXKscXpVM0bJdkd9szcurhrXtulPyuUzH04TMR+fOmx+h6eSwXFXc3irmnj0svfVy+VebGmKu7nd0zKm7/moJk8mijuwiwn0pHSmMeil8V58PFSNapOsN+02zgi8pbFXdNiOb7/1HS3uC/2fIffl+NE/RoHlQ8Ud1WLe++Y5HNKvhlQZwnNVtzPDU80T3PlneJehGvt7enKUvrAnk+3MaHzsnWMKrtkusPfxvetWxV3zZ77U+toJ+4/OClzZLaiZfaW3cRM7t+PnVMNoLirWtw1bWBNYmvq6u9V6KWasbifq6vqGfyFS+8Ud4k7LHZT3tL7zN5Mt7OGF++bnKi8Zl5HNsGi3by4aw3hW//dQ8kS/GUHrFTcNW1C2kzO6XqlXqhZi/vHWyetVT1rLzhuhuIunKct5tb0Ev3Y9qZ2Od39y16m+jF/eiYdcA5R3G+YXuyW0W2kNIDirnhx14YrpFyudTVVq/U6zVzcP/t5qani+fdcfae4C9oRfRxzlPzVt0zWt8yjj/9n0l8C38Mi0ZbAjofifgOO25yrNHk2rwEUd+WLu6a9nxJ/CGTfE9VepQWK+yd1Lyd6fhh89W82v1Pcb35dNhTvzJjl09ubCobZ8f6XQIncQdEz9mDcuUxxv2Zs6Zqb/r3OqAZQ3EuiuGta1bTQutT4qF6912iZ4v6ngZdVE/9sGq149NP029oOF8Wd4l7Q84vhQKfDdNfdIil/GzdRPuuOlNLSNRzG1o9nPRT3glUmb/RtZyOtawDFvVSKu6aNDd4Ttkmmr17FV2i94n7xWvzw8Ei96t5R3O/sKrvP5j9xm/QjXO/V9Mye8vsvho5CTl+3bde/fbAffeOXtMnHV4JfzDaj9thue3hjiOKeX8Z27eq+EYtoAMW9lIq7po08FvKY6ldNA2q+Pop7aSinuBf58dPQTls8uJdqsMblNj1zsJsIqdP+5kKzvuOz9WAsfZLaOv2yUKcl/UNnF0p3BTffpOyxYKDb5wzVLFPcc6UUvNYcstm0l/97YDaPK8R5quqLrK7qu2V3r23+Tdkl/FbgEtbzG2H64r5uM6/dZNLvj7V02lNbC9a8zBbZsvttbaE76H2ejdlwIv7for53knK48x6Ovy/pDkHIJE8wRBYyjjJ7uiXrTyaTAbP8ggqZmTC/XehAWk+8jP94gJJVXdX84oankjRO/zBGgDBLcYfJfbzBsOA4TGd3z7p9OzOhubk5CS15uWZmJxEPJLOd9jKHe/N/tzX0QmdcRI/kNPcj00zH7NX//if+dBoL5+3uy4k0J8kApW5gYvRF1zVHLb1oXmolOVDcAbHcko6i9+yTrQVktuMbuZ+ocK6f0NoBs1zEqP/u9dRKAQeRuFamHn9X30tioLgDEizMSnoOdo9sLfLdL72emPniaYk5Zzx4SGkHzKd1can/9eja1Ku3tbUPXa77hnHf5eqorV15NbU2+rp/YnGAjKBwce8hT5S8+bCc5j4ZJFvr0N2pk4OWbNAf27MfRjcJBABAcQckiLRLelJ2nW3hAACA4g6IowcYxQQAACjuQAnwS2ruPrY5AwAAijsg0J6kUUxOdjsDAACKOyDQyTKjmAAAAMUdUJ+sUUw1DrIFAAAUd0CcNxuSRjEdki0AAKC4A+JIG8V0QLYAAIDiDohTKWsUU5ZsAQAAxR0QJ9LNKCYAAEBxB9Sn2yQ197iXcAEAAMUdENfcg5J2yzCKCQAAUNwBkbYnGcUEAACUsEpxB66gSxvF5CZcAABwHb9T3IErpeYkjWLaIlsAAHANixR34GpbkkYxzaXIFgAAFK6e4g7k0TAjp7kv28kWAAAU7KnI4t5PnjAjvXJH0hDVbcIFAACFekJxB/Kab5N0oHuSbAEAAMUdEEc/k9Tcz7yECwAACsJWGaCg5i5pFNMfxxHCBQAAhRD6cOo78oR5xSSNYtphFBMAAChElcjiPk6eMLGDITnNfeaUbAEAQH7jIov7BHnCzMo8jGICAAB35leRxb2cPGFqjhpJo5iiZAsAAPKZElncq8gT5uYOMYoJAADcke9FFvdF8oTJLcxKGsXUQrYAAOBKQg+VMQYIFGYnaxTTZJBsAQDAVb4V2dtd5Anz87ZLOtA9oBMuAADIbUVkcV8hT1iAvssoJgAAUHS/C90p8xOBwhJkjWLyzZMtAADI4YPQ4l5BoLCGNKOYAABAcQkdm2oYPSQKi9hfltPcQxmyBQAAl6h7K7a4c4w7LMNxxCgmAABQPKNie3tjK5HCMt5syGnunkOyBQAAX1r6h9ji/guRwkKkjWLaI1sAAPB3711ie7sxSKawksowo5gAAEAxvHwguLcb/YQKS4l0SzrQfZ1RTAAA4C+LD0X3dqOeVGEtekBSc497CRcAAHw24RLe29niDuvx/8EoJgAAIFPd40bhvd0YJVdYz56kUUzOTbIFAACaNvbWkGCVYGFBJ4xiAgAAsjx51iijt7vqiBZWFJU0iqnGQbYAAFjbwGuXIcUzsoU1MYoJAABIMNIsqbYbxm+kC4tqmJE0iumAbAEAsKjq8kf3ZNV242vyhWVJG8WUJVsAAKxorO+BIRHTl2BhkQSjmAAAgBDD44MPDam6BkgZFuYNOOXYJlsAAKzj5/G+lUZDtmaCBgAAAG5mpOpd83OXUQxdT4gbAAAAt7dabi1L/aNTK11G8TA1FQAAACI8NCDT/ae8xwAAAEBxVx473AEAAEBxV9+DVt5iAAAAoLgrb5x3GAAAACjuynvOGwwAAAAUd/WfTH3PGwwAAAAUd+X18P4CAAAAxV15H3p5fwEAAIDirrqOEd5ewH/Yu5uVBKIADMMEMmBigrho0yLJxlLJHzCkZmEL20RGuwYMEhcu7P633cYHPc81fIuX4cw5AIBwT9ddWRcAAMI9Xt+4AAAQ7vHGDrgDACDc41UXtgUAgHBPt/NjKgAAwj3eumNZAAAI93Sjd8MCAEC4x1/g/m1XAAAI93RD3Q4AgHCPd/qwKgAAhHu6t4VRAQAg3NM9XdoUAADCPVyrd25SAAAI93DXU4MCAEC4p9u7vh0AAOEef0ymcLwdAADhHv9a6sqYAAAQ7vG3ybgFEgAA4R7/ub22JAAAhHu4bnFvSAAACPf0t1KXZgQAgHAPN7zz5hIAAMI9/cmluTsgAQAQ7unZ3nOXDAAAwj0928uZ/QAAINyzXfnaDgCAcE/X7rsBEgAA4Z6ttZ26SQYAAOEefkam+DQbAACEe/Yjqdva/Y8AAAj3bKd5x2IAABDu0Xa9g7kAACDcs2+RKZu3xgIAgHBPPtde9ZeGAgCAcE929jz1NyoAAMI92XpSP1oIAADCPddNVdYf1gEAgHAPvj5mMjh4GRUAAOGe+yhqVQwaC6MAAEC4h56M2b+Wd80HcwAAQLgHao32x6K/+Z3ZAQAA4d7a/8xXdRz/lC+DTeNz5iQ7AAAAAAAAAAAAAAAAAAAAAAAAAAAAAAAAAAAAAAAAAAAAAAAAAAAAAAAAAAAAAAAAAAAAAAAAAAAAAAAAAAAAAAAAAAAAAAAAAAAAAAAAAAAAAAAAAAAAAAAAAAAAAAAAAAAAAAAAAAAAAAAAAAAAAAAAAAAAAAAAAAAAAAAAAAAAAAAAAAAAAAAAAAAAAAAAAAAAAAAAAAAAAAAAAAAAAAAAAAAAAAAAAAAAAAAAAAAAAAAAAAAAAAAAAAAAAAAAAAAAAAAAAAAAAAAAAAAAAAAAAAAAAAAAAAAAAAAAAAAAAAAAAAAAAAAAAAAAAAAAAAAAAAAAAAAAAAAAAAAAAAAAAAAAAAAAAAAAAAAAAAAAAAAAAAAAAAAAAAAAAAAAAAAAAAAAAAAAAAAAAAAAAAAAAAAAAAAAAAAAAAAAAAAAAAAAAAAAAAAAAAAAAAAAAAAAAAAAAAAAAAAAAAAAAAAAAAAAAMAfe3AgAAAAAADk/9oIqqqqqqqqqqqqqqqqqqqqqqqqqqqqqqqqqqqqqqqqqqqqqqqqqqqqqqqqqqqqqqqqqqqqqqqqqqqqqqqqqqqqqqqqqqqqqqqqqqqqqqqqqqqqqqqqqqqqqqqqqqqqqqqqqqqqqqqqqqqqqqqqqqqqqqqqqqqqqqqqqqqqqqqqqqqqqqqqqqqqqqqqqqqqqqqqqqqqqqqqqqqqqqqqqqqqqqqqqqqqqqqqqqqqqqqqqqqqqqqqqqqqqqqqqqqqqqqqqqqqqqqqqqqqqqqqqqqqqqqqqqqqqqqqqqqqqqqqqqqqqqqqqqqqqqqqqqqqqqqqqqqqqqqqqqqqqqqqqqqqqqqqqqqqqqqqqqqqqqqqqqqqqqqqqqqqqqqqqqqqqqqqqqqqqqqqqqqqqqqqqqqqqqqqqqqqqqqqqqqqqqqqqqqqqqqqqqqqqqqqqqqqqqqqqqqqqqqqqqqqqqqqqqqqqqqqqqqqqqqqqqqqqqqqqqqqqqqqqqqqqqqqqqqqqqqqqqqqqqqqqqqqqqqqqqqqqqqqqqqqqqqqqqqqqqqqqqqqqqqqqqqqqqqqqqqqqqqqqqqqqqqqqqqqqqqqqqqqqqqqqqqqqqqqqqqqqqqqqqqqqqqqqqqqqqqqqqqqqqqqqqqqqqqqqqqqqqqqqqqqqqqqqqqqqqqqqqqqqqqqqirtwSEBAAAAgKD/rx1hBQAAAAAAAAAAAAAAAAAAAAAAAAAAAAAAAAAAAAAAAAAAAAAAAAAAAAAAAAAAAAAAAAAAAAAAAAAAAAAAAAAAAAAAAAAAAAAAAAAAAAAAAAAAAAAAAAAAAAAAAAAAAAAAAAAAAAAAAAAAAAAAAAAAAAAAAAAAAAAAAAAAAAAAAAAAAAAAAAAAAAAAAAAAAAAAAAAAAAAAAAAAAAAAAAAAAAAAAAAAAAAAAAAAAAAAAAAAAAAAAAAAAAAAAAAAAAAAAAAAAAAAAAAAAAAAAAAAAAAAAAAAAAAAAAAAAAAAAAAAAAAAAAAAAAAAAAAAAAAAAAAAAAAAAAAAAAAAAAAAAAAAAAAAAAAAAAAAAAAAAAAAAAAAAAAAAAAAAAAAAAAAAAAAAAAAAAAAAAAAAAAAAAAAYAtVyFEUxY/0ZAAAAABJRU5ErkJggg==;" parent="1" vertex="1">
                    <mxGeometry x="108.83000000000001" y="180" width="89.91" height="60" as="geometry"/>
                </mxCell>
                <mxCell id="me_X3TQdLvSyZ-2hOkaQ-9" style="edgeStyle=orthogonalEdgeStyle;rounded=0;orthogonalLoop=1;jettySize=auto;html=1;entryX=0;entryY=0.5;entryDx=0;entryDy=0;entryPerimeter=0;strokeWidth=1;strokeColor=#080808;" parent="1" source="me_X3TQdLvSyZ-2hOkaQ-8" target="me_X3TQdLvSyZ-2hOkaQ-3" edge="1">
                    <mxGeometry relative="1" as="geometry">
                        <Array as="points">
                            <mxPoint x="250" y="125"/>
                            <mxPoint x="250" y="210"/>
                        </Array>
                    </mxGeometry>
                </mxCell>
                <mxCell id="me_X3TQdLvSyZ-2hOkaQ-8" value="" style="dashed=0;outlineConnect=0;html=1;align=center;labelPosition=center;verticalLabelPosition=bottom;verticalAlign=top;shape=mxgraph.weblogos.mongodb" parent="1" vertex="1">
                    <mxGeometry x="160" y="100" width="25.63" height="50" as="geometry"/>
                </mxCell>
                <mxCell id="2" value="curated&lt;br&gt;" style="sketch=0;points=[[0,0,0],[0.25,0,0],[0.5,0,0],[0.75,0,0],[1,0,0],[0,1,0],[0.25,1,0],[0.5,1,0],[0.75,1,0],[1,1,0],[0,0.25,0],[0,0.5,0],[0,0.75,0],[1,0.25,0],[1,0.5,0],[1,0.75,0]];outlineConnect=0;fontColor=#232F3E;gradientColor=#60A337;gradientDirection=north;fillColor=#277116;strokeColor=#ffffff;dashed=0;verticalLabelPosition=bottom;verticalAlign=top;align=center;html=1;fontSize=12;fontStyle=0;aspect=fixed;shape=mxgraph.aws4.resourceIcon;resIcon=mxgraph.aws4.s3;" vertex="1" parent="1">
                    <mxGeometry x="470" y="185" width="50" height="50" as="geometry"/>
                </mxCell>
                <mxCell id="8" value="" style="sketch=0;points=[[0,0,0],[0.25,0,0],[0.5,0,0],[0.75,0,0],[1,0,0],[0,1,0],[0.25,1,0],[0.5,1,0],[0.75,1,0],[1,1,0],[0,0.25,0],[0,0.5,0],[0,0.75,0],[1,0.25,0],[1,0.5,0],[1,0.75,0]];outlineConnect=0;fontColor=#232F3E;gradientColor=#FF4F8B;gradientDirection=north;fillColor=#BC1356;strokeColor=#ffffff;dashed=0;verticalLabelPosition=bottom;verticalAlign=top;align=center;html=1;fontSize=12;fontStyle=0;aspect=fixed;shape=mxgraph.aws4.resourceIcon;resIcon=mxgraph.aws4.managed_workflows_for_apache_airflow;" vertex="1" parent="1">
                    <mxGeometry x="530" y="92.5" width="45" height="45" as="geometry"/>
                </mxCell>
            </root>
        </mxGraphModel>
    </diagram>
</mxfile>